<?xml version="1.0" encoding="UTF-8" standalone="no"?>
<!-- Creator: CorelDRAW -->
<svg
   xmlns:svg="http://www.w3.org/2000/svg"
   xmlns="http://www.w3.org/2000/svg"
   xmlns:sodipodi="http://sodipodi.sourceforge.net/DTD/sodipodi-0.dtd"
   xmlns:inkscape="http://www.inkscape.org/namespaces/inkscape"
   width="420.11371"
   height="500"
   style="shape-rendering:geometricPrecision; text-rendering:geometricPrecision; image-rendering:optimizeQuality; fill-rule:evenodd; clip-rule:evenodd"
   id="svg2"
   sodipodi:version="0.32"
   inkscape:version="0.45.1"
   sodipodi:docname="Coat_of_Arms_Belgrade.svg"
   inkscape:output_extension="org.inkscape.output.svg.inkscape"
   sodipodi:docbase="C:\Documents and Settings\Zach\Desktop"
   version="1.0"
   xml:space="preserve"><sodipodi:namedview
     inkscape:window-height="720"
     inkscape:window-width="1024"
     inkscape:pageshadow="2"
     inkscape:pageopacity="0.0"
     guidetolerance="10.0"
     gridtolerance="10.0"
     objecttolerance="10.0"
     borderopacity="1.0"
     bordercolor="#666666"
     pagecolor="#ffffff"
     id="base"
     inkscape:zoom="0.72965539"
     inkscape:cx="6.6286"
     inkscape:cy="311.00614"
     inkscape:window-x="-4"
     inkscape:window-y="-4"
     inkscape:current-layer="svg2" /><defs
     id="defs4">
  <style
   type="text/css"
   id="style6">
   
    .fil6 {fill:none}
    .fil4 {fill:#1F1A17}
    .fil1 {fill:#DA251D}
    .fil2 {fill:white}
    .fil0 {fill:#34377B}
    .fil5 {fill:#E7B400}
    .fil3 {fill:#1F1A17;fill-rule:nonzero}
   
  </style>
 
  <metadata
   id="CorelCorpID_0Corel-Layer" />
  
 
   
   
   
   
   
   
   
  
    
    
    
    
    
    
    
    
    
    
    
    
    
    
    
    
    
    
    
    
    
    
    
    
    
    
    
    
    
    
    
    
    
    
    
    
    
    
    
    
    
    
    
    
    
    
    
    
    
   
    
    
    
    
    
   
     
     
    
     
     
    
     
     
    
     
     
    
     
     
    
     
     
    
     
     
    
     
     
    
     
     
    
     
     
    
     
     
    
     
     
    
     
     
    
     
     
    
     
     
    </defs><path
     id="_48799656"
     class="fil0"
     d="M 0,65.344822 L 65.017781,6.969533e-006 C 110.24268,40.127029 169.48063,37.65082 209.34273,6.969533e-006 C 252.89062,34.314875 300.95457,41.414886 354.56764,6.969533e-006 L 420.11371,65.344822 C 386.04061,89.497786 360.9068,146.91683 372.16573,203.07774 C 378.62673,235.30681 382.86872,265.42252 382.8377,296.51172 C 380.60669,365.78348 346.85186,417.45941 280.70276,446.2036 C 244.6887,461.85056 224.04179,478.94253 209.10182,499.99952 C 188.48086,470.83557 161.1678,457.05373 137.03695,446.07652 C 72.446979,416.69455 38.27598,367.30552 35.425201,296.51172 C 34.829205,263.83171 41.614207,233.27172 46.535189,203.07774 C 58.808177,127.75678 30.973222,95.645912 0.00025351522,65.344822 L 0,65.344822 z "
     style="fill:#34377b" /><path
     id="_48799360"
     class="fil1"
     d="M 35.424948,296.51172 C 38.275945,367.30552 72.447042,416.69442 137.03765,446.07652 C 161.16761,457.0535 188.48064,470.83548 209.10157,499.99952 C 224.04154,478.94253 244.68845,461.85053 280.7025,446.2036 C 346.85255,417.45963 380.6065,365.78379 382.83744,296.51172 L 359.41749,269.02877 L 59.699761,269.02877 L 35.424789,296.51172 L 35.424948,296.51172 z "
     style="fill:#c3010d;fill-opacity:1" /><path
     id="_48798600"
     class="fil2"
     d="M 61.79877,381.72325 C 75.777758,379.72123 81.768736,394.27222 93.724576,392.73024 C 106.77557,391.04728 120.87954,380.37626 132.73043,381.38826 L 321.04915,392.23725 C 328.93111,391.70825 334.46713,388.92826 341.5631,384.66726 C 349.27211,380.03525 351.39007,379.74526 358.12307,379.92627 C 349.7901,392.90323 339.22109,405.81422 324.89704,417.59136 C 310.55808,417.82536 300.81507,408.58737 286.50312,406.75435 C 280.66413,406.00737 274.52615,408.59637 268.43614,411.45035 C 260.59514,415.11936 251.71716,418.89637 242.89718,418.96336 C 235.77118,419.01634 231.29721,413.01835 225.3332,409.86135 C 220.04221,407.05835 215.05021,405.76133 210.21523,405.70933 C 209.21223,405.69932 208.21223,405.73833 207.22224,405.82534 C 202.03424,406.28332 197.05025,408.06535 192.17427,410.86036 C 186.46029,414.13835 182.2283,418.86236 175.3073,419.51235 C 171.70231,419.85234 167.96632,419.38733 165.10132,418.19837 C 156.81134,414.75937 142.99634,404.07739 130.99623,406.26136 C 117.67524,408.68637 111.04227,418.49236 95.656211,418.50836 C 79.983234,406.31935 69.685254,393.91536 61.798301,381.72328 L 61.79877,381.72325 z M 41.585813,331.88344 C 50.017793,330.20142 58.903785,324.04444 77.313712,333.90944 C 85.211693,338.14243 96.164691,340.11842 105.62968,338.65643 C 123.17265,335.94647 139.45178,334.10446 156.82074,337.76944 C 167.29374,339.97744 177.39572,339.28642 185.4967,335.74946 C 195.9467,331.18646 205.87369,329.11045 217.24378,329.42446 C 232.82676,329.85446 236.77874,339.35845 252.34582,337.98743 C 260.54881,337.26542 271.6028,324.83646 289.58974,326.19045 C 304.58972,327.31844 321.08071,344.57545 333.58858,336.22547 C 349.02157,325.92246 362.45854,322.76647 377.10542,331.39846 C 375.48941,339.19845 372.71142,347.24443 370.33243,354.66342 C 366.75044,354.37942 351.48144,347.30845 338.99147,358.61044 C 331.9295,365.00141 322.89553,366.00242 312.20551,363.30644 C 291.01053,357.96144 268.09164,366.5174 245.9135,363.65844 C 232.60953,361.94344 219.33753,352.37544 206.22252,352.43542 C 197.77752,352.47342 191.02254,360.39344 179.20557,359.38242 C 159.6616,357.71042 141.25465,353.85543 121.72353,355.63841 C 115.22453,356.23141 98.523554,368.98639 88.081422,363.60242 C 70.588461,354.5854 63.394459,351.87341 48.440516,354.34342 C 45.795519,347.16445 43.215536,339.46445 41.585528,331.88347 L 41.585813,331.88344 z "
     style="fill:#ffffff" /><path
     id="_48358552"
     class="fil0"
     d="M 0,65.344822 L 65.017781,6.969533e-006 C 110.24363,40.127029 169.48063,37.65082 209.34273,6.969533e-006 C 252.88967,34.314875 300.95457,41.414886 354.56764,6.969533e-006 L 420.11371,65.344822 C 386.04061,89.497786 360.90775,146.91683 372.16668,203.07774 C 378.62667,235.30681 382.86764,265.42252 382.83766,296.51172 L 359.4327,269.08977 L 59.583143,269.20377 L 35.42517,296.51173 C 34.829173,263.83172 41.614175,233.27173 46.535157,203.07775 C 58.808146,127.7568 30.974172,95.645924 0.00022182581,65.344835 L 0,65.344822 z "
     style="fill:#002079;fill-opacity:1" /><polygon
     style="fill:#ffffff"
     points="11.3317,8.48873 10.8419,6.52552 11.1383,6.17341 11.1383,4.39604 10.6648,3.8947 10.2105,4.40579 10.2105,5.11694 9.59171,5.11694 9.59171,5.76321 8.48371,5.76321 8.48371,5.136 8.14492,5.13562 8.14492,3.08264 8.54319,2.69907 8.54319,1.46105 7.7777,1.46105 7.7777,1.99215 7.08267,1.99215 7.08267,1.46105 6.13324,1.46105 6.13324,1.99215 5.43821,1.99215 5.43821,1.46105 4.67272,1.46105 4.67272,2.69907 5.07099,3.08264 5.07099,5.13562 4.73221,5.136 4.73221,5.76321 3.6242,5.76321 3.6242,5.11694 3.00542,5.11694 3.00542,4.40579 2.5511,3.8947 2.07763,4.39604 2.07763,6.17341 2.37398,6.52552 1.88426,8.48873 11.3317,8.48873 "
     class="fil2"
     id="_48357912"
     transform="matrix(31.689402,0,0,31.689402,0,-9.4371253e-4)" /><path
     style="fill:#1f1a17;fill-rule:nonzero"
     d="M 174.22485,206.69286 L 174.22485,222.80284 L 179.05083,222.80284 L 179.05083,212.02686 C 177.52683,209.99486 176.25683,208.21687 174.22485,206.69286 L 174.22485,206.69286 z M 168.38284,203.08788 L 168.38284,222.80284 L 173.20882,222.80284 L 173.20882,205.88187 C 171.62982,204.58587 170.21382,203.69787 168.38284,203.08787 L 168.38284,203.08788 z M 161.77887,222.80284 L 167.36685,222.80284 L 167.41585,202.67687 C 165.63785,201.91487 163.55684,201.41787 161.77885,201.40687 L 161.77885,222.80283 L 161.77887,222.80284 z M 240.00289,260.39471 L 240.00289,268.52269 L 244.32887,268.52269 L 244.32887,260.39471 L 240.00289,260.39471 z M 245.34487,268.52269 L 250.17084,268.52269 L 250.17084,260.39471 L 245.34487,260.39471 L 245.34487,268.52269 z M 251.18687,268.52269 L 257.02887,268.52269 L 257.02887,260.39471 L 251.18687,260.39471 L 251.18687,268.52269 z M 244.32887,229.66071 L 240.00289,229.66071 L 240.00289,253.43068 L 244.32887,253.43068 L 244.32887,229.66071 z M 250.17087,229.66071 L 245.3449,229.66071 L 245.3449,253.43068 L 250.17087,253.43068 L 250.17087,229.66071 z M 257.02887,253.43068 L 257.02887,229.66071 L 251.18687,229.66071 L 251.18687,253.43068 L 257.02887,253.43068 z M 244.58289,206.54684 C 242.5509,208.07084 241.5269,209.84884 240.00289,211.88083 L 240.00289,222.80281 L 244.58289,222.80281 L 244.58289,206.54684 L 244.58289,206.54684 z M 250.17087,202.99085 C 248.64688,203.75284 246.86887,204.76884 245.59889,205.78484 L 245.59889,222.80281 L 250.17087,222.80281 L 250.17087,202.99085 L 250.17087,202.99085 z M 257.02887,222.80281 L 257.02887,201.40783 C 254.99688,201.66183 252.96487,201.96383 251.18687,202.72583 L 251.18687,222.80281 L 257.02887,222.80281 L 257.02887,222.80281 z M 257.02887,259.37871 L 257.02887,254.29871 L 255.25088,254.29871 L 255.25088,259.37871 L 257.02887,259.37871 z M 257.02887,228.64475 L 257.02887,223.81877 L 255.25088,223.81877 L 255.25088,228.64475 L 257.02887,228.64475 z M 268.20487,268.52269 L 268.20487,248.45671 L 263.37889,248.45671 L 263.37889,268.52269 L 268.20487,268.52269 z M 262.36287,268.52269 L 262.36287,201.21282 L 257.99889,201.21282 C 257.99889,223.8188 257.99889,246.17089 257.99889,268.52269 L 262.36287,268.52269 z M 263.27487,247.48372 L 291.57283,247.48372 L 291.57283,223.31075 L 263.37887,223.31075 L 263.27487,247.48372 L 263.27487,247.48372 z M 333.73688,207.30884 L 326.73088,199.94286 L 314.94092,199.94286 L 314.94092,222.29483 L 347.19882,222.29483 C 345.92884,217.21482 344.65882,212.38884 343.13481,207.30884 L 333.73682,207.30884 L 333.73688,207.30884 z M 347.19886,223.31082 L 332.21287,223.31082 L 332.10887,247.48378 L 352.93684,247.48378 C 350.90488,239.3558 349.23088,231.4388 347.19886,223.31082 L 347.19886,223.31082 z M 343.38886,206.18685 L 352.02485,195.87886 L 324.59288,195.87886 L 334.14888,206.18685 L 343.38886,206.18685 z M 292.58886,247.48384 L 331.09274,247.48384 L 331.19675,223.31088 L 292.58892,223.31088 L 292.58892,247.48384 L 292.58886,247.48384 z M 313.92483,199.94277 L 269.22091,199.94277 L 269.22091,222.29473 L 313.92483,222.29473 L 313.92483,199.94277 z M 313.92483,268.52275 L 313.92483,248.45677 L 269.22091,248.45677 L 269.22091,268.52275 L 313.92483,268.52275 z M 208.76893,101.39095 L 161.35303,101.39095 L 161.35303,121.57691 L 208.76893,121.57691 L 208.76893,101.39095 z M 209.78493,100.37495 L 257.53674,100.37495 L 257.53674,98.401952 L 209.78493,98.296952 L 209.78493,100.37495 L 209.78493,100.37495 z M 208.76893,98.296952 L 161.35303,98.296952 L 161.35303,100.37495 L 208.76893,100.37495 L 208.76893,98.296952 z M 209.78493,97.326953 L 257.79089,97.326953 L 269.72886,85.896965 L 209.78487,85.896965 L 209.78487,97.326953 L 209.78493,97.326953 z M 208.76893,85.896965 L 149.25402,85.809964 L 160.93701,97.239952 L 208.769,97.326953 L 208.769,85.896965 L 208.76893,85.896965 z M 224.00891,46.78115 L 194.79895,46.78115 L 194.79895,63.545129 L 171.68498,63.545129 L 171.68498,46.78115 L 148.572,46.78115 L 148.572,84.881003 C 188.95697,84.881003 229.59673,84.881003 270.23681,84.881003 L 270.23681,46.78115 L 246.86885,46.78115 L 246.86885,63.545129 L 224.00887,63.545129 L 224.00887,46.78115 L 224.00891,46.78115 z M 359.73556,269.50283 C 259.51562,269.50283 159.29281,269.50283 59.072857,269.50283 C 64.950862,248.80686 68.846852,227.62274 74.684833,206.91689 L 65.340833,195.81391 L 65.340833,139.10889 L 80.855803,122.68091 L 96.053787,139.42689 L 96.053787,161.65286 L 115.66376,161.65286 L 115.66376,182.13283 L 149.15059,182.13283 L 149.15059,162.25787 L 160.19856,162.24587 C 160.19856,140.79791 160.19856,119.34793 160.19856,97.899905 L 147.57759,85.744928 L 147.57759,45.80012 L 172.83556,45.80012 L 172.83556,62.630108 L 193.86053,62.630108 L 193.86053,45.80012 L 224.94748,45.80012 L 224.94748,62.630108 L 245.97245,62.630108 L 245.97245,45.80012 L 271.23043,45.80012 L 271.23043,85.744928 L 258.60946,97.899905 C 258.60946,119.34786 258.60946,140.79785 258.60946,162.24587 L 269.34545,162.25787 L 269.34545,182.13283 L 303.4575,182.13283 L 303.4575,161.65286 L 322.81447,161.65286 L 322.81447,139.42689 L 337.95241,122.68091 L 353.46738,139.10889 L 353.46738,195.81391 L 344.12339,206.91689 C 349.96139,227.62287 353.85739,248.80679 359.73537,269.50283 L 359.73556,269.50283 z M 209.7848,121.57701 L 257.53661,121.57701 L 257.53661,101.39105 L 209.7848,101.39105 L 209.7848,121.57701 L 209.7848,121.57701 z M 161.35294,152.69898 L 208.76884,152.69898 L 208.76884,122.72702 L 161.35294,122.72702 L 161.35294,152.69898 z M 209.7848,152.69898 L 257.53661,152.69898 L 257.53661,122.72702 L 209.7848,122.72702 L 209.7848,152.69898 L 209.7848,152.69898 z M 324.65062,138.98302 L 352.02459,138.98302 L 338.01262,124.31704 L 324.65062,138.98302 z M 323.83063,194.86284 L 352.53258,194.86284 L 352.53258,139.99898 L 323.83063,139.99898 L 323.83063,194.86284 z M 209.78493,194.86284 C 247.37679,194.86284 285.22282,194.86284 322.81469,194.86284 L 322.81469,162.60493 L 304.58472,162.60493 L 304.58472,183.1789 L 268.20465,183.1789 L 268.20465,163.32092 C 257.79066,163.32092 247.12268,163.32092 236.45473,163.32092 L 236.45473,162.24593 L 257.5367,162.24593 L 257.5367,153.71495 L 209.78489,153.71495 L 209.78489,181.76292 L 219.69088,181.76292 L 219.69088,182.92492 L 209.78489,182.92492 L 209.78489,194.86289 L 209.78493,194.86284 z M 208.76893,182.92487 L 198.86295,182.92487 L 198.86295,181.76287 L 208.76893,181.76287 L 208.76893,153.7149 L 161.35303,153.7149 L 161.35303,162.24588 L 182.099,162.24588 L 182.099,163.32088 C 171.68501,163.32088 161.01702,163.32088 150.34907,163.32088 L 150.34907,183.17885 L 114.53625,183.17885 L 114.53625,162.60489 L 95.994268,162.60489 L 95.994268,194.8628 L 208.76924,194.8628 L 208.76924,182.92483 L 208.76893,182.92487 z M 94.97799,194.86284 L 94.97799,139.99898 L 66.530034,139.99898 L 66.530034,194.86284 L 94.97799,194.86284 z M 94.257992,138.98302 L 80.88202,124.19104 L 66.871026,139.07001 L 94.257992,138.98301 L 94.257992,138.98302 z M 75.631023,206.188 L 84.818002,206.188 L 94.469991,195.87903 L 66.932028,195.87903 L 75.631023,206.188 z M 85.072024,207.309 L 75.674026,207.309 C 74.404029,212.389 73.134029,217.21498 71.864041,222.29498 L 103.86812,222.29498 L 103.86812,199.94302 L 92.184141,199.94302 L 85.072151,207.309 L 85.072024,207.309 z M 95.993999,195.87901 L 93.200001,198.92701 L 198.35494,198.92701 C 200.38694,197.91101 202.41895,197.40301 204.45094,196.89501 L 204.25794,195.87901 L 95.993948,195.87901 L 95.993999,195.87901 z M 126.47394,247.37588 L 126.47394,223.31091 L 87.824915,223.31091 L 87.824915,247.37588 L 126.47394,247.37588 z M 71.610082,223.31091 C 69.578086,231.4389 67.800098,239.2479 65.768077,247.37588 L 86.850054,247.37588 L 86.850054,223.31091 L 71.610082,223.31091 z M 65.514085,248.45687 C 63.990091,255.31487 62.466093,261.91884 60.434085,268.52285 L 104.63003,268.52285 L 104.63003,248.45687 L 65.514212,248.45687 L 65.514085,248.45687 z M 105.64618,268.52285 L 149.58702,268.52285 L 149.58702,248.45687 L 105.64618,248.45687 L 105.64618,268.52285 z M 155.42896,247.37588 L 155.42896,223.31091 L 127.44899,223.31091 L 127.44899,247.37588 L 155.42896,247.37588 z M 104.88405,199.94286 L 104.88405,222.29483 L 149.58702,222.29483 L 149.58702,199.94286 L 104.88405,199.94286 z M 179.81301,268.52285 L 238.99487,268.52285 L 238.99487,260.39487 L 229.08889,260.39487 L 229.08889,253.43087 L 238.99487,253.43087 L 238.99487,229.6609 L 229.08889,229.6609 L 229.08889,222.8029 L 232.13688,222.8029 C 233.40688,220.2629 234.16888,218.7389 235.43888,216.45291 C 232.13688,207.05492 223.6619,199.65794 214.00991,197.87995 L 212.99491,203.24493 L 212.07091,202.99093 L 213.34091,195.87894 L 205.21292,195.87894 L 206.48292,203.24492 L 205.62892,203.30692 L 204.61192,197.91091 C 202.57993,198.16491 200.64093,198.92691 198.60894,199.68891 C 191.24296,203.24491 186.67097,208.5789 183.36897,216.70688 C 184.63896,218.99288 185.40096,220.26287 186.41696,222.80288 C 186.92496,222.80288 189.46495,222.80288 189.46495,222.80288 L 189.46495,229.66088 L 179.81296,229.66088 L 179.81296,253.43084 L 189.46495,253.43084 L 189.46495,260.39484 L 179.81296,260.39484 L 179.81296,268.52282 L 179.81301,268.52285 z M 150.60305,199.94286 L 150.60305,222.29483 L 155.42903,222.29483 L 155.42903,200.19685 L 160.93702,200.32885 C 170.61002,200.56086 177.30701,206.54983 182.607,215.69083 C 184.893,209.59483 189.97298,203.24485 196.32297,199.94284 L 150.60308,199.94284 L 150.60305,199.94286 z M 156.39904,268.52285 L 160.76302,268.52285 C 160.76302,246.17089 160.76302,223.86805 160.76302,201.26209 L 156.39904,201.15709 L 156.39904,268.52306 L 156.39904,268.52285 z M 150.60305,268.52285 L 155.42903,268.52285 L 155.42903,248.45687 L 150.60305,248.45687 L 150.60305,268.52285 z M 353.2948,248.45687 L 314.9408,248.45687 L 314.9408,268.52285 L 358.37462,268.52285 C 356.59662,261.91887 354.81862,255.31487 353.29461,248.45687 L 353.2948,248.45687 z M 178.79711,260.39483 L 174.22512,260.39483 L 174.22512,268.52282 L 178.79711,268.52282 L 178.79711,260.39483 z M 173.20912,268.52282 L 173.20912,260.39483 L 168.63714,260.39483 L 168.63714,268.52282 L 173.20912,268.52282 z M 167.62114,268.52282 L 167.62114,260.39483 L 161.77914,260.39483 L 161.77914,268.52282 L 167.62114,268.52282 z M 161.77914,259.37884 L 163.55713,259.37884 L 163.55713,254.29884 L 161.77914,254.29884 L 161.77914,259.37884 z M 161.77914,253.43083 L 167.62114,253.43083 L 167.62114,229.66087 L 161.77914,229.66087 L 161.77914,253.43083 z M 161.77914,228.64487 L 163.55713,228.64487 L 163.55713,223.8189 L 161.77914,223.8189 L 161.77914,228.64487 z M 180.06712,213.15091 L 180.06712,222.8029 L 185.40111,222.8029 C 183.87712,219.5009 182.09911,216.19892 180.06712,213.15091 z M 168.63714,229.6609 L 168.63714,253.43087 L 173.20912,253.43087 L 173.20912,229.6609 L 168.63714,229.6609 z M 174.22512,229.6609 L 174.22512,253.43087 L 178.79711,253.43087 L 178.79711,229.6609 L 174.22512,229.6609 z M 188.4491,223.8189 C 180.57511,223.8189 172.55312,223.8189 164.42514,223.8189 L 164.42514,228.64487 C 172.55312,228.64487 180.57511,228.64487 188.4491,228.64487 L 188.4491,223.8189 z M 188.4491,254.29884 C 180.57511,254.29884 172.55312,254.29884 164.42514,254.29884 L 164.42514,259.37884 C 172.55312,259.37884 180.57511,259.37884 188.4491,259.37884 L 188.4491,254.29884 z M 230.10513,223.8189 L 230.10513,228.64487 C 238.23312,228.64487 246.10711,228.64487 254.23509,228.64487 L 254.23509,223.8189 C 246.10711,223.8189 238.23312,223.8189 230.10513,223.8189 L 230.10513,223.8189 z M 230.10513,254.29884 L 230.10513,259.37884 C 238.23312,259.37884 246.10711,259.37884 254.23509,259.37884 L 254.23509,254.29884 L 230.10513,254.29884 L 230.10513,254.29884 z M 268.20498,199.94296 L 222.23095,199.94296 C 228.83493,203.24496 233.91493,209.08694 236.20094,215.43692 C 242.24892,205.46192 248.02692,201.08695 258.02591,200.24293 L 263.37891,200.19693 L 263.37891,222.2949 L 268.20489,222.2949 L 268.20489,199.94294 L 268.20498,199.94296 z M 238.99503,213.15094 C 236.70903,216.19894 234.93102,219.50093 233.40704,222.80293 L 238.99503,222.80293 L 238.99503,213.15094 z M 323.06894,195.87895 L 214.35715,195.87895 L 214.19615,196.89495 C 216.48215,197.40295 218.42114,197.91095 220.19913,198.92695 L 325.96884,198.92695 L 323.06887,195.87895 L 323.06894,195.87895 z "
     class="fil3"
     id="_48797152" /><path
     style="fill:#1f1a17"
     d="M 185.78482,182.91979 L 199.21682,182.91979 L 199.21682,153.16084 L 182.04985,153.16084 L 182.04985,163.17783 L 185.77284,163.17783 L 185.78485,182.91979 L 185.78482,182.91979 z M 233.69286,182.91979 L 219.42588,182.91979 L 219.44388,153.16084 L 236.74487,153.16084 L 236.75687,163.17783 L 233.69087,163.17783 L 233.69287,182.91979 L 233.69286,182.91979 z M 182.04991,109.64597 L 199.21688,109.64597 L 199.21688,137.59292 L 182.04991,137.59292 L 182.04991,109.64597 L 182.04991,109.64597 z M 219.58981,109.64597 L 236.75678,109.64597 L 236.75678,137.59292 L 219.58981,137.59292 L 219.58981,109.64597 L 219.58981,109.64597 z M 76.34801,146.77296 L 84.984986,146.77296 L 84.984986,172.93494 L 76.34801,172.93494 L 76.34801,146.77296 z M 333.82156,146.77296 L 342.45954,146.77296 L 342.45954,172.93494 L 333.82156,172.93494 L 333.82156,146.77296 z "
     class="fil4"
     id="_49102512" /><path
     style="fill:#002079;fill-opacity:1"
     d="M 223.54465,268.8437 L 195.04367,268.8427 L 195.11067,225.98691 C 195.13567,209.84192 222.16363,207.76293 223.54463,225.28491 L 223.54463,268.84389 L 223.54465,268.8437 z "
     class="fil0"
     id="_49101872" /><path
     style="fill:#1f1a17"
     d="M 195.42474,269.04081 L 195.42474,226.16378 C 195.42474,210.08382 221.9277,208.0138 223.27969,225.46379 L 223.27969,269.04083 L 232.22168,269.02883 L 232.22168,260.30084 L 229.14769,260.30084 L 229.14769,253.52685 L 232.22168,253.52685 L 232.22168,229.5799 L 229.14869,229.5799 L 229.14869,222.86789 L 232.16768,222.86789 C 230.90768,210.1079 221.37069,203.90993 212.2457,203.04091 C 211.4357,202.96391 210.6177,202.92691 209.8167,202.92991 C 208.6457,202.93591 207.4847,203.02291 206.36072,203.17991 C 197.07674,204.48491 189.37073,211.09088 186.43274,222.86889 L 189.41874,222.86889 L 189.41874,229.57788 L 186.33875,229.57788 L 186.33875,253.49384 L 189.41174,253.49384 L 189.41174,260.31384 L 186.33875,260.31384 L 186.33875,269.04082 L 195.42473,269.04082 L 195.42474,269.04081 z "
     class="fil4"
     id="_49818904" /><path
     style="fill:#e7b400"
     d="M 72.993052,319.60887 L 95.839018,329.28883 C 95.850017,331.24483 95.60102,333.12985 98.571015,334.73482 C 102.86502,337.05681 112.924,342.63479 119.94799,348.66279 C 123.06099,378.30773 143.24594,401.38761 184.03505,416.54561 C 200.32002,402.92462 218.02606,402.28262 235.11203,416.54561 C 251.594,411.2946 269.50992,405.38863 283.47196,394.81062 L 321.30279,394.84963 C 320.58676,380.47364 315.47778,372.85767 308.37178,368.31068 C 314.61976,359.68369 317.34078,350.43968 317.16078,339.9357 L 330.12476,339.9357 L 330.12476,332.11971 L 322.21079,325.36872 L 291.30282,325.36872 L 284.70883,332.11971 L 284.70883,339.9357 L 293.04381,339.9357 C 238.346,385.05762 190.81506,369.65067 144.82392,337.88568 L 144.81792,337.88168 C 139.22591,333.33672 132.85793,327.0487 129.27794,320.96172 L 72.983938,313.75672 L 72.992938,319.60871 L 72.993052,319.60887 z "
     class="fil5"
     id="_49819584" /><path
     id="_49766344"
     class="fil2"
     d="M 185.32976,374.83082 C 187.64076,374.83082 189.52474,376.71482 189.52474,379.02578 C 189.52474,381.33676 187.64075,383.22178 185.32976,383.22178 C 183.01877,383.22178 181.13479,381.33676 181.13479,379.02578 C 181.13479,376.71482 183.01878,374.83082 185.32976,374.83082 z "
     style="fill:#ffffff" /><path
     id="_48960560"
     class="fil3"
     d="M 185.32976,374.35865 L 185.33676,374.35865 C 186.61876,374.36064 187.78676,374.88666 188.63075,375.73264 C 189.47075,376.57466 189.99475,377.73567 189.99875,379.01259 L 189.99875,379.02762 L 189.99875,379.03462 C 189.99675,380.31861 189.46975,381.48659 188.62675,382.32963 L 188.62475,382.32963 C 187.78275,383.1706 186.62075,383.69361 185.34477,383.6976 L 185.32977,383.6976 L 185.32277,383.6976 C 184.03977,383.6956 182.87277,383.16861 182.02777,382.32262 C 181.18877,381.48162 180.66477,380.3196 180.66077,379.04264 L 180.66077,379.02762 L 180.66077,379.02061 C 180.66277,377.73766 181.18877,376.57067 182.03477,375.72564 C 182.87576,374.88666 184.03676,374.36264 185.31474,374.35865 L 185.32975,374.35865 L 185.32976,374.35865 z M 185.33676,375.30664 L 185.32976,375.30664 L 185.31476,375.30664 C 184.29676,375.30965 183.37077,375.72766 182.70077,376.39565 C 182.02877,377.06765 181.60977,377.99761 181.60877,379.02061 L 181.60877,379.02762 L 181.60877,379.0426 C 181.61177,380.05962 182.02977,380.98663 182.69777,381.65661 C 183.36977,382.32861 184.29977,382.74863 185.32277,382.74961 L 185.32976,382.74961 L 185.34476,382.74961 C 186.36076,382.74663 187.28676,382.32963 187.95776,381.66063 L 187.95676,381.65962 C 188.62976,380.98663 189.04976,380.0566 189.05076,379.03462 L 189.05076,379.02762 L 189.05076,379.01263 C 189.04776,377.99562 188.62976,377.06864 187.96076,376.39866 C 187.29076,375.72665 186.35976,375.30765 185.33676,375.30664 L 185.33676,375.30664 z "
     style="fill:#1f1a17;fill-rule:nonzero" /><path
     id="_47871768"
     class="fil2"
     d="M 165.02193,379.94547 C 167.33293,379.94547 169.21691,381.82947 169.21691,384.14046 C 169.21691,386.45148 167.33291,388.33646 165.02193,388.33646 C 162.71093,388.33646 160.82695,386.45148 160.82695,384.14046 C 160.82695,381.82947 162.71095,379.94547 165.02193,379.94547 z "
     style="fill:#ffffff" /><path
     id="_48489112"
     class="fil3"
     d="M 165.02193,379.47013 L 165.02893,379.47013 C 166.31092,379.47212 167.47892,379.99814 168.32292,380.84412 C 169.16291,381.68614 169.68691,382.84715 169.69091,384.12411 L 169.69091,384.13913 L 169.69091,384.14613 C 169.68891,385.43013 169.16191,386.5981 168.31891,387.44114 L 168.31691,387.44114 C 167.47491,388.28211 166.31292,388.80512 165.03693,388.80911 L 165.02193,388.80911 L 165.01493,388.80911 C 163.73193,388.80711 162.56493,388.28012 161.71993,387.43414 C 160.88093,386.59313 160.35693,385.43111 160.35293,384.15415 L 160.35293,384.13913 L 160.35293,384.13212 C 160.35494,382.84914 160.88093,381.68215 161.72693,380.83712 C 162.56793,379.99814 163.72893,379.47412 165.00691,379.47013 L 165.02191,379.47013 L 165.02193,379.47013 z M 165.02893,380.41812 L 165.02193,380.41812 L 165.00693,380.41812 C 163.98893,380.42113 163.06293,380.83914 162.39293,381.50713 C 161.72094,382.17913 161.30193,383.10913 161.30094,384.13212 L 161.30094,384.13913 L 161.30094,384.15412 C 161.30393,385.17113 161.72194,386.09814 162.38994,386.76812 C 163.06194,387.44013 163.99193,387.86014 165.01493,387.86112 L 165.02193,387.86112 L 165.03693,387.86112 C 166.05293,387.85814 166.97893,387.44114 167.64993,386.77214 L 167.64892,386.77113 C 168.32193,386.09814 168.74193,385.16812 168.74292,384.14613 L 168.74292,384.13913 L 168.74292,384.12414 C 168.73993,383.10713 168.32192,382.18012 167.65292,381.51014 C 166.98293,380.83813 166.05192,380.41913 165.02893,380.41812 L 165.02893,380.41812 z "
     style="fill:#1f1a17;fill-rule:nonzero" /><path
     id="_48961768"
     class="fil2"
     d="M 170.62461,394.46872 C 172.93561,394.46872 174.81959,396.35273 174.81959,398.66371 C 174.81959,400.9747 172.93559,402.85972 170.62461,402.85972 C 168.31362,402.85972 166.42963,400.9747 166.42963,398.66371 C 166.42963,396.35273 168.31363,394.46872 170.62461,394.46872 z "
     style="fill:#ffffff" /><path
     id="_49003856"
     class="fil3"
     d="M 170.62461,393.99655 L 170.63161,393.99655 C 171.91361,393.99855 173.08161,394.52456 173.9256,395.37054 C 174.7656,396.21256 175.2896,397.37357 175.2936,398.65053 L 175.2936,398.66555 L 175.2936,398.67256 C 175.2916,399.95655 174.7646,401.12453 173.9216,401.96756 L 173.9196,401.96756 C 173.0776,402.80854 171.9156,403.33154 170.63962,403.33553 L 170.62462,403.33553 L 170.61762,403.33553 C 169.33462,403.33354 168.16762,402.80654 167.32262,401.96056 C 166.48362,401.11955 165.95962,399.95753 165.95562,398.68057 L 165.95562,398.66555 L 165.95562,398.65855 C 165.95762,397.37557 166.48362,396.20857 167.32962,395.36354 C 168.17062,394.52456 169.33161,394.00054 170.6096,393.99655 L 170.6246,393.99655 L 170.62461,393.99655 z M 170.63161,394.94454 L 170.62461,394.94454 L 170.60961,394.94454 C 169.59162,394.94755 168.66562,395.36557 167.99562,396.03355 C 167.32362,396.70556 166.90462,397.63555 166.90362,398.65855 L 166.90362,398.66555 L 166.90362,398.68054 C 166.90662,399.69755 167.32462,400.62456 167.99262,401.29454 C 168.66462,401.96655 169.59462,402.38656 170.61762,402.38754 L 170.62461,402.38754 L 170.63962,402.38754 C 171.65561,402.38457 172.58161,401.96756 173.25261,401.29857 L 173.25161,401.29755 C 173.92461,400.62456 174.34461,399.69454 174.34561,398.67256 L 174.34561,398.66555 L 174.34561,398.65056 C 174.34261,397.63355 173.92461,396.70654 173.25561,396.03656 C 172.58561,395.36455 171.65461,394.94556 170.63161,394.94454 L 170.63161,394.94454 z "
     style="fill:#1f1a17;fill-rule:nonzero" /><path
     id="_49692392"
     class="fil2"
     d="M 192.97483,390.93855 C 195.28583,390.93855 197.16981,392.82252 197.16981,395.13351 C 197.16981,397.44449 195.28581,399.32951 192.97483,399.32951 C 190.66384,399.32951 188.77985,397.44449 188.77985,395.13351 C 188.77985,392.82252 190.66385,390.93855 192.97483,390.93855 z "
     style="fill:#ffffff" /><path
     id="_49692616"
     class="fil3"
     d="M 192.97483,390.46638 L 192.98183,390.46638 C 194.26383,390.46837 195.43183,390.99439 196.27582,391.84034 C 197.11582,392.68236 197.63982,393.84336 197.64382,395.12032 L 197.64382,395.13534 L 197.64382,395.14235 C 197.64182,396.42634 197.11482,397.59432 196.27182,398.43736 L 196.26982,398.43736 C 195.42782,399.27833 194.26582,399.80133 192.98984,399.80533 L 192.97484,399.80533 L 192.96784,399.80533 C 191.68484,399.80333 190.51784,399.27633 189.67283,398.43035 C 188.83384,397.58935 188.30983,396.42732 188.30584,395.15037 L 188.30584,395.13534 L 188.30584,395.12834 C 188.30784,393.84536 188.83384,392.67836 189.67983,391.83333 C 190.52083,390.99439 191.68183,390.47037 192.95981,390.46638 L 192.97482,390.46638 L 192.97483,390.46638 z M 192.98183,391.41437 L 192.97483,391.41437 L 192.95983,391.41437 C 191.94183,391.41738 191.01584,391.83536 190.34584,392.50334 C 189.67384,393.17535 189.25484,394.10534 189.25384,395.12834 L 189.25384,395.13534 L 189.25384,395.15033 C 189.25684,396.16734 189.67484,397.09436 190.34284,397.76433 C 191.01484,398.43634 191.94484,398.85635 192.96784,398.85734 L 192.97483,398.85734 L 192.98983,398.85734 C 194.00583,398.85436 194.93183,398.43736 195.60283,397.76836 L 195.60183,397.76735 C 196.27483,397.09436 196.69483,396.16433 196.69583,395.14235 L 196.69583,395.13534 L 196.69583,395.12036 C 196.69283,394.10334 196.27483,393.17633 195.60583,392.50635 C 194.93583,391.83435 194.00483,391.41538 192.98183,391.41437 L 192.98183,391.41437 z "
     style="fill:#1f1a17;fill-rule:nonzero" /><path
     id="_48610576"
     class="fil2"
     d="M 208.97481,380.03737 C 211.28581,380.03737 213.16979,381.92137 213.16979,384.23236 C 213.16979,386.54335 211.28579,388.42836 208.97481,388.42836 C 206.66381,388.42836 204.77983,386.54335 204.77983,384.23236 C 204.77983,381.92134 206.66383,380.03737 208.97481,380.03737 z "
     style="fill:#ffffff" /><path
     id="_48611312"
     class="fil3"
     d="M 208.97481,379.5652 L 208.98181,379.5652 C 210.26381,379.56719 211.43181,380.09321 212.2758,380.93919 C 213.11579,381.78121 213.6398,382.94222 213.6438,384.21918 L 213.6438,384.2342 L 213.6438,384.2412 C 213.6418,385.52519 213.11479,386.69317 212.2718,387.53621 L 212.2698,387.53621 C 211.4278,388.37718 210.2658,388.90019 208.98982,388.90418 L 208.97481,388.90418 L 208.96781,388.90418 C 207.68481,388.90218 206.51782,388.37519 205.67281,387.5292 C 204.83381,386.6882 204.30982,385.52618 204.30582,384.24922 L 204.30582,384.2342 L 204.30582,384.22719 C 204.30782,382.94421 204.83381,381.77722 205.67981,380.93218 C 206.52081,380.09321 207.68181,379.56919 208.95979,379.5652 L 208.97479,379.5652 L 208.97481,379.5652 z M 208.98181,380.51319 L 208.97481,380.51319 L 208.95981,380.51319 C 207.94181,380.5162 207.01582,380.93421 206.34582,381.6022 C 205.67382,382.2742 205.25482,383.20419 205.25382,384.22719 L 205.25382,384.2342 L 205.25382,384.24919 C 205.25682,385.2662 205.67482,386.19321 206.34282,386.86319 C 207.01482,387.53519 207.94482,387.95521 208.96781,387.95619 L 208.97481,387.95619 L 208.98981,387.95619 C 210.00581,387.95321 210.93181,387.53621 211.60281,386.86721 L 211.60181,386.8662 C 212.27481,386.19321 212.69481,385.26319 212.69581,384.2412 L 212.69581,384.2342 L 212.69581,384.21921 C 212.69281,383.2022 212.27481,382.27518 211.60581,381.60521 C 210.93581,380.9332 210.00481,380.5142 208.98181,380.51319 L 208.98181,380.51319 z "
     style="fill:#1f1a17;fill-rule:nonzero" /><path
     id="_48978264"
     class="fil2"
     d="M 234.66763,378.56698 C 236.97863,378.56698 238.86261,380.45098 238.86261,382.76197 C 238.86261,385.07295 236.97861,386.95797 234.66763,386.95797 C 232.35663,386.95797 230.47265,385.07295 230.47265,382.76197 C 230.47265,380.45095 232.35665,378.56698 234.66763,378.56698 z "
     style="fill:#ffffff" /><path
     id="_48566232"
     class="fil3"
     d="M 234.66763,378.09164 L 234.67463,378.09164 C 235.95663,378.09363 237.12463,378.61965 237.96861,379.46563 C 238.80861,380.30765 239.33261,381.46866 239.33661,382.74562 L 239.33661,382.76064 L 239.33661,382.76764 C 239.33461,384.05163 238.80761,385.21961 237.96461,386.06265 L 237.96261,386.06265 C 237.12061,386.90362 235.95862,387.42663 234.68263,387.43062 L 234.66763,387.43062 L 234.66063,387.43062 C 233.37763,387.42862 232.21063,386.90163 231.36563,386.05564 C 230.52663,385.21464 230.00263,384.05262 229.99863,382.77566 L 229.99863,382.76064 L 229.99863,382.75363 C 230.00063,381.47065 230.52663,380.30366 231.37263,379.45862 C 232.21363,378.61965 233.37463,378.09563 234.65261,378.09164 L 234.66761,378.09164 L 234.66763,378.09164 z M 234.67463,379.03963 L 234.66763,379.03963 L 234.65263,379.03963 C 233.63463,379.04264 232.70863,379.46065 232.03864,380.12863 C 231.36663,380.80064 230.94763,381.73063 230.94664,382.75363 L 230.94664,382.76064 L 230.94664,382.77563 C 230.94963,383.79264 231.36764,384.71965 232.03564,385.38963 C 232.70764,386.06163 233.63763,386.48165 234.66063,386.48263 L 234.66763,386.48263 L 234.68263,386.48263 C 235.69863,386.47965 236.62463,386.06265 237.29563,385.39365 L 237.29463,385.39264 C 237.96763,384.71965 238.38762,383.78962 238.38862,382.76764 L 238.38862,382.76064 L 238.38862,382.74565 C 238.38563,381.72864 237.96762,380.80162 237.29863,380.13165 C 236.62862,379.45964 235.69763,379.04064 234.67463,379.03963 L 234.67463,379.03963 z "
     style="fill:#1f1a17;fill-rule:nonzero" /><path
     id="_48979920"
     class="fil2"
     d="M 254.97071,385.62422 C 257.28171,385.62422 259.16569,387.50823 259.16569,389.81921 C 259.16569,392.13017 257.28169,394.01518 254.97071,394.01518 C 252.65972,394.01518 250.77573,392.13017 250.77573,389.81921 C 250.77573,387.50823 252.65973,385.62422 254.97071,385.62422 z "
     style="fill:#ffffff" /><path
     id="_48979128"
     class="fil3"
     d="M 254.97071,385.15205 L 254.97771,385.15205 C 256.25971,385.15405 257.42771,385.68006 258.2717,386.52604 C 259.1117,387.36806 259.6357,388.52907 259.6397,389.80603 L 259.6397,389.82105 L 259.6397,389.82805 C 259.6377,391.11205 259.11069,392.28 258.2677,393.12303 L 258.2657,393.12303 C 257.4237,393.96401 256.2617,394.48701 254.98572,394.491 L 254.97071,394.491 L 254.96371,394.491 C 253.68072,394.48901 252.51372,393.96201 251.66871,393.11603 C 250.82971,392.27502 250.30571,391.11303 250.30171,389.83607 L 250.30171,389.82105 L 250.30171,389.81405 C 250.30372,388.53107 250.82971,387.36407 251.67571,386.51904 C 252.51671,385.68006 253.67771,385.15604 254.95569,385.15205 L 254.9707,385.15205 L 254.97071,385.15205 z M 254.97771,386.10004 L 254.97071,386.10004 L 254.95571,386.10004 C 253.93771,386.10305 253.01172,386.52107 252.34172,387.18905 C 251.66972,387.86106 251.25072,388.79105 251.24972,389.81405 L 251.24972,389.82105 L 251.24972,389.83604 C 251.25272,390.85305 251.67072,391.78003 252.33872,392.45001 C 253.01072,393.12202 253.94072,393.54203 254.96371,393.54301 L 254.97071,393.54301 L 254.98571,393.54301 C 256.00171,393.54003 256.92771,393.12303 257.59871,392.45403 L 257.59771,392.45302 C 258.27071,391.78003 258.69071,390.85004 258.69171,389.82805 L 258.69171,389.82105 L 258.69171,389.80606 C 258.68871,388.78905 258.27071,387.86204 257.60171,387.19206 C 256.93171,386.52005 256.00071,386.10106 254.97771,386.10004 L 254.97771,386.10004 z "
     style="fill:#1f1a17;fill-rule:nonzero" /><path
     id="_48977080"
     class="fil2"
     d="M 225.34872,392.91594 C 227.65972,392.91594 229.5437,394.79994 229.5437,397.11093 C 229.5437,399.42195 227.65971,401.30693 225.34872,401.30693 C 223.03773,401.30693 221.15374,399.42195 221.15374,397.11093 C 221.15374,394.79994 223.03774,392.91594 225.34872,392.91594 z "
     style="fill:#ffffff" /><path
     id="_48451528"
     class="fil3"
     d="M 225.34872,392.44377 L 225.35572,392.44377 C 226.63773,392.44576 227.80572,392.97178 228.64971,393.81776 C 229.48971,394.65978 230.01371,395.82079 230.01771,397.09775 L 230.01771,397.11277 L 230.01771,397.11977 C 230.01571,398.40376 229.48871,399.57174 228.64571,400.41478 L 228.64371,400.41478 C 227.80171,401.25575 226.63972,401.77876 225.36373,401.78275 L 225.34873,401.78275 L 225.34173,401.78275 C 224.05873,401.78075 222.89173,401.25376 222.04673,400.40778 C 221.20773,399.56677 220.68373,398.40475 220.67973,397.12779 L 220.67973,397.11277 L 220.67973,397.10576 C 220.68173,395.82278 221.20773,394.65579 222.05373,393.81076 C 222.89473,392.97178 224.05572,392.44776 225.33371,392.44377 L 225.34871,392.44377 L 225.34872,392.44377 z M 225.35572,393.39176 L 225.34872,393.39176 L 225.33373,393.39176 C 224.31573,393.39477 223.38973,393.81278 222.71973,394.48077 C 222.04773,395.15277 221.62873,396.08276 221.62773,397.10576 L 221.62773,397.11277 L 221.62773,397.12776 C 221.63073,398.14477 222.04873,399.07178 222.71673,399.74176 C 223.38873,400.41376 224.31873,400.83378 225.34173,400.83476 L 225.34872,400.83476 L 225.36373,400.83476 C 226.37973,400.83178 227.30572,400.41478 227.97673,399.74578 L 227.97572,399.74477 C 228.64872,399.07178 229.06872,398.14176 229.06972,397.11977 L 229.06972,397.11277 L 229.06972,397.09778 C 229.06672,396.08077 228.64872,395.15376 227.97972,394.48378 C 227.30972,393.81177 226.37872,393.39277 225.35572,393.39176 L 225.35572,393.39176 z "
     style="fill:#1f1a17;fill-rule:nonzero" /><path
     id="_48828120"
     class="fil2"
     d="M 249.2888,399.58341 C 251.5998,399.58341 253.48378,401.46741 253.48378,403.7784 C 253.48378,406.08935 251.59978,407.97437 249.2888,407.97437 C 246.9778,407.97437 245.09382,406.08935 245.09382,403.7784 C 245.09382,401.46741 246.97782,399.58341 249.2888,399.58341 z "
     style="fill:#ffffff" /><path
     id="_48826744"
     class="fil3"
     d="M 249.2888,399.10806 L 249.2958,399.10806 C 250.5778,399.11006 251.7458,399.63607 252.58979,400.48206 C 253.42979,401.32408 253.95379,402.48508 253.95779,403.76204 L 253.95779,403.77706 L 253.95779,403.78407 C 253.95579,405.06806 253.42878,406.23601 252.58579,407.07904 L 252.58379,407.07904 C 251.74179,407.92002 250.57979,408.44302 249.30381,408.44702 L 249.2888,408.44702 L 249.2818,408.44702 C 247.99881,408.44502 246.83181,407.91802 245.9868,407.07204 C 245.1478,406.23103 244.6238,405.06904 244.6198,403.79208 L 244.6198,403.77706 L 244.6198,403.77006 C 244.62181,402.48708 245.1478,401.32008 245.9938,400.47505 C 246.8348,399.63607 247.9958,399.11206 249.27378,399.10806 L 249.28879,399.10806 L 249.2888,399.10806 z M 249.2958,400.05605 L 249.2888,400.05605 L 249.2738,400.05605 C 248.2558,400.05906 247.32981,400.47708 246.65981,401.14506 C 245.98781,401.81707 245.56881,402.74706 245.56781,403.77006 L 245.56781,403.77706 L 245.56781,403.79205 C 245.57081,404.80906 245.98881,405.73604 246.65681,406.40602 C 247.32881,407.07803 248.25881,407.49804 249.2818,407.49902 L 249.2888,407.49902 L 249.3038,407.49902 C 250.3198,407.49605 251.2458,407.07904 251.9168,406.41005 L 251.9158,406.40903 C 252.5888,405.73604 253.0088,404.80605 253.0098,403.78407 L 253.0098,403.77706 L 253.0098,403.76207 C 253.0068,402.74506 252.5888,401.81805 251.9198,401.14807 C 251.2498,400.47607 250.3188,400.05707 249.2958,400.05605 L 249.2958,400.05605 z "
     style="fill:#1f1a17;fill-rule:nonzero" /><path
     style="fill:#1f1a17"
     d="M 256.62775,389.18295 L 268.43674,411.4489 L 265.90574,412.64489 L 253.81576,391.06394 C 252.40676,388.54694 255.65976,387.35894 256.62776,389.18295 L 256.62775,389.18295 z M 251.21076,403.26094 L 256.47475,416.57891 C 255.55776,416.86992 254.54075,417.15893 253.47176,417.40592 L 248.21278,404.82694 C 247.10078,402.16594 250.45077,401.33894 251.21077,403.26094 L 251.21076,403.26094 z M 236.31779,382.00697 L 245.54777,418.79395 C 244.68977,418.89893 243.80377,418.94796 242.89778,418.96095 L 233.13978,383.16807 C 232.38178,380.38507 235.81478,380.00406 236.31779,382.00706 L 236.31779,382.00697 z M 227.1208,397.13796 L 228.66479,411.80993 L 225.33379,409.85992 L 223.8118,397.84296 C 223.4488,394.98095 226.90279,395.08198 227.1208,397.13796 L 227.1208,397.13796 z M 210.73383,384.46797 L 210.21483,405.70794 L 207.22183,405.82395 L 207.36183,384.73099 C 207.38083,381.84598 210.78381,382.40299 210.73384,384.46797 L 210.73383,384.46797 z M 194.59885,395.57494 L 192.17486,410.85893 C 191.10986,411.43394 189.85486,412.26192 188.62387,413.08293 L 191.22286,395.35695 C 191.64187,392.50195 194.92188,393.53594 194.59886,395.57494 L 194.59885,395.57494 z M 186.91385,379.61197 L 178.48688,418.98481 C 177.43388,419.24077 176.31389,419.44279 175.3079,419.51079 L 183.55288,379.22501 C 184.13188,376.39904 187.34486,377.59104 186.91388,379.612 L 186.91385,379.61197 z M 171.84088,399.90997 L 164.21689,417.82894 C 163.33889,417.43095 162.45989,416.99294 161.57889,416.51294 L 168.6039,398.92594 C 169.67389,396.24695 172.64788,398.01094 171.8409,399.90993 L 171.84088,399.90997 z M 166.2259,385.18897 L 150.80594,410.76992 L 148.34894,409.61892 L 163.16893,383.74095 C 164.60093,381.23796 167.29191,383.42095 166.22592,385.18894 L 166.2259,385.18897 z "
     class="fil4"
     id="_49918344" /><path
     style="fill:#1f1a17;fill-rule:nonzero"
     d="M 284.86047,394.3388 L 320.80133,394.37581 C 320.40632,387.50382 318.98534,382.22483 316.81534,378.11581 C 314.68434,374.07883 311.81934,371.16083 308.48936,368.95584 C 308.43736,369.02784 308.38336,369.10082 308.33036,369.17282 C 308.30336,369.20984 308.27736,369.24584 308.25036,369.28183 C 304.82138,373.98984 301.16036,378.53282 297.21738,382.82081 C 293.38239,386.98481 289.27139,390.88382 284.86038,394.3388 L 284.86047,394.3388 z M 308.33043,369.17282 C 308.30344,369.20882 308.27743,369.24584 308.25043,369.28183 M 321.30244,395.32478 L 283.62847,395.28577 C 276.64447,400.55279 268.68349,404.6658 260.4175,408.11377 C 252.11551,411.57578 243.56454,414.33077 235.00853,417.07777 C 224.48755,408.28375 211.73057,403.73479 198.30966,408.59076 C 193.24167,410.42377 188.62167,413.35277 184.49068,416.78477 L 184.48967,416.78376 L 184.12867,417.08677 C 167.03671,410.68575 150.08982,401.9328 137.51483,388.35982 C 126.95586,376.96282 121.09586,363.75085 119.49887,348.90303 C 116.03687,345.95201 111.84588,343.10503 107.98788,340.71203 C 104.0809,338.28902 100.49388,336.31407 98.346891,335.15306 C 95.864892,333.81307 95.356894,332.14605 95.365894,329.57407 C 87.727891,326.41406 80.129915,323.14906 72.519925,319.92209 L 72.509927,313.22208 L 129.48684,320.52507 C 132.31484,325.33506 136.27284,329.55306 140.32981,333.34407 C 141.13581,334.09707 141.94281,334.82406 142.73381,335.51207 L 142.73581,335.51207 C 146.12179,338.45805 150.1678,340.96903 154.09478,343.64404 C 159.89777,347.59505 166.20276,350.976 172.72476,354.27703 C 186.58174,361.29105 201.72272,366.02501 215.70668,367.27 C 239.75364,369.41398 264.8655,362.22503 291.71751,340.41104 L 284.23453,340.41104 L 284.23453,332.12108 L 284.36953,331.79106 L 291.10451,324.89607 L 322.3865,324.89607 L 330.59848,331.90508 L 330.59848,340.41104 L 317.63952,340.41104 C 317.6835,345.53206 317.03951,350.36002 315.63051,354.96402 C 314.22151,359.56904 312.04853,363.95404 309.04352,368.18601 C 312.47951,370.46804 315.4425,373.492 317.65149,377.67603 C 319.93849,382.00601 321.41551,387.57002 321.77651,394.82897 L 321.80152,395.32599 L 321.30253,395.32497 L 321.30244,395.32478 z M 296.80144,381.8688 C 300.81743,377.50183 304.51042,372.83682 307.98843,368.03381 C 311.07842,363.76584 313.29941,359.34284 314.72243,354.68981 C 316.10343,350.17584 316.73942,345.43785 316.69442,340.41082 L 312.48544,340.41082 C 305.15644,360.9078 290.57348,376.73482 272.55964,387.30069 C 227.85255,413.52364 161.18787,407.10164 133.01282,359.06673 C 130.80383,355.30072 128.63883,351.86172 126.42083,348.66374 C 124.24983,345.53171 122.02883,342.63374 119.66883,339.88674 L 96.312852,330.00276 C 96.312852,332.04176 96.899852,333.29577 98.794847,334.31877 C 100.93985,335.47877 104.53085,337.45575 108.48382,339.90775 C 112.4128,342.34474 117.12882,345.17876 120.4048,348.45475 C 126.6338,356.54672 129.71379,363.41675 132.43977,369.49469 C 135.39777,376.0927 137.93478,381.74968 143.67075,386.99368 C 157.06472,399.23767 174.95472,405.68363 192.17772,410.35263 L 190.91872,411.03161 C 173.84073,406.3486 156.31263,399.83562 143.03065,387.69364 C 137.15666,382.32364 134.58067,376.57967 131.57765,369.88067 C 129.01866,364.17267 126.14466,357.7617 120.61667,350.30272 C 122.41567,364.33368 128.14965,376.8567 138.21066,387.71554 C 148.64965,398.98352 163.75162,408.47249 183.94163,416.00749 C 186.21463,414.12349 188.52363,412.48248 190.86063,411.09847 C 193.21163,409.70449 195.59164,408.5695 197.98761,407.70247 C 210.22358,403.27548 222.88458,405.81146 235.21347,416.01649 C 243.37346,413.41551 251.88045,410.64848 260.05542,407.23949 C 260.63243,406.99849 261.21042,406.7535 261.78442,406.5055 C 251.49044,409.56451 240.33346,411.32749 229.70651,412.01249 L 228.23151,411.1095 C 241.59148,410.59851 256.21747,408.01148 268.60254,403.34453 C 279.14754,398.70453 289.07751,390.27155 296.80152,381.86855 L 296.80144,381.8688 z M 311.47943,340.41082 L 305.32243,340.41082 C 290.25244,375.92769 246.74362,390.81284 210.77266,389.48283 L 210.61666,389.47681 C 190.86269,388.71683 171.19283,381.1408 152.5978,366.01183 C 144.8518,359.71085 137.82081,352.53886 131.43084,344.87489 L 131.41684,344.8579 L 121.58685,340.6979 C 123.52784,343.04688 125.38083,345.50589 127.19885,348.12791 C 129.42585,351.33887 131.60383,354.79787 133.82685,358.58889 C 161.73181,406.16892 227.81983,412.44787 272.08169,386.48684 C 289.82065,376.08186 304.19351,360.53088 311.47954,340.41076 L 311.47943,340.41082 z M 304.28844,340.41082 L 300.59146,340.41082 C 287.20449,353.76382 276.03648,363.48282 262.44756,369.77179 C 248.82057,376.0778 232.78561,378.92577 209.67773,378.51776 C 192.47175,378.21377 174.96167,372.93978 158.1647,361.64882 C 151.16971,356.94683 144.69072,351.4688 138.75973,345.48782 C 138.22673,346.08682 137.69173,346.68781 137.16373,347.29083 L 137.16073,347.28981 L 137.15973,347.29083 C 135.89073,346.74783 134.61574,346.2118 133.34474,345.67381 C 139.37774,352.76379 145.96774,359.4008 153.19372,365.27777 C 171.62069,380.26975 191.09868,387.77575 210.65072,388.52875 L 210.80672,388.53474 C 246.25765,389.85274 289.2326,375.28376 304.28855,340.41088 L 304.28844,340.41082 z M 299.25245,340.41082 L 297.14045,340.41082 C 281.07149,352.8568 269.53848,361.27581 257.1836,366.66378 C 244.79761,372.06579 231.61663,374.41477 212.2718,374.70878 C 192.67682,375.00777 174.24293,368.21777 158.52879,357.22279 C 152.35779,352.90579 146.5978,347.9488 141.38482,342.51579 C 140.71882,343.26478 140.05283,344.02678 139.38783,344.77877 C 145.27081,350.73475 151.73982,356.19075 158.69079,360.86277 C 175.32678,372.04576 192.66183,377.26875 209.69172,377.56974 C 232.64968,377.97473 248.55877,375.15576 262.0518,368.91173 C 275.28979,362.78476 286.23677,353.34475 299.25262,340.41076 L 299.25245,340.41082 z M 295.59746,340.41082 L 293.21046,340.41082 C 265.8035,362.97382 240.17159,370.4058 215.62467,368.2178 C 191.1857,366.0388 167.84275,354.1188 144.89677,338.31583 C 143.85177,339.50983 142.89177,340.80482 142.01278,341.80383 C 160.29877,360.82182 185.32078,374.17171 212.25962,373.7607 C 231.47361,373.46868 244.54764,371.14369 256.80542,365.7977 C 268.81542,360.55972 280.08439,352.40374 295.59736,340.41076 L 295.59746,340.41082 z M 291.50046,325.84384 L 285.84346,331.63585 L 328.84029,331.64684 L 322.0383,325.84384 L 291.5003,325.84384 L 291.50046,325.84384 z M 285.18248,332.58384 L 285.18248,339.4628 L 293.04149,339.4628 L 293.04449,339.46179 C 305.24747,339.46179 317.44944,339.4628 329.65049,339.4628 L 329.65049,332.59483 L 285.18266,332.58384 L 285.18248,332.58384 z M 137.84261,345.08483 L 144.23661,337.79083 C 143.57361,337.24682 142.81261,336.78383 142.15262,336.20984 L 137.94062,341.0428 L 137.84262,345.0848 L 137.84261,345.08483 z M 128.98963,321.40186 L 75.023853,314.49383 L 137.33884,340.2918 L 141.44183,335.63281 C 136.75785,331.4748 132.21584,326.80279 128.98986,321.40183 L 128.98963,321.40186 z M 73.466635,314.86986 L 73.466635,319.29888 L 136.91864,346.12285 L 136.98764,341.16883 L 73.46687,314.86986 L 73.466635,314.86986 z "
     class="fil3"
     id="_48826640" /><path
     style="fill:#e7b400"
     d="M 307.72755,369.19326 C 307.94254,368.89925 308.15854,368.60625 308.37154,368.31125 M 307.70255,369.22727 C 298.41156,381.94124 298.36456,381.96225 307.70255,369.22727 z "
     class="fil5"
     id="_48825680" /><path
     style="fill:#ffffff"
     d="M 237.1356,290.81777 L 272.01359,311.21573 C 267.54561,312.81873 262.95562,315.05674 259.33659,318.18874 C 247.8386,328.14471 249.56459,343.1577 263.7046,363.25963 C 257.1376,361.08164 251.5216,358.85162 245.87661,354.99562 C 234.15962,346.99263 225.06365,333.89667 221.92665,309.92283 C 225.09465,302.71385 229.46065,296.03486 237.13563,290.81786 L 237.1356,290.81777 z "
     class="fil2"
     id="_49907176" /><path
     style="fill:#1f1a17;fill-rule:nonzero"
     d="M 237.37454,290.41056 L 272.25253,310.80852 L 273.12653,311.32052 L 272.17253,311.66152 C 269.95553,312.45652 267.71053,313.40952 265.58053,314.54652 C 263.45253,315.68252 261.42652,317.00653 259.64555,318.5455 C 254.02654,323.41347 251.77456,329.62147 252.65556,337.06945 C 253.54656,344.59947 257.37056,353.00343 264.39455,362.98843 L 263.24855,363.65844 C 259.95156,362.56446 257.61557,361.81244 254.52655,360.39043 C 251.43356,358.96745 248.45356,357.32844 245.60957,355.38644 C 239.69658,351.34743 234.44257,346.02046 230.27259,338.68045 C 226.11361,331.36047 223.03461,322.03549 221.4586,309.98349 L 221.4936,309.73349 C 223.0936,306.0925 224.9956,302.5855 227.46258,299.3355 C 229.93858,296.07352 232.98658,293.06252 236.86857,290.4245 L 237.11457,290.2585 L 237.37457,290.4105 L 237.37454,290.41056 z M 270.91333,311.11952 L 237.16032,291.37956 C 233.48432,293.91555 230.58233,296.79455 228.21833,299.90956 C 225.81933,303.06955 223.96833,306.46955 222.41232,309.99455 C 223.97732,321.85153 227.00732,331.02152 231.0943,338.21449 C 235.18531,345.41449 240.34029,350.64047 246.14328,354.60447 C 248.94227,356.51548 251.87627,358.12847 254.92226,359.53048 C 257.54825,360.74048 260.26626,361.79849 263.05626,362.76049 C 256.44427,353.12847 252.58929,344.57051 251.71529,337.18151 C 250.79529,329.40754 253.15129,322.92251 259.02727,317.83156 C 260.86727,316.24156 262.95026,314.87856 265.13626,313.71257 C 267.01426,312.70957 268.97125,311.85357 270.91324,311.11957 L 270.91333,311.11952 z "
     class="fil3"
     id="_49906416" /><path
     style="fill:none"
     d="M 220.57155,313.35654 L 255.17447,366.98546 M 163.39753,310.99441 L 197.41357,373.19628 M 187.20559,370.93929 L 160.87664,313.35424 M 158.96364,315.65924 L 179.17961,367.96609 M 219.42452,316.724 L 246.97348,370.0259 M 218.13051,321.84092 L 239.38446,371.85882 M 259.61644,286.10285 L 291.30239,325.36792 M 257.56933,288.83194 L 284.7083,332.11905 M 260.31934,317.43408 L 276.51931,355.20816 M 259.33634,318.18829 L 272.00231,358.11028 M 258.60333,318.84743 L 267.96831,360.46227"
     class="fil6"
     id="_49905280" /><path
     style="fill:#e7b400"
     d="M 159.25667,347.45752 L 159.06468,356.82549 L 156.65868,355.1225 L 156.69968,345.88252 C 157.49068,346.38752 158.43568,346.95451 159.25667,347.45752 L 159.25667,347.45752 z "
     class="fil5"
     id="_49015048" /><path
     style="fill:#1f1a17;fill-rule:nonzero"
     d="M 159.73075,347.46702 L 159.53875,356.835 L 159.52075,357.73001 L 158.79075,357.21299 L 156.38475,355.51 L 156.18375,355.368 L 156.18475,355.12101 L 156.22575,345.88103 L 156.22976,345.00101 L 156.96275,345.489 L 156.96375,345.49001 L 156.96475,345.489 C 157.62075,345.90701 158.23675,346.28203 158.82675,346.64202 L 158.82675,346.641 C 159.07175,346.78903 159.30775,346.93302 159.50475,347.05401 L 159.73674,347.19703 L 159.73074,347.46702 L 159.73075,347.46702 z M 158.60875,355.92301 L 158.77675,347.72203 C 158.62575,347.63003 158.47775,347.53702 158.33475,347.45102 L 158.33475,347.45004 C 157.94075,347.21002 157.53775,346.96604 157.16975,346.73804 L 157.13375,354.87802 L 158.60875,355.92301 L 158.60875,355.92301 z "
     class="fil3"
     id="_49013976" /><path
     style="fill:#e7b400"
     d="M 158.96387,315.65973 L 159.16686,338.54767 C 158.14686,336.75566 157.13787,334.77469 156.54387,333.02071 L 156.54787,320.07974 C 157.14287,318.54274 157.95286,317.06576 158.96387,315.65973 L 158.96387,315.65973 z "
     class="fil5"
     id="_48599016" /><path
     style="fill:#1f1a17;fill-rule:nonzero"
     d="M 159.43762,315.65561 L 159.64062,338.54355 L 158.75562,338.78056 C 158.23862,337.87154 157.72462,336.91655 157.26962,335.97559 C 156.80862,335.02257 156.39862,334.06859 156.09563,333.17257 L 156.06963,333.02058 L 156.07363,320.07961 L 156.10863,319.90361 L 156.11463,319.88862 L 156.11663,319.8896 C 156.20563,319.65862 156.29463,319.43762 156.38162,319.23661 C 156.47962,319.00861 156.57963,318.7896 156.67662,318.58561 L 156.67763,318.58561 C 157.19963,317.48761 157.83662,316.4156 158.58062,315.38361 L 159.43762,315.65561 L 159.43762,315.65561 z M 158.67562,336.66056 L 158.50362,317.21061 C 158.14662,317.79262 157.82062,318.38562 157.53262,318.99162 L 157.53262,318.99362 C 157.43062,319.20762 157.33562,319.41563 157.25162,319.61061 C 157.16662,319.8056 157.09062,319.99561 157.02162,320.17161 L 157.01763,332.93958 C 157.30362,333.77558 157.68763,334.66758 158.12162,335.5636 C 158.29862,335.92958 158.48662,336.29759 158.67562,336.66056 L 158.67562,336.66056 z "
     class="fil3"
     id="_48598720" /><polygon
     style="fill:#e7b400"
     points="4.94007,8.83748 5.01631,8.83748 5.01631,9.06314 4.94007,9.0035 4.94007,8.83748 "
     class="fil5"
     id="_48597960"
     transform="matrix(31.689402,0,0,31.689402,0,-9.4371253e-4)" /><path
     style="fill:#1f1a17;fill-rule:nonzero"
     d="M 156.54786,279.57976 L 158.96386,279.57976 L 159.43786,279.57976 L 159.43786,280.05376 L 159.43786,287.20476 L 159.43786,288.17575 L 158.67286,287.57676 L 156.25687,285.68676 L 156.07387,285.54376 L 156.07387,285.31476 L 156.07387,280.05378 L 156.07387,279.57978 L 156.54787,279.57978 L 156.54786,279.57976 z M 158.48986,280.52776 L 157.02186,280.52776 L 157.02186,285.08574 L 158.48986,286.23474 L 158.48986,280.52773 L 158.48986,280.52776 z "
     class="fil3"
     id="_47871320" /><path
     style="fill:#e7b400"
     d="M 211.75556,356.66644 L 212.01055,374.18043 L 206.66557,374.07842 L 206.96457,353.78543 C 206.96457,353.78445 206.96557,353.78742 206.96757,353.78742 C 206.96957,353.78844 206.97357,353.79043 206.97557,353.79145 C 206.97857,353.79345 206.98157,353.79443 206.98457,353.79744 C 208.56257,354.78745 210.13456,355.74745 211.75557,356.66644 L 211.75556,356.66644 z "
     class="fil5"
     id="_48503392" /><path
     style="fill:#1f1a17;fill-rule:nonzero"
     d="M 212.48473,374.17485 L 212.49273,374.66486 L 212.00373,374.65485 L 206.65874,374.55284 L 206.18574,374.54384 L 206.19174,374.07284 L 206.50274,353.02586 C 208.48274,354.01388 210.30373,355.30088 212.22674,356.39087 L 212.48474,374.17485 L 212.48473,374.17485 z M 211.52973,373.69786 L 211.37873,356.53988 C 210.07773,355.79587 208.73074,355.01986 207.45774,354.22987 L 207.14674,373.61385 L 211.52973,373.69786 L 211.52973,373.69786 z "
     class="fil3"
     id="_48502632" /><polygon
     style="fill:#e7b400"
     points="6.63536,7.97691 6.63956,8.3205 6.56644,8.27932 6.57096,7.97411 6.63536,7.97691 "
     class="fil5"
     id="_48834656"
     transform="matrix(31.689402,0,0,31.689402,0,-9.4371253e-4)" /><path
     style="fill:#1f1a17;fill-rule:nonzero"
     d="M 211.01561,264.49655 L 207.29261,262.44555 L 207.44661,252.03156 L 210.8666,252.30756 L 211.01559,264.49654 L 211.01561,264.49655 z M 210.04661,262.84455 L 209.92961,253.25857 L 208.38061,252.97558 L 208.24861,261.90555 L 210.04661,262.84455 L 210.04661,262.84455 z "
     class="fil3"
     id="_48834296" /><path
     style="fill:#e7b400"
     d="M 248.21073,290.01951 C 250.29972,291.24851 252.75271,289.77751 250.77472,286.98752 L 185.76867,249.46663 C 183.23567,248.21763 182.40468,251.28863 183.26767,251.79563 L 248.21066,290.0197 L 248.21073,290.01951 z "
     class="fil5"
     id="_49878792" /><path
     style="fill:#1f1a17;fill-rule:nonzero"
     d="M 248.44967,289.61262 C 249.08866,289.98762 250.15966,290.21762 250.74766,289.61462 C 251.30167,289.04462 250.99366,287.66162 250.44666,287.34563 L 185.53378,249.87861 C 184.81578,249.53261 184.29378,249.61061 183.95778,249.86961 C 183.81678,249.97761 183.70178,250.12161 183.61478,250.27661 C 183.52578,250.43661 183.46378,250.61261 183.43478,250.78061 L 183.43278,250.78261 C 183.38078,251.07561 183.40278,251.32761 183.50678,251.38861 L 248.44977,289.61268 L 248.44967,289.61262 z M 250.35966,290.85862 C 249.64967,291.02562 248.78166,290.90262 247.97167,290.42662 L 183.02867,252.20255 C 182.56467,251.93055 182.38367,251.28355 182.50267,250.61855 L 182.50068,250.61855 C 182.54767,250.35155 182.64467,250.07155 182.78867,249.81455 C 182.93467,249.55555 183.13167,249.31255 183.37967,249.12155 C 183.98167,248.65755 184.85567,248.48855 185.97767,249.04255 L 186.00567,249.05555 L 251.01172,286.57644 C 251.75972,287.04444 252.06172,288.30944 251.95972,289.14543 C 251.90372,289.59943 251.71172,289.98143 251.42572,290.27443 C 251.14572,290.56043 250.77672,290.76043 250.35972,290.85843 L 250.35966,290.85862 z "
     class="fil3"
     id="_49878616" /><polygon
     style="fill:#e7b400"
     points="8.07461,9.10975 8.07461,9.39767 8.1464,9.43967 8.13343,9.11032 8.07461,9.10975 "
     class="fil5"
     id="_49877968"
     transform="matrix(31.689402,0,0,31.689402,0,-9.4371253e-4)" /><path
     style="fill:#1f1a17;fill-rule:nonzero"
     d="M 256.35364,289.16073 L 256.35364,297.53573 L 257.64663,298.29273 L 257.28763,289.16973 L 256.35364,289.16073 L 256.35364,289.16073 z M 255.40564,297.80573 L 255.40564,288.68175 L 255.40564,288.20375 L 255.88364,288.20774 L 257.74763,288.22574 L 258.20064,288.23075 L 258.21764,288.68075 L 258.62863,299.11774 L 258.66263,299.98174 L 257.91564,299.54374 L 255.64064,298.21275 L 255.40564,298.07575 L 255.40564,297.80575 L 255.40564,297.80573 z "
     class="fil3"
     id="_48842088" /><path
     style="fill:#e7b400"
     d="M 255.87956,360.51038 L 256.03056,366.57536 L 260.00156,364.86036 L 259.83856,362.1144 C 258.50156,361.61038 257.18157,361.07838 255.87957,360.51038 L 255.87956,360.51038 z "
     class="fil5"
     id="_48841008" /><path
     style="fill:#1f1a17;fill-rule:nonzero"
     d="M 256.3717,361.23607 L 256.4877,365.86004 L 259.5077,364.55503 L 259.3827,362.44607 C 258.8037,362.22608 258.2297,362.00007 257.6677,361.77308 C 257.2457,361.60306 256.8147,361.42506 256.3717,361.23607 L 256.3717,361.23607 z M 255.5567,366.58405 L 255.4057,360.51906 L 255.3877,359.77807 L 256.0687,360.07506 C 256.6857,360.34407 257.3397,360.61907 258.0237,360.89506 C 258.6857,361.16305 259.3487,361.42205 260.0057,361.66907 L 260.2947,361.77805 L 260.3127,362.08405 L 260.4757,364.83003 L 260.4957,365.10805 L 260.1887,365.29305 L 256.2177,367.00805 L 255.5747,367.28603 L 255.5567,366.58405 L 255.5567,366.58405 z "
     class="fil3"
     id="_48749544" /><path
     style="fill:#e7b400"
     d="M 255.87956,321.89368 L 255.87956,349.40265 C 256.93656,351.72761 258.20356,354.13363 259.68156,356.62461 L 258.60356,318.84769 C 257.57057,319.81469 256.66757,320.83069 255.87957,321.89368 L 255.87956,321.89368 z "
     class="fil5"
     id="_48748784" /><path
     style="fill:#1f1a17;fill-rule:nonzero"
     d="M 256.35364,322.05213 L 256.35364,349.3001 C 256.86664,350.42606 257.42963,351.57008 258.04064,352.73007 C 258.39263,353.39907 258.76663,354.07906 259.15463,354.76609 L 258.16064,319.94801 C 257.93664,320.17798 257.71564,320.41001 257.50364,320.648 C 257.09064,321.11098 256.70664,321.583 256.35364,322.052 L 256.35364,322.05213 z M 255.40564,349.40109 L 255.40564,321.89213 L 255.49964,321.61114 C 255.90664,321.06113 256.34064,320.52913 256.79564,320.01814 C 257.25163,319.50711 257.74763,318.99913 258.28164,318.50012 L 259.04863,317.78511 L 259.07763,318.83311 L 260.15563,356.61004 L 259.27463,356.86406 C 258.53663,355.62006 257.84563,354.38705 257.20463,353.17005 C 256.56564,351.95704 255.97863,350.76304 255.44864,349.59507 L 255.40564,349.40106 L 255.40564,349.40109 z "
     class="fil3"
     id="_49680360" /><path
     id="_48836640"
     class="fil5"
     d="M 256.60779,283.46551 C 257.89178,283.46551 258.94078,284.51251 258.94078,285.79751 C 258.94078,287.08051 257.89178,288.12951 256.60779,288.12951 C 255.32379,288.12951 254.27679,287.08051 254.27679,285.79751 C 254.27679,284.51251 255.32379,283.46551 256.60779,283.46551 z "
     style="fill:#e7b400" /><path
     id="_48836504"
     class="fil4"
     d="M 256.60874,282.57757 C 258.38173,282.57757 259.82873,284.02357 259.82873,285.79858 C 259.82873,287.57058 258.38173,289.01759 256.60874,289.01759 C 254.83474,289.01759 253.38874,287.57059 253.38874,285.79858 C 253.38874,284.02358 254.83474,282.57757 256.60874,282.57757 z M 256.60774,283.46557 C 257.89173,283.46557 258.94073,284.51257 258.94073,285.79657 C 258.94073,287.08057 257.89173,288.12956 256.60774,288.12956 C 255.32374,288.12956 254.27674,287.08057 254.27674,285.79657 C 254.27674,284.51257 255.32374,283.46557 256.60774,283.46557 z "
     style="fill:#1f1a17" /><path
     id="_48811016"
     class="fil5"
     d="M 209.34273,247.75377 C 210.62672,247.75377 211.67572,248.80077 211.67572,250.08577 C 211.67572,251.36877 210.62672,252.41777 209.34273,252.41777 C 208.05873,252.41777 207.01173,251.36877 207.01173,250.08577 C 207.01173,248.80077 208.05873,247.75377 209.34273,247.75377 z "
     style="fill:#e7b400" /><path
     id="_49107880"
     class="fil4"
     d="M 209.34368,246.86584 C 211.11667,246.86584 212.56367,248.31183 212.56367,250.08684 C 212.56367,251.85884 211.11667,253.30585 209.34368,253.30585 C 207.56968,253.30585 206.12368,251.85885 206.12368,250.08684 C 206.12368,248.31185 207.56968,246.86584 209.34368,246.86584 z M 209.34267,247.75383 C 210.62667,247.75383 211.67567,248.80083 211.67567,250.08483 C 211.67567,251.36883 210.62667,252.41783 209.34267,252.41783 C 208.05868,252.41783 207.01168,251.36883 207.01168,250.08483 C 207.01168,248.80083 208.05868,247.75383 209.34267,247.75383 z "
     style="fill:#1f1a17" /><path
     id="_48759296"
     class="fil5"
     d="M 157.76664,275.11377 C 159.05064,275.11377 160.09964,276.16077 160.09964,277.44577 C 160.09964,278.72877 159.05064,279.77776 157.76664,279.77776 C 156.48264,279.77776 155.43564,278.72877 155.43564,277.44577 C 155.43564,276.16077 156.48264,275.11377 157.76664,275.11377 z "
     style="fill:#e7b400" /><path
     id="_49106864"
     class="fil4"
     d="M 157.76791,274.22583 C 159.5409,274.22583 160.9879,275.67183 160.9879,277.44684 C 160.9879,279.21884 159.5409,280.66585 157.76791,280.66585 C 155.99391,280.66585 154.54792,279.21885 154.54792,277.44684 C 154.54792,275.67184 155.99391,274.22583 157.76791,274.22583 z M 157.7669,275.11383 C 159.0509,275.11383 160.0999,276.16083 160.0999,277.44483 C 160.0999,278.72882 159.0509,279.77782 157.7669,279.77782 C 156.48291,279.77782 155.43591,278.72882 155.43591,277.44483 C 155.43591,276.16083 156.48291,275.11383 157.7669,275.11383 z "
     style="fill:#1f1a17" /><path
     id="_48723304"
     class="fil5"
     d="M 249.70774,286.80874 C 250.65073,286.80874 251.42074,287.57775 251.42074,288.52074 C 251.42074,289.46374 250.65074,290.23374 249.70774,290.23374 C 248.76474,290.23374 247.99574,289.46374 247.99574,288.52074 C 247.99574,287.57775 248.76474,286.80874 249.70774,286.80874 z "
     style="fill:#e7b400" /><path
     id="_48747688"
     class="fil4"
     d="M 249.70869,286.15658 C 251.00969,286.15658 252.07268,287.21857 252.07268,288.52157 C 252.07268,289.82257 251.00969,290.88557 249.70869,290.88557 C 248.40569,290.88557 247.34369,289.82257 247.34369,288.52157 C 247.34369,287.21857 248.40569,286.15658 249.70869,286.15658 z M 249.70769,286.80858 C 250.65068,286.80858 251.42069,287.57758 251.42069,288.52057 C 251.42069,289.46357 250.65068,290.23357 249.70769,290.23357 C 248.76469,290.23357 247.99569,289.46357 247.99569,288.52057 C 247.99569,287.57758 248.76469,286.80858 249.70769,286.80858 z "
     style="fill:#1f1a17" /><path
     style="fill:#ffffff"
     d="M 185.47268,253.11657 L 243.14264,287.01948 C 217.25468,300.09646 197.62177,348.44337 251.04563,368.17033 C 196.64285,364.91233 139.69288,303.28628 185.47265,253.11657 L 185.47268,253.11657 z "
     class="fil2"
     id="_48750936" /><path
     style="fill:#1f1a17;fill-rule:nonzero"
     d="M 185.71162,252.70873 L 243.38158,286.61163 L 244.13058,287.05163 L 243.35558,287.44263 C 233.55959,292.39062 224.66362,302.45061 220.36961,314.0796 C 218.58361,318.91959 217.59361,324.03456 217.67161,329.16258 C 217.74861,334.28059 218.89061,339.41656 221.3626,344.30755 C 226.0096,353.50853 235.69058,362.03753 251.52955,367.88652 L 251.01755,368.64551 C 230.23757,367.40151 209.08645,357.68555 193.37865,343.35154 C 185.44565,336.11357 178.89567,327.69155 174.47867,318.58859 C 170.0537,309.46861 167.76569,299.66163 168.36269,289.66565 C 169.10068,277.34567 174.22168,264.74368 185.12166,252.79757 L 185.38066,252.51457 L 185.71166,252.70857 L 185.71162,252.70873 z M 242.16851,286.99571 L 185.56743,253.72089 C 175.00444,265.40686 170.03145,277.70485 169.31245,289.72195 C 168.72445,299.55194 170.97745,309.20092 175.33246,318.17692 C 179.69545,327.1689 186.17144,335.49189 194.01643,342.64987 C 208.75942,356.10386 228.34144,365.45083 247.85641,367.43684 C 233.58743,361.57188 224.96044,353.53185 220.51644,344.7339 C 217.97545,339.70491 216.80146,334.42893 216.72145,329.17491 C 216.64245,323.9309 217.65344,318.70191 219.47944,313.75393 C 223.74344,302.20593 232.47342,292.17395 242.16842,286.99596 L 242.16851,286.99571 z "
     class="fil3"
     id="_48747376" /><path
     style="fill:#e7b400"
     d="M 136.94892,274.9737 L 177.2778,306.82757 C 179.3818,307.52957 181.39581,307.43657 180.63181,304.15958 L 140.26078,272.60263 C 137.83978,270.88064 135.33878,273.52464 136.94879,274.97363 L 136.94892,274.9737 z "
     class="fil5"
     id="_48742888" /><path
     style="fill:#1f1a17;fill-rule:nonzero"
     d="M 137.25282,274.60959 L 177.51167,306.40864 C 178.24667,306.79364 179.66167,307.11664 180.23467,306.04964 L 180.23667,306.04764 C 180.35667,305.68764 180.43667,305.01264 180.20767,304.42764 L 139.98368,272.98567 C 139.19168,272.42367 138.39968,272.41667 137.81768,272.68867 C 137.59768,272.79167 137.40068,272.93967 137.24768,273.11167 L 137.24668,273.11067 C 137.10368,273.27267 136.99868,273.45567 136.94768,273.64167 C 136.85968,273.96367 136.94068,274.31867 137.25268,274.60967 L 137.25282,274.60959 z M 176.98373,307.19961 L 136.65484,275.34573 L 136.63184,275.32574 C 136.00584,274.76174 135.85384,274.05174 136.03384,273.39374 C 136.12384,273.06474 136.29984,272.74974 136.53985,272.47974 L 136.53985,272.47774 C 136.77085,272.21974 137.07184,271.99474 137.41784,271.83274 C 138.27684,271.43274 139.42084,271.42474 140.53484,272.21774 L 140.55184,272.23074 L 180.92287,303.78768 C 181.34887,304.45168 181.37987,305.60368 181.13387,306.34568 L 181.13487,306.34568 C 180.92287,306.98968 180.41587,307.43068 179.76087,307.58268 C 178.95087,307.76968 177.71087,307.58368 176.98388,307.19968 L 176.98373,307.19961 z "
     class="fil3"
     id="_49103296" /><path
     style="fill:#ffffff"
     d="M 138.5448,276.23558 C 111.24783,301.63254 120.69882,329.82647 179.16776,357.83737 C 153.71179,340.89038 149.08682,322.70746 163.39778,310.99441 C 166.36678,308.56542 170.13977,306.46942 174.68878,304.80642 L 138.5448,276.23545 L 138.5448,276.23558 z "
     class="fil2"
     id="_48840088" /><path
     style="fill:#1f1a17;fill-rule:nonzero"
     d="M 138.57268,276.86176 C 133.4917,281.63874 129.72069,286.51273 127.35071,291.45973 C 124.49971,297.41173 123.67271,303.4767 125.01671,309.61472 C 126.36471,315.77672 129.74569,322.25272 135.6127,328.5587 C 143.75469,337.30969 156.53765,345.93468 174.02469,354.77867 C 169.17469,351.12367 165.26371,347.43169 162.27869,343.7847 C 158.1907,338.7907 155.82169,333.85972 155.12871,329.18771 C 154.42971,324.48169 155.42771,320.04374 158.0717,316.07273 C 159.3607,314.13573 161.0397,312.31174 163.09771,310.62773 L 163.10871,310.61873 C 163.5197,310.28273 163.9587,309.94473 164.4227,309.60474 L 164.4227,309.60274 C 164.8627,309.28174 165.3337,308.95674 165.8317,308.63074 L 165.8337,308.63074 C 168.1207,307.13774 170.76369,305.80674 173.7417,304.66275 L 138.5728,276.86179 L 138.57268,276.86176 z M 126.49471,291.05173 C 128.96171,285.90274 132.9007,280.84074 138.22271,275.88975 L 138.5217,275.61275 L 138.8387,275.86375 L 174.98269,304.43472 L 175.64669,304.95972 L 174.84969,305.25072 C 171.6167,306.43272 168.77768,307.83572 166.34869,309.42171 L 166.34969,309.42271 C 165.89369,309.72171 165.43569,310.03871 164.98269,310.36871 L 164.98169,310.36771 C 164.55369,310.68071 164.12869,311.00971 163.70869,311.35271 L 163.69769,311.36171 C 161.70869,312.98971 160.09169,314.74271 158.8597,316.5947 C 156.34871,320.36672 155.40071,324.58171 156.06471,329.0497 C 156.73271,333.5497 159.0347,338.32467 163.0127,343.1847 C 166.88768,347.91971 172.34669,352.72966 179.42867,357.44369 L 179.06167,358.07669 C 158.66669,348.30572 144.06072,338.93872 135.02766,329.22973 C 129.03966,322.79474 125.47467,316.14272 124.09067,309.81473 C 122.69967,303.46373 123.55266,297.19474 126.49466,291.05175 L 126.49471,291.05173 z "
     class="fil3"
     id="_48815536" /><path
     id="_49113464"
     class="fil5"
     d="M 179.00266,303.65673 C 180.05266,303.65673 180.90866,304.51273 180.90866,305.56273 C 180.90866,306.61173 180.05266,307.46773 179.00266,307.46773 C 177.95366,307.46773 177.09766,306.61173 177.09766,305.56273 C 177.09766,304.51273 177.95366,303.65673 179.00266,303.65673 z "
     style="fill:#e7b400" /><path
     id="_48811296"
     class="fil4"
     d="M 179.00361,302.93168 C 180.45261,302.93168 181.63461,304.11368 181.63461,305.56367 C 181.63461,307.01167 180.45261,308.19367 179.00361,308.19367 C 177.55361,308.19367 176.37261,307.01167 176.37261,305.56367 C 176.37261,304.11367 177.55361,302.93168 179.00361,302.93168 L 179.00361,302.93168 z M 179.00261,303.65768 C 180.0516,303.65768 180.90861,304.51267 180.90861,305.56167 C 180.90861,306.61067 180.0516,307.46767 179.00261,307.46767 C 177.95361,307.46767 177.09861,306.61067 177.09861,305.56167 C 177.09861,304.51267 177.95361,303.65768 179.00261,303.65768 z "
     style="fill:#1f1a17" /><path
     style="fill:#1f1a17;fill-rule:nonzero"
     d="M 220.7338,312.74652 L 255.57281,366.72941 L 254.77681,367.24141 L 219.9378,313.25852 L 220.7338,312.74652 L 220.7338,312.74652 z M 163.81298,310.76852 L 197.82901,372.97039 L 196.99902,373.42238 L 162.98298,311.22052 L 163.81298,310.76852 L 163.81298,310.76852 z M 186.77594,371.13557 L 160.44699,313.55053 L 161.30699,313.15854 L 187.63594,370.74358 L 186.77594,371.13557 z M 159.40498,315.48961 L 179.62095,367.79645 L 178.73895,368.13645 L 158.52298,315.82961 L 159.40498,315.48961 z M 219.49094,315.93761 L 247.3939,369.80959 L 246.5539,370.24358 L 218.73194,316.61466 L 219.49094,315.93766 L 219.49094,315.93761 z M 218.28594,321.09162 L 239.8199,371.67455 L 238.94991,372.04455 L 217.57794,321.73162 L 218.28594,321.09162 L 218.28594,321.09162 z M 259.15291,287.09173 L 291.67099,325.07274 L 290.93499,325.66473 L 258.77405,288.21991 L 259.15305,287.09191 L 259.15291,287.09173 z M 258.40091,288.34673 L 285.11086,331.86769 L 284.30687,332.37168 L 257.59691,288.85072 L 258.40091,288.34673 z M 260.75491,317.24968 L 276.95488,355.02376 L 276.08488,355.39376 L 259.88491,317.61969 L 260.75491,317.24968 z M 259.78891,318.04569 L 272.45488,357.96768 L 271.55088,358.25368 L 259.18489,319.27762 L 268.42989,360.35849 L 267.50789,360.5665 L 258.14291,318.95166 L 259.01891,318.75363 L 258.88491,318.33166 L 259.78891,318.04566 L 259.78891,318.04569 z "
     class="fil3"
     id="_48839264" /><path
     style="fill:#e7b400"
     d="M 237.1356,290.81872 L 272.01359,311.2157 L 275.77259,313.6257 C 277.40458,313.7877 278.33058,313.3137 277.70658,311.4387 L 274.26958,309.1777 C 258.86359,299.54273 242.2167,289.44173 240.80652,288.66072 L 237.13553,290.81871 L 237.1356,290.81872 z "
     class="fil5"
     id="_48838968" /><path
     style="fill:#1f1a17;fill-rule:nonzero"
     d="M 238.06853,290.81777 L 272.25253,310.80874 L 272.26953,310.81774 L 275.93453,313.16774 C 276.56153,313.21874 277.03353,313.16374 277.26353,312.94974 C 277.46353,312.76474 277.49953,312.38474 277.30853,311.74474 L 274.00852,309.57375 L 274.00952,309.57275 L 273.90153,309.50575 C 273.90052,309.50575 273.89953,309.50375 273.89953,309.50375 C 271.56253,308.04175 269.39953,306.69675 267.40954,305.46176 C 265.25254,304.12376 263.11455,302.80177 261.04555,301.52676 C 251.00957,295.34178 242.54556,290.21377 240.80856,289.20678 L 238.06857,290.81778 L 238.06853,290.81777 z M 271.75754,311.61274 L 236.89666,291.22577 L 236.20266,290.82077 L 236.89666,290.41177 L 240.56765,288.25377 L 240.80065,288.11778 L 241.03666,288.24777 C 242.04765,288.80778 250.91665,294.17477 261.54163,300.72275 C 263.61063,301.99775 265.74862,303.31975 267.90563,304.65775 C 270.22862,306.09875 272.4296,307.46875 274.4016,308.70173 L 274.4036,308.70373 L 274.5216,308.77773 L 274.5306,308.78173 L 277.9676,311.04273 L 278.1566,311.29073 C 278.53461,312.42773 278.4046,313.17872 277.9076,313.64172 C 277.43761,314.07872 276.6726,314.18872 275.72661,314.09572 L 275.5166,314.02372 L 271.75761,311.61372 L 271.75761,311.61272 L 271.75754,311.61274 z "
     class="fil3"
     id="_48733400" /><path
     id="_48672816"
     class="fil5"
     d="M 276.72073,311.12877 C 277.49173,311.12877 278.11973,311.75677 278.11973,312.52777 C 278.11973,313.29777 277.49173,313.92577 276.72073,313.92577 C 275.95073,313.92577 275.32273,313.29777 275.32273,312.52777 C 275.32273,311.75677 275.95073,311.12877 276.72073,311.12877 z "
     style="fill:#e7b400" /><path
     id="_49112720"
     class="fil4"
     d="M 276.72168,310.59671 C 277.78468,310.59671 278.65268,311.46371 278.65268,312.52871 C 278.65268,313.59071 277.78468,314.45871 276.72168,314.45871 C 275.65769,314.45871 274.79069,313.59071 274.79069,312.52871 C 274.79069,311.46371 275.65769,310.59671 276.72168,310.59671 z M 276.72068,311.12971 C 277.49068,311.12971 278.11968,311.75671 278.11968,312.52671 C 278.11968,313.29671 277.49068,313.92571 276.72068,313.92571 C 275.95068,313.92571 275.32368,313.29671 275.32368,312.52671 C 275.32368,311.75671 275.95068,311.12971 276.72068,311.12971 z "
     style="fill:#1f1a17" /><path
     id="_48843064"
     class="fil1"
     d="M 93.914713,419.947 C 106.3367,429.94801 120.71368,438.65298 137.03353,446.077 C 161.1645,457.05398 188.47842,470.83595 209.0984,500 C 224.03938,478.94301 244.68528,461.85101 280.69934,446.20407 C 298.00831,438.68305 313.09129,429.58608 325.97936,419.02113 L 325.24337,417.30213 C 325.12736,417.39812 325.01138,417.49613 324.89536,417.59212 C 310.55538,417.82612 300.81241,408.58813 286.50049,406.75511 C 274.6755,405.24416 264.66653,415.17013 253.48045,417.38212 C 247.03847,418.65214 240.79848,420.61508 235.24846,415.90311 C 228.17948,409.9021 219.7135,405.55009 210.2125,405.52509 C 209.25051,405.5241 208.16851,405.56511 207.21951,405.6411 C 197.65451,406.41309 191.29955,410.2151 184.01653,415.90311 C 178.72155,420.03909 171.29355,420.76807 165.09856,418.1991 C 156.80858,414.7601 142.99358,404.07713 130.99347,406.26209 C 117.67448,408.68608 110.2005,418.65711 94.822556,418.67711 L 93.914557,419.94706 L 93.914713,419.947 z "
     style="fill:#c3010d;fill-opacity:1" /></svg>