<svg xmlns="http://www.w3.org/2000/svg" viewBox="0 0 64 64">
  <rect width="64" height="64" rx="10" fill="#fff"/>
  <path fill="#f04e98" d="M12 32c0-11 8.9-20 20-20h6c7.7 0 14 6.3 14 14H30c-3.3 0-6 2.7-6 6z"/>
  <path fill="#00bfb3" d="M24 32c0 3.3 2.7 6 6 6h22c0 7.7-6.3 14-14 14h-6c-11.1 0-20-9-20-20z"/>
  <path fill="#343741" d="M30 26h22c2.2 0 4 1.8 4 4v4c0 2.2-1.8 4-4 4H30c-3.3 0-6-2.7-6-6s2.7-6 6-6z"/>
  <path fill="#f5a700" d="M12 32c0-4.6 1.6-8.8 4.2-12.2L24 26.5c-1.3 1.3-2 3.3-2 5.5s.7 4.2 2 5.5l-7.8 6.7C13.6 40.8 12 36.6 12 32z"/>
</svg>
