<svg xmlns="http://www.w3.org/2000/svg" width="398" height="517" viewBox="0 0 99.5 129.25"><path d="M47.77265 129.1827721c-2.2954-.0649-2.2972-.0697-4.0869-.2358-4.9213-.457-9.6583-1.3187-14.3839-2.7749-3.0237-.9317-5.9607-2.1126-8.8061-3.5203-.7605-.3764-1.4953-.7883-2.2178-1.2175-2.4395-1.4493-4.5777-3.0957-6.6447-5.0306-.453-.4814-.8966-.9533-1.3402-1.4253-.5381-.6891-1.0761-1.3686-1.6044-2.0483-.8119-1.2268-.8119-1.2268-1.4914-2.3689-.5663-1.0758-.5663-1.0758-1.0663-2.1424-1.4537-3.5017-2.2842-6.956-2.6431-10.7312-.0564-.9439-.1131-1.8878-.1604-2.8315v-59.1401c-.368-2.5202-1.4913-4.9552-3.3032-6.7674v-.1227c1.8215-4.6812 3.6431-9.3629 5.4646-14.0346 1.7368.1133 3.3885.1698 5.125.019 1.6801-.2739 3.2562-.6798 4.8513-1.2649 4.2284-1.7461 7.7051-4.7469 11.4298-7.3428.4187-.292.8391-.5743 1.2742-.8306 3.5198-2.0749 6.986-3.4772 10.9862-4.3135 6.0245-1.2591 12.3767-1.2543 18.4612-.4719 3.6768.4731 7.0628 1.4924 10.4482 3.0203 1.6546.7469 3.2556 1.6687 4.7288 2.7181 3.3503 2.3868 6.5219 4.9459 10.2124 6.7862.6131.2454 1.2362.5003 1.8592.7551.557.1605 1.1138.3303 1.6705.5003 2.5577.5757 4.8892.5945 7.4846.4247.1037.3492.1037.3492 5.4555 14.0346-.01.047-.019.0944-.019.1417-1.5103 1.6044-2.4633 3.4166-3.0673 5.5213-.0757.4057-.1511.8119-.2172 1.2271v59.1401c-.1133 2.5954-.3869 5.1251-.8779 7.6828-.1697.6701-.3395 1.3402-.5096 2.0103-.8116 2.6237-1.8783 5.0777-3.3222 7.4089-.7552 1.1327-1.6141 2.2181-2.4823 3.2655-3.445 3.6904-7.3361 6.2572-11.8829 8.3435-1.6469.7557-3.3576 1.4207-5.0683 2.0103-1.0556.364-2.113.7056-3.1808 1.01-1.8776.5358-1.8779.5429-3.9923 1.0006-3.1153.6747-6.2648 1.1537-9.4385 1.3873-1.1871.0873-2.3768.1582-3.558.1888-1.368.0354-2.7284.0573-4.0868.0187"/><path fill="#a7a8aa" d="M47.83845 127.4839721c-2.3046-.0657-2.306-.0734-4.0584-.2358-4.8642-.451-9.5694-1.2926-14.2234-2.7749-2.9916-.953-5.856-2.0786-8.655-3.5206-2.8077-1.4462-5.3628-3.1966-7.664-5.3702-2.0271-1.9151-3.9733-4.4975-5.1908-7.041-1.0525-2.1977-1.7994-4.4042-2.2655-6.7958-.4498-2.3102-.7489-4.5927-.7548-6.9463-.1259-47.7856 0-47.7859-.0284-59.4329-.3775-2.501-1.4439-4.7945-3.0109-6.7765 0-.0567.009-.1134.019-.1698 1.5383-3.9452 3.0767-7.8905 4.615-11.8357 1.973.0944 3.8228-.0281 5.7575-.3303 1.1044-.2548 1.1044-.2548 2.0106-.5003 2.6048-.9156 4.9079-2.1331 7.2201-3.6431 2.2465-1.595 4.4286-3.329 6.7295-4.8418 1.116-.7336 2.2768-1.393 3.4826-1.9633 3.2882-1.5542 6.6118-2.465 10.1937-3.02.7415-.1148 1.4885-.2016 2.2368-.2549 3.2162-.2296 6.467-.2474 9.6837-.0944.9465.0451 1.8922.1293 2.8316.2549 3.5824.4784 6.857 1.3444 10.165 2.7652.7135.3067 1.419.6474 2.1047 1.0383 4.3838 2.4979 8.117 5.9839 12.5907 8.3435 1.0664.5 1.0664.5 2.2935 1.0003 2.9636 1.0007 5.8328 1.4253 8.9665 1.2459 1.5384 3.9736 3.0864 7.9472 4.6341 11.9301-.8022 1.1421-.8022 1.1421-1.1798 1.7365-.9062 1.6801-1.4816 3.2278-1.8405 5.1154-.009 19.8111.0802 39.6221-.0283 59.4329-.0139 2.5603-.3119 5.0542-.8777 7.5507-.4444 1.9598-.4807 1.9536-.7551 2.7654-1.2424 3.6783-3.3154 7.3321-6.1254 10.0517-2.5656 2.4846-5.375 4.415-8.5513 6.0026-2.8854 1.4429-5.8487 2.5988-8.9379 3.53-3.5175 1.0602-7.0727 1.8136-10.722 2.2652-2.2218.275-4.4626.4292-6.7011.5003-1.3204.042-2.6436.0564-3.9643.0187zm-36.305-22.8404h76.3863l-.0147-.6035c-.4816-.009-.4632-.114-.9352-.1233l-.0189-4.7475-1.8122-2.4729v-26.0779c.7835-.7929 1.567-1.5761 2.3598-2.3596.009-2.1424.0187-4.2848.0377-6.4273h-3.8038c0-4.9739 0-9.9479.009-14.9125.6418-.6607 1.2839-1.3212 1.9256-1.9822.0284-.2262.0284-.2262.019-4.9077h-1.1704c-2.2842-6.6067-4.5683-13.2137-6.8428-19.8204 0-.0377 0-.0756.009-.1133.5097-.368.864-.7847.9062-1.397.1097-1.591-1.3186-2.6237-2.8031-1.9253-.6375.3-.9511.7444-1.01 1.548-.0641.872.3767 1.2932.9533 1.812-2.2935 6.6257-4.5871 13.261-6.8806 19.896h-1.1608c.009 1.6328.0188 3.2752.0284 4.9173 1.8873 1.9159 1.8873 1.9159 1.9346 2.001 0 4.9549.01 9.9195.019 14.8841-.8305-.01-1.6611-.019-2.4823-.019-3.2374-3.7848-6.4652-7.5693-9.6933-11.3541h-15.488l-9.6746 11.3448h-2.5197c0-4.9646 0-9.9009.009-14.8558l1.935-2.001v-4.9173h-1.1328c-2.2935-6.635-4.587-13.2703-6.8805-19.896 1.3309-.9814 1.2983-3.0068-.3869-3.5014-1.412-.4144-2.5699.5885-2.473 2.029.0454.6741.3966 1.01.9063 1.4443 0 .0377 0 .0847.009.1321l-6.8428 19.792h-1.1798v4.7756l1.9536 2.1143.019 14.9125h-3.8128c-.01 2.1048-.019 4.2095-.019 6.3236.6607.8779 1.6234 1.6801 2.4066 2.4633l.019 26.0685-1.8406 2.4823v4.7475l-.968.0561v.6707z"/><path fill="#a7a8aa" d="m39.43855 103.9167721.009-22.1233.604-1.2458h.8022v1.7555h-.7537l1.1219 1.3402 1.0854-1.1931 1.0477 1.1931 1.0948-1.1931 1.0383 1.1931 1.01-1.1931 1.1324 1.1931 1.0871-1.1931 1.0176 1.1931 1.1328-1.1931 1.0003 1.1931 1.1325-1.1931 1.0289 1.1931 1.1138-1.1931 1.0287 1.1931 1.0496-1.1931 1.0644 1.1931 1.0797-1.3402h-.7114v-1.7555l.8024-.001.5661 1.1528c-.0218 7.3502.0162 14.7532.0162 22.1213.0005.0309.002.0626.003.0964h-.003v.0326h-20.5552v-.0326h-.0459"/><path fill="#866d4b" d="m39.43855 103.9167721.009-12.3194 1.8805-1.8258.8025-.623-.6764-1.3284-.1329-1.309 2.4397-.5474 1.5591 1.0114 1.0383-1.2432 1.474-.6129.4363-.2574.2171.9533 1.5398-.7211 1.9446-.2651-.1599.961 2.4089-.2069-.0153 1.2512 2.2158-.845 1.5511.1488-.5167 2.6937 1.2384 1.1931.6154 1.0381.7152 1.1948c-.0218 7.3502.0162 4.1947.0162 11.5628.0005.0309.002.0626.003.0964h-.003v.0326h-20.5552v-.0326h-.0459"/><path fill="#a7a8aa" d="M47.83875 127.4839721c-2.3032-.1131-2.3032-.1131-4.0587-.2358-4.8605-.491-9.5516-1.3499-14.2234-2.7749-2.9732-1.0099-5.8328-2.1237-8.655-3.5206-2.7842-1.491-5.3422-3.2184-7.664-5.3702-.7455-.7458-1.4723-1.529-2.1708-2.3219-.4056-.538-.8022-1.076-1.1985-1.614 26.5876-.009 53.1848-.009 79.782-.009-.4153.5474-.8306 1.0948-1.2365 1.6424-.8492.972-1.6044 1.7555-1.6988 1.8876-2.586 2.4633-5.4176 4.3322-8.5513 6.0026-2.9256 1.3593-5.8612 2.5577-8.9379 3.53-3.53 1.0194-7.0787 1.7649-10.722 2.2652-2.2275.2265-4.4643.3869-6.7011.5003-1.3215 0-2.6428.009-3.964.0187"/><path fill="#866d4b" d="M51.22075 27.8535721c.324 2.0047 1.2923 3.8248 2.6476 5.5165h-8.3469c1.3552-1.6917 2.3232-3.5118 2.6472-5.5165-2.0043.324-3.8247 1.2923-5.5165 2.6476v-8.3469c1.6918 1.3552 3.5122 2.3232 5.5165 2.6475-.324-2.0046-1.292-3.8248-2.6472-5.5165h8.3469c-1.3553 1.6917-2.3236 3.5119-2.6476 5.5165 2.0047-.3243 3.8248-1.2923 5.5165-2.6475v8.3469c-1.6917-1.3553-3.5118-2.3236-5.5165-2.6476"/><path d="M51.56065 28.1934721c.0555.2267.1105.4535.1732.6791.0402.1367.0822.2722.1267.4085.0927.271.1944.5366.3064.8014.1276.2914.2642.5765.4136.8586.1806.3367.3756.6641.5839.9856.2838.434.5891.8524.9133 1.258l.0463.0799.0167.0732-.005.0759-.0246.074-.0423.0658-.0561.0507-.0669.0326-.0907.0139h-8.3217l-.0907-.0139-.0666-.0326-.0564-.0507-.0422-.0658-.0247-.074-.005-.0759.0167-.0732.0462-.0799c.3243-.4056.6299-.824.9136-1.258.2084-.3215.4031-.6489.584-.9856.1491-.2818.286-.5672.4135-.8589.0746-.1766.1449-.3529.2118-.5318.0805-.2245.1536-.4493.2208-.6778.0626-.2256.1176-.4524.1732-.6791-.2268.0558-.453.1108-.6786.1737-.1823.0533-.3629.1111-.5431.1729-.2702.0967-.5347.2019-.798.3175-.1599.0723-.3186.1471-.4762.2257-.3677.1873-.7243.3906-1.0746.61-.3561.2267-.7016.4674-1.0395.7214-.1276.0969-.2545.1956-.381.2959l-.0799.0465-.0729.0165-.0759-.004-.074-.0247-.0658-.0422-.051-.0564-.0323-.0669-.0142-.0907v-8.3214l.0139-.0907.0326-.0669.051-.0561.0658-.0425.074-.0244.0759-.005.0729.0168.0799.0459c.3813.3039.7725.591 1.1775.8606.2946.193.5933.3753.9.5465.2509.1375.5043.2656.7626.3867.1749.0793.3503.155.5275.227.2225.0867.4456.167.6718.2407.1823.0567.3643.1088.5479.1567l.4037.0992c-.0556-.2267-.1106-.4532-.1732-.6789-.0669-.2281-.1403-.4532-.2208-.6777-.0502-.1338-.1021-.2668-.1559-.3997-.1426-.3376-.298-.6667-.4694-.9913-.1506-.28-.3107-.5536-.48-.8234-.2443-.3841-.5048-.7552-.7809-1.118-.0777-.1012-.1568-.2021-.2367-.3025l-.0462-.0796-.0167-.0729.005-.0762.0247-.074.0422-.0655.0564-.051.0669-.0326.0904-.0139h8.3217l.0907.0139.0669.0326.0561.0507.0423.0658.0246.074.005.0762-.0167.0729-.0463.0796c-.3035.3813-.591.7725-.8605 1.1775-.1931.2943-.3754.5933-.5463.9-.1377.2506-.2659.5043-.3869.7625-.0794.1752-.1551.3504-.2271.5279-.0867.2225-.1669.4453-.2406.672-.0564.182-.1086.364-.1568.548l-.0989.4034c.2268-.0553.4535-.1103.6789-.1732.2285-.0672.453-.1404.6777-.2211.1338-.0499.2668-.1021.3997-.1559.3376-.1426.6667-.298.991-.4695.3368-.1808.6645-.3758.9859-.5839.3266-.2143.6443-.4399.9556-.6769.1012-.0777.2021-.1568.3024-.2367l.08-.0459.0728-.0168.076.005.0743.0244.0654.0425.0511.0561.0326.0669.0138.0907v8.3214l-.0138.0907-.0326.0669-.0511.0564-.0654.0422-.0743.0247-.076.004-.0728-.0165-.08-.0465c-.28-.2222-.5644-.4365-.8563-.6417-.3694-.2571-.7475-.4972-1.1381-.7189-.2353-.1312-.4731-.2548-.7152-.3716-.1741-.0819-.3487-.1599-.5253-.2342-.2659-.108-.5326-.2058-.8047-.2945-.182-.0567-.3643-.1088-.548-.1567zm-.614-.2866-.002-.0746.0136-.0618.0284-.0581.0417-.0516.0515-.0413.0582-.0287.0617-.0136.0749.002c.286.0482.5669.1066.8484.1774.1882.0491.3747.1026.5604.1608.3722.1196.7342.2585 1.0925.4147.089.0396.1783.0808.2673.1221.4039.1928.7937.4062 1.1781.6367.2058.127.4093.2577.6105.3929.2098.1437.417.2919.6251.4399v-7.1929c-.2078.1483-.415.2968-.6248.4405-.2817.1891-.5663.3685-.8583.5397-.3053.1746-.614.3385-.9306.4896-.296.1383-.595.2644-.9003.379-.2441.089-.4895.1698-.7384.2423-.2821.0797-.5647.1471-.8513.2041-.0924.0173-.1854.034-.2786.0493l-.0751.003-.0615-.0139-.0582-.0283-.0515-.0417-.0414-.0516-.0287-.0581-.0136-.0615.002-.0749c.0422-.2534.0935-.504.1536-.7543.0788-.3152.171-.6242.2764-.9311.0981-.2761.2052-.5468.3226-.8159.1244-.2789.2594-.5524.4028-.8231.1372-.2526.2806-.5001.4314-.7453.1554-.2471.3167-.4895.4842-.729l.2735-.3836h-7.1932c.1483.2078.2968.415.4405.6248.1891.2815.3688.5664.54.8583.1749.305.3385.614.4896.9306.1383.296.2647.5947.379.9.1003.275.1893.5514.2687.832.0255.0944.0499.1882.0734.2823.0601.2506.1114.5009.1537.7543l.002.0749-.0136.0615-.0286.0581-.0414.0516-.0516.0417-.0581.0283-.0618.0139-.0748-.003c-.2534-.0419-.5037-.0935-.7543-.1536-.3144-.0785-.6236-.1706-.9309-.2764-.2758-.0975-.5471-.2049-.8156-.3226-.2361-.1051-.4677-.2177-.6978-.3361-.2107-.1112-.4182-.2271-.6245-.3481-.2908-.1747-.5746-.3575-.8552-.5497l-.5037-.3577v7.1923c.2077-.1477.4149-.2962.6247-.4396.2415-.1624.4856-.3181.7342-.4672.2472-.1451.4969-.2826.7509-.4133.2474-.1244.4966-.2403.7509-.3486.3002-.1253.6032-.2378.9125-.3373.248-.0777.4969-.1469.7491-.207.2192-.0504.4386-.0941.6597-.1312l.0748-.002.0615.0136.0584.0287.0516.0413.0414.0519.0286.0581.0136.0615-.002.0746c-.0531.3183-.1202.6304-.2019.9431-.0847.3129-.1822.6205-.2939.9255-.1372.3671-.292.7251-.4646 1.0771-.1273.2552-.2617.5057-.404.7538-.1462.25-.2987.4946-.4583.737-.169.252-.3453.4983-.5222.7461h7.1932c-.1482-.2078-.2968-.415-.4405-.6245-.189-.2818-.3685-.5664-.5397-.8586-.1423-.2481-.2766-.4984-.4039-.7538-.1727-.3523-.3274-.7097-.4646-1.0771-.1114-.3047-.2092-.6126-.294-.9255-.0816-.3124-.1491-.6248-.2018-.9431"/><path fill="#866d4b" d="M49.69455 17.3236721c-3.4951 0-6.7569-.8189-8.7225-1.9128-.5263-3.6371-1.9448-6.508-4.2548-8.4427.8414-.2333 1.8882.1707 2.7352.6078.6182-.1988 2.0642-.3283 2.3099.7596.1778.7881-.644 1.1722-.2432 2.2187.5346 1.3958 2.4965.834 2.4616-.5167-.0192-.7611-1.0692-1.4845-.8509-2.34.3135-1.2274 1.9573-1.4749 2.4922-.3952.4799.9683-.1879 1.2841.0609 2.2187.1823.6851.72 1.2486 1.4891 1.0939.7994-.1607 1.4221-.309 1.398-1.5194-.0136-.6931-1.3425-1.1942-1.2157-2.0971.1224-.8708.8645-.7557 1.5196-.9119-.0833-.7004 0-1.3371.8206-1.3371.8207 0 .9043.6367.8209 1.3371.6551.1562 1.3972.0411 1.5194.9119.127.9029-1.2019 1.404-1.2155 2.0971-.0241 1.2104.5984 1.3587 1.3981 1.5194.769.1547 1.3065-.4088 1.489-1.0939.2486-.9346-.419-1.2504.061-2.2187.5349-1.0797 2.1787-.8322 2.4919.3952.2183.8555-.8314 1.5789-.851 2.34-.0346 1.3507 1.9273 1.9125 2.4619.5167.4008-1.0465-.4209-1.4306-.2432-2.2187.2455-1.0879 1.6914-.9584 2.3097-.7596.8473-.4371 1.8941-.8411 2.7354-.6078-2.3099 1.9347-3.7284 4.7798-4.2548 8.4166-1.9655 1.0942-5.2274 1.9389-8.7228 1.9389"/><path d="M43.17295 86.9780721c.0847.0354.1828.0609.2806.0864.2568.0672.5139.1344.7092.3544.2722.3061.4867.5042.6713.6338.1706.1199.3155.18.4589.2157.1293.032.2582.0641.195.3217-.0635.2577-.1927.2257-.3217.1939-.2035-.0504-.4056-.1338-.6378-.2968-.218-.153-.4626-.3773-.7628-.7149-.0902-.1012-.2676-.1477-.445-.1941-.1191-.0309-.2382-.0621-.3515-.1095-.1228-.051-.2455-.1023-.1438-.3475.1018-.2455.2245-.1942.3476-.1431"/><path fill="none" stroke="#000" stroke-linecap="round" stroke-linejoin="round" stroke-miterlimit="22.9256" stroke-width=".532254" d="M51.43329 93.7890551c.34324.152542.5323.19279.71519.429206.23043.297903.13829.615941.40053.886621.37412.385838 1.32462.83175 1.48733 1.34453.40027 1.26086.0822 2.36356-.22877 3.03192-.44392.95449.0474 2.23606-.42914 3.17518-.27781.54795-1.07009.32597-1.54461.71518-.57377.47-.90652.79681-2.01487.80761-1.10835.0103-1.35615-.33735-1.92984-.80761-.47483-.38921-1.26681-.16723-1.5446-.71518-.47652-.93912.0148-2.22069-.42916-3.17518-.311-.66836-.62903-1.77106-.22876-3.03192.16272-.51278 1.11313-.958692 1.48733-1.34453.26223-.27068.17009-.588718.40053-.886621.18281-.236416.37194-.276664.71521-.429206"/><path d="M46.07895 92.7263721c-.9068-.3789.3283-1.4686.6186-.5737.1355.4173-.2342.7345-.6186.5737zm-1.1191-.0609c-.4751-.1052.1185-.5769.0836-1.1965-.1814-.1922-.4535-.1755-.4155-.4482.1738-1.2503 1.8592.1741 2.8613.2228.4481.0219.3396-.007.9266-.3787.1211-.0768.4765-.1131.5242.0593.1411.5094-.5712.6845-.944.9479-.1156.0813-.1641.3512-.2817.4342-.0698.0494-.3198.0108-.3694-.0459-.5675-.6443-.8765-1.0122-1.6654-.4691-.2196.1511-.4575.932-.7197.8742zm9.8011 0c.4748-.1052-.1185-.5769-.0836-1.1965.1811-.1922.4532-.1755.4155-.4482-.1737-1.2503-1.8592.1741-2.8613.2228-.4481.0219-.3395-.007-.9266-.3787-.121-.0768-.4765-.1131-.5244.0593-.1409.5094.5712.6845.9442.9479.1157.0813.1641.3512.2818.4342.0697.0494.3194.0108.3693-.0459.5672-.6443.8762-1.0122 1.6651-.4691.22.1511.4578.932.72.8742zm-1.1191.0609c.9068-.3789-.3283-1.4686-.6188-.5737-.1352.4173.2344.7345.6188.5737"/><path d="m50.07555 90.6948721.0204.6403c.004.1219.008.2438-.2358.2514-.2438.008-.2478-.1142-.2517-.2361l-.0207-.6403c-.004-.1216-.008-.2435.2361-.2512.2438-.008.2477.1142.2517.2359"/><path fill="none" stroke="#000" stroke-linecap="round" stroke-width=".40633" d="M51.89235361 92.87394277c.0118684.1382896.0243674.41504082.18542139.49553776"/><path fill="none" stroke="#000" stroke-linecap="round" stroke-width=".40633" d="M47.69078748 92.87394277c-.0118684.1382896-.0243674.41504082-.18530672.49553776"/><path d="M51.26725 95.8975721c-.0145-.0003-.0272.002-.0369.008-.1218.0768-.1573.2452-.1941.4192-.0488.231-.0987.4692-.2951.6815-.0799.0861-.1777.1581-.2857.2151-.2158.1137-.4734.1656-.7113.1556-.2554-.011-.4986-.0924-.6633-.2446h.001c-.0573-.053-.1055-.1142-.1418-.1834-.0966-.1834-.1417-.3611-.1845-.5315-.0533-.2123-.1032-.4093-.2653-.5119-.01-.006-.0224-.008-.0366-.008.0337.0695.0255.1514-.1006.2662-.1965.1789-.286.0805-.3756-.0178-.1089-.1197-.1369-.2509-.1077-.3782.0195-.0881.0674-.1655.1341-.2285.0527-.0498.1193-.0915.1924-.121.1735-.07.3991-.074.5766.0383.3436.2165.4181.513.4983.8319.0355.1406.0723.2869.1389.413.007.0142.0182.0275.0315.04h.001c.0681.0629.1871.0975.322.1032.1523.006.313-.0247.4431-.0933.0538-.0283.1026-.064.1423-.1071.0986-.1063.1329-.2696.1661-.4278.0604-.2863.1191-.5626.4314-.7599.1775-.112.4031-.1083.5766-.0383.0731.0295.1397.0712.1925.121.0663.063.1142.1406.1341.2285.0289.1273.0008.2588-.1078.3782-.0895.0983-.1791.1967-.3756.0181-.1261-.1148-.1343-.197-.1003-.2667"/><path d="M31.46245 49.7967431c.98177 1.674095 3.11802 2.251847 4.7704 1.285747.0119-.01568.0292-.02562.0407-.03044.0224.0066.0334.01268.0554.03019 1.67522.966284 3.79306.38979 4.72672-1.289666.7332-1.30949.52243-2.903872-.40199-4.003687l.73393-.433633-1.2265-2.073544-.72808.42851c-.5084-1.343901-1.79941-2.311196-3.30242-2.305325-1.915-.0055-3.44906 1.565377-3.421 3.508924.005.02202.004.03831.004.05459-.023.0097-.0346.01989-.0519.02984-1.64695.971833-2.18569 3.113244-1.19872 4.798502m2.24772-1.320182c-.41366-.7132-.18742-1.614879.50602-2.023501.22523-.129273.47618-.191879.72488-.194768-.12145-.224154-.20241-.473319-.20945-.734813-.009-.816444.63749-1.466976 1.44557-1.472295.80246-.0056 1.46644.661257 1.48091 1.472577-.004.266313-.065.524154-.18625.740643.24869-.0029.50076.05424.72698.197015.71333.408432.96755 1.303418.57351 2.011081-.39966.707358-1.29009.947585-1.99215.539762-.23206-.137649-.41718-.321722-.53863-.545874-.12161.227347-.29794.408219-.52358.54835-.69886.402889-1.59919.158433-2.00781-.538177"/><path d="m65.63665 30.3174721 1.87 3.0931-1.3167.7963.5253.8697 1.3175-.7954 1.0519 1.739-1.3169.7957-.2781.1684-1.3161.7957-1.5784-2.6096-1.0391.6281 1.5774 2.6096-1.3169.7968-.2778.167-1.3167.7965-1.0514-1.7402 1.3164-.7954-.5261-.8702-1.3161.7963-1.8703-3.0929 1.5945-.9638.8764 1.4496 1.0392-.629-.8767-1.4491 1.595-.9637.8762 1.449 1.0395-.6278-.8762-1.4497z"/><path d="M39.40085 43.8114721c.009-.006.0187-.0125.0289-.0181l.7778-.5451-.2038-.3382c-.2973-.4912-.0518-1.1897.5466-1.5508l.0008.0005c.58-.3515 1.2872-.2616 1.5996.1936.0431-.1919.1596-.3673.341-.4765l-.0006-.0003c.3308-.1995.76-.1102.9851.1956l21.9943-13.0317c.5714-.3458 1.3215-.1607 1.667.411l-.0003-.0005c.3459.5723.1608 1.3223-.4107 1.6685l-21.9937 13.0308c.1661.3422.0462.7648-.2835.9641h-.0006c-.1802.1097-.3906.1315-.5802.0799.2574.4887.009 1.1566-.572 1.5078-.5976.3614-1.3301.2539-1.6283-.237l-.2038-.3385-1.4057.762-1.436-.9972z"/><path d="M66.71113 44.9287121c-.0177-.01552-.035-.02006-.0469-.03041l-.002-.05486c.0332-1.964506-1.51942-3.550514-3.46264-3.54822-1.51461.000733-2.82022.979583-3.33394 2.338248l-.74246-.432016-1.23985 2.096765.74837.437187c-.94059 1.107231-1.1529 2.724224-.41056 4.046875.94509 1.690855 3.08786 2.271351 4.78786 1.292832.0108-.01709.0277-.02351.0504-.02476.0173.0046.0233.0098.0466.02492 1.67228.980186 3.82176.394801 4.81989-1.298347 1.00342-1.704434.45744-3.868026-1.21484-4.848212m-3.0849 4.061843c-.22834-.141392-.40702-.329493-.52994-.553645-.12846.226966-.31565.413175-.54465.552202-.72145.413477-1.61688.165791-2.02132-.543187-.39323-.71509-.14215-1.61951.57338-2.03816.24042-.139654.48969-.19733.74699-.194971-.12271-.218665-.19556-.478553-.19447-.748001.02-.820254.69118-1.500358 1.50299-1.495476.8118.0049 1.46594.667158 1.46329 1.491959-.007.264277-.0888.516164-.21726.74313.25138-.0028.50528.06021.73911.195798.7017.412265.92529 1.323596.51263 2.038976-.42427.710521-1.32926.958153-2.03075.551375"/><path d="m33.75285 30.3174721-1.87 3.0931 1.3166.7963-.5252.8697-1.3176-.7954-1.0519 1.739 1.3173.7957.2778.1684 1.3164.7957 1.578-2.6096 1.0392.6281-1.5775 2.6096 1.317.7968.2781.167 1.3164.7965 1.0516-1.7402-1.3167-.7954.5262-.8702 1.3161.7963 1.8703-3.0929-1.5945-.9638-.8765 1.4496-1.0389-.629.8765-1.4491-1.5951-.9637-.8761 1.449-1.0395-.6278.8762-1.4497z"/><path d="M59.98885 43.8114721c-.01-.006-.0187-.0125-.0292-.0181l-.7778-.5451.2038-.3382c.2977-.4912.0519-1.1897-.5465-1.5508l-.0006.0005c-.5799-.3515-1.2875-.2616-1.5998.1936-.0428-.1919-.1596-.3673-.3408-.4765l.0003-.0003c-.3308-.1995-.7599-.1102-.985.1956l-21.994-13.0317c-.5718-.3458-1.3218-.1607-1.6674.411l.0003-.0005c-.3458.5723-.1607 1.3223.4108 1.6685l21.9937 13.0308c-.1661.3422-.0462.7648.2834.9641h.0006c.1803.1097.3906.1315.5803.0799-.2574.4887-.008 1.1566.5723 1.5078.5972.3614 1.33.2539 1.6279-.237l.2038-.3385 1.4057.762 1.4361-.9972z"/><path fill="#a7a8aa" d="M42.01525 79.8208721c.2378-.2044.7228-.8124.972-1.0381v1.0381h-.972"/><path fill="#a7a8aa" d="M52.23695 79.8208721v-4.6437l1.425.4152v4.2285z"/><path fill="#a7a8aa" d="M50.10395 79.8208721v-3.5207h1.4156v3.5207z"/><path fill="#a7a8aa" d="M47.96125 79.8208721v-3.5207h1.4159v3.5207z"/><path fill="#a7a8aa" d="M45.81875 79.8208721v-4.2285l1.4253-.4246v4.6531z"/><path fill="#a7a8aa" d="M43.71405 79.8208721v-1.6988c.2446-.2679.722-.5806.991-.944l-.4623-.8305.8589-.4247v3.898h-1.3876"/><path fill="#a7a8aa" d="M55.76695 79.8208721v-1.6988c-.2446-.2679-.722-.5806-.9913-.944l.4627-.8305-.8589-.4247v3.898h1.3875"/><path fill="#a7a8aa" d="M41.57165 82.3031721v-1.7555h1.4156v1.7555h-1.4156"/><path fill="#a7a8aa" d="M43.71405 82.3031721v-1.7555h1.3876v1.7555h-1.3876"/><path fill="#a7a8aa" d="M45.81875 82.3031721v-1.7555h1.4253v1.7555z"/><path fill="#a7a8aa" d="M47.96125 82.3031721v-1.7555h1.4159v1.7555z"/><path fill="#a7a8aa" d="M50.10395 82.3031721v-1.7555h1.4156v1.7555z"/><path fill="#a7a8aa" d="M52.23695 82.3031721v-1.7555h1.425v1.7555z"/><path fill="#a7a8aa" d="m54.37945 82.3031721.0187-1.7555h1.3969v1.7555z"/><path fill="#a7a8aa" d="M56.52185 82.3031721v-1.7555h1.4159v1.7555z"/><path fill="#a7a8aa" d="m40.42185 79.8208721.1605-.2526.2849.2526z"/><path fill="#a7a8aa" d="m56.54025 79.8208721.0006-1.0384c.3396.3116.6528.6866.9547 1.0358l-.9553.003z"/><path fill="#a7a8aa" d="m58.59595 79.8208721.2276-.2441.1661.2452-.3937-.001z"/><g fill="#c8102e"><path d="M20.40135 26.4662721c.7362-2.1331 1.4723-4.2658 2.2088-6.3896 0-.4626-.1605-.4436-.576-.6701-1.0758-1.076.197-2.8355 1.4632-1.9255.8668.6233.5754 1.7084-.3966 2.1427-.1414.1698-.151.2265-.1321.4529.7268 2.1141 1.463 4.2378 2.1992 6.3616-1.5951.009-3.1808.0187-4.7665.028"/><path d="M24.08245 28.7314721c-.8218-.2206-.9346-.7455-1.0384-1.5384.7929.009 1.5954.019 2.3976.0377.2265.6134.2948.8652-.2171 1.2932-.1307.1091-.3107.1596-.4816.1888-.2231.038-.4508.0748-.6605.0187"/><path d="M20.84495 28.7314721c-.4473-.0907-.9059-.434-.9059-.9533.066-.1982.1321-.3869.1981-.5757.7835-.009 1.5764-.009 2.3689-.009-.0187.5757-.0745.9681-.519 1.3309-.1315.1074-.3104.1596-.4813.1888-.2234.038-.4479.0618-.6608.0187"/><path d="M25.68685 32.1953721c-1.3796-.3832-.991-1.6801-.991-2.9449.491-.1131.8305-.2925 1.1608-.6605h.057c.3583 1.0287.7171 2.0574 1.0757 3.0864v.1791c-.434.3209-.7841.4836-1.3025.3399"/><path d="M22.47805 32.1953721c-1.3624-.4153-1.0384-1.6894-1.0194-2.9449.6322-.1321.9437-.3206 1.3119-.8586.3963.5003.7172.7078 1.3306.8586.01.576.0935 1.1645.0286 1.7461-.0774.692-.3795 1.0075-1.0196 1.1798-.2095.0564-.4337.0794-.6321.019"/><path d="M19.20255 32.1953721c-.2497-.0459-.481-.1981-.6511-.3965.3682-1.0758.7458-2.1518 1.1231-3.2185.4249.3966.6514.5097 1.2081.6701 0 1.1801.3512 2.5279-.9813 2.9259-.2262.0675-.4757.0598-.6988.019"/><path d="M27.29125 35.6496721c-1.3581-.4243-.9907-1.6611-.9907-2.9353.3489-.0754.6038-.1887.9059-.3585.2642.6891.2642.6891 1.0761 3.0673-.01.038-.01.0757-.01.1134-.3208.0944-.657.2143-.9816.1131"/><path d="M24.08245 35.6496721c-.737-.0972-.9845-.6392-1.029-1.3779-.0309-.5182 0-1.0383.01-1.548.6605-.1604.9343-.3679 1.3496-.8683.4246.5477.6418.6702 1.2932.8589.009.5948.0187 1.1988.0283 1.8029-.2738.9626-.7154 1.2563-1.6517 1.1324"/><path d="M20.84495 35.6496721c-.6196-.0867-.9226-.4586-1.0003-1.0947-.0743-.6089 0-1.2271.009-1.8406.5851-.1227.9817-.3489 1.3215-.8589.4247.5571.6605.6702 1.3119.8589 0 .6231.112 1.2561 0 1.8689-.174.9513-.7444 1.1923-1.6424 1.0664"/><path d="M17.59815 35.6496721c-.1253-.0173-.2265-.1037-.3396-.1508 1.0761-3.0863 1.0761-3.0863 1.1231-3.143.2926.1794.5661.2738.8873.3585 0 1.2742.3577 2.4514-.9723 2.9166-.2225.0777-.474.0499-.6985.0187"/><path d="M28.99035 39.1136721c-1.3901-.4145-1.0854-1.6988-1.0854-2.945.1981-.047.3963-.0847.5947-.1224.3396 1.0003.6888 2.001 1.0381 3.0013-.0851.0848-.4119.1066-.5474.0661"/><path d="M25.78125 39.1136721c-.6911-.0777-.8589-.453-1.0854-1.1041v-1.8409c.6324-.1414.9249-.3395 1.3309-.8492.3679.4813.6794.7645 1.3025.8492 0 .6137 0 1.2272.009 1.8409-.2358.8966-.712 1.199-1.5573 1.1041"/><path d="M22.54375 39.1136721c-.6976-.1616-.8872-.4814-1.0947-1.1608 0-.5947 0-1.1798.01-1.7652.6228-.1511.9247-.3585 1.3213-.8682.3679.4907.7078.7268 1.3212.8492.019 1.1705.3308 2.4183-.8966 2.8979-.2109.0822-.4485.0961-.6608.0471"/><path d="M19.29725 39.1136721c-.6673-.1401-.8864-.4136-1.057-1.0664-.0958-.3663-.0284-.3776 0-1.8786.6227-.1224.9436-.3489 1.2929-.8492.0566.0283.2264.2642.604.604.2265.1131.472.1795.7172.2452.01.925.2954 1.8499-.3206 2.5767-.3396.4006-.756.4692-1.2365.3683"/><path d="M16.05985 39.1136721c-.009-.0284-.0187-.0567-.0187-.0754.3395-1.01.6794-2.0104 1.0286-3.011.3776.1134.3776.1134.5758.1414 0 .8592.2395 1.8023-.2832 2.511-.3328.451-.7739.415-1.3025.434"/><path d="m18.23055 42.7946721-.028-2.7467-2.492-.0188c.0377-.151.0851-.3021.1321-.4436.6795.0471 1.2889.0544 1.8029-.4436.1125-.1094.1794-.2548.2735-.3776h.0567c.3209.8022 1.4145.9729 2.1424.8022.4825-.1128.7362-.3963 1.0287-.7832.1324.0564.2486.345.3589.4246.8884.6432 2.2841.5948 2.8596-.4436.0663.0284.006.0788.2455.3022.8926.8323 2.2935.7926 2.9922-.3022h.0658c.3115.7929 1.3118.8873 2.0483.8399l.1508.4249h-2.5104v2.7655h-1.8405l-.019-2.7655-5.4176.0188-.0283 2.7467z"/><path d="M14.48375 44.3990721v-3.6527h3.02v2.7748h3.2752v-2.7748h4.0303v2.7748h3.2655v-2.7748h2.992v3.6527h-16.583"/><path d="M77.05965 96.4321721c-.01-1.0194-.01-2.0293-.01-3.0393 2.4446-.009 4.8892-.009 7.3432-.009-.01 1.01-.019 2.02-.019 3.0297-2.4446 0-4.8796.01-7.3146.019"/><path d="M69.00875 96.4321721c-.009-1.0194-.0187-2.0387-.0284-3.0487h7.3619c-.009 1.01-.0187 2.02-.0281 3.0297-2.4352 0-4.8702.01-7.3054.019"/><path d="M64.10085 96.4321721c-.009-1.0194-.019-2.0293-.019-3.0393 1.3875-.009 2.7748-.009 4.1717-.009v3.0487h-4.1527"/><path d="M60.79735 96.4321721v-3.0487h2.5767c-.009 1.0006-.0187 2.0103-.0284 3.0203-.8492.009-1.6988.019-2.5483.0284"/><path d="M15.11615 96.4321721c-.01-1.0194-.019-2.0387-.0286-3.0487 2.4446 0 4.8892 0 7.3335.009v3.0393h-7.3049zm8.0507 0c-.009-1.0194-.019-2.0387-.0284-3.0487h7.3619l-.0187 3.0487zm-9.561 2.4539c0-.0283.009-.0567.019-.0847.4246-.557.8589-1.1138 1.2929-1.6614h15.7527c1.2268 1.5857 1.2268 1.5857 1.3119 1.7461zm-.3776 5.0307v-4.3416h19.1316v4.3416zm22.8691 0v-3.0203h2.5861v3.0203zm-3.0203 0v-3.0203h2.3312v3.0203zm0-3.7378c0-.3586.038-.8303-.0754-1.1701-1.3779-1.8122-1.3779-1.8122-1.3969-1.8879.6888.01 1.3779.019 2.0764.0286.009 1.01.0189 2.0197.0283 3.0294zm1.3592 0v-3.058h4.2472v3.058zm-3.2091-3.7468v-3.0487c1.3782 0 2.7655.009 4.1528.019v3.0297zm4.9079 0c-.0187-1.0194-.0283-2.0387-.0377-3.0487h2.5861v3.0487zm-1.6988-3.7752v-3.0203h4.2472v3.0203zm-3.2091 0v-3.0203h2.4823v3.0203zm-4.0961 0v-3.0203h3.3693v3.0203zm-7.9565 0v-3.0203h7.2391v3.0203zm-4.087 0v-3.0203h3.3602v3.0203zm0-3.7471v-3.0203h7.3621v3.0203zm8.0509 0v-3.0203h7.3619v3.0203zm8.0887 0v-3.0203h4.1811v3.0203zm4.8702 0v-3.0203h2.5861v3.0203zm-1.6611-3.7375v-3.0203h4.2472v3.0203zm-3.2091 0v-3.0203h2.4823v3.0203zm-4.0961 0v-3.0203h3.3693v3.0203zm-2.4916 0v-3.0203h1.7742v3.0203zm-5.4649 0v-3.0203h1.7271v3.0203zm-4.087 0v-3.0203h3.3602v3.0203zm0-3.7471v-3.0484h5.8141v3.0484zm9.5519 0v-3.039h5.8422c0 1.0099.009 2.0196.0187 3.039zm6.5877 0v-3.0484h5.2855c-.5097 1.0003-.9437 1.982-1.3212 3.0484zm3.2091-3.7752v-3.0203c1.1327 0 2.2652 0 3.3976.01-.3115.3898-1.5293 1.4511-1.2078 1.8876.2358.1792.4719.3586.7171.5474l-.3869.5757h-2.52zm-3.2091 0v-3.0203h2.4823l-.0283 3.0203zm-4.0961 0v-3.0203h3.3693l-.0283 3.0203zm-7.9565 0v-3.0203h7.2391v3.0203h-1.7742c-.3305-1.095-1.2178-1.6424-2.3505-1.4346-.7739.2832-1.0664.6794-1.3496 1.4346zm-4.0584 0c-.01-1.0193-.019-2.0103-.0286-3.0203h3.3602v3.0203zm-.0286-3.7471v-3.0203h7.3621v3.0203zm16.1396 0v-3.0203h7.0126v3.0203zm-8.0887 0v-3.0203h7.3619v3.0203h-7.3619"/><path d="M60.79735 100.1789721v-3.058c1.4159.01 2.8315.019 4.2474.0286v3.0013c-1.4159.009-2.8315.0188-4.2474.0281"/><path d="M64.07245 103.9167721v-3.0203h2.3219v3.0203h-2.3219"/><path d="M60.79735 103.9167721v-3.0203h2.5767v3.0203h-2.5767"/><path d="M71.49105 35.6496721c-.1134-.0127-.1982-.0847-.2926-.1227-.009-.0377-.009-.0658-.009-.0941 1.0097-2.926 1.0097-2.926 1.0851-3.077.2928.1794.557.2644.8872.3585 0 1.0007.332 2.6431-.972 2.9166-.231.0485-.4731.0445-.6984.0187"/><path d="M69.98075 39.1136721c-.0187-.0284-.0377-.0471-.0471-.0661.3399-1.0003.6891-2.001 1.0384-3.0013.1981.0377.3962.0754.5947.1224 0 1.1328.3019 2.3786-.925 2.8979-.2268.009-.4439.0281-.661.0471"/><path d="M76.43665 39.1136721c-1.4409-.2501-1.1041-1.6611-1.0854-2.926.6134-.1511.9343-.3492 1.3212-.8682.0567.0283.0567.0283.3212.4059.3209.1981.6134.3963 1.0003.4433.01.5948.019 1.0143.0284 1.6087-.2359.9533-.6999 1.4899-1.5857 1.3363"/><path d="M68.41405 44.3990721v-3.6527h2.9826v2.7748h3.2751v-2.7748h4.03v2.7748h3.2658v-2.7748h3.0204v3.6527zm3.7094-1.6044v-2.7655h-2.5203c.0473-.1417.0947-.2831.1514-.4249.6417.0474 1.8309-.047 2.0574-.8399h.0567c.4529.7552 1.2815 1.0066 2.1424.8022.453-.1074.7645-.3869 1.029-.7738.0187-.009.047-.0187.0754-.0284.3679.925 1.6942 1.0171 2.4823.6798.1423-.061.2712-.1488.3775-.2645.3229-.3515.2926-.3776.3396-.3963.5947.7739 1.3102 1.0378 2.2748.7549.4578-.1344.6605-.3963.906-.7739h.066c.3872.7739 1.2932.925 2.0764.8212.038.1415.0757.2926.1227.4436-.8305 0-1.6611.009-2.4916.0188-.009.9155-.019 1.8311-.019 2.7467h-1.8309c-.009-.9156-.019-1.8312-.0283-2.7467-1.8026-.009-3.6054-.0188-5.4083-.0188-.009.906-.019 1.8216-.0283 2.7372-.6134.009-1.2269.0187-1.8309.0283zm10.7597-3.681c-1.4266-.4502-1.057-1.6424-1.057-2.945.1885-.047.3869-.0941.5851-.1414.991 2.9166.991 2.9166 1.01 3.0674-.1795 0-.3671.0728-.5381.019zm-3.2091 0c-.6301-.1358-.9439-.4814-1.0854-1.1328v-1.7932c.6702-.1791.8966-.3492 1.3309-.8682.3679.4813.6888.7645 1.3119.8492.009.963.335 2.5597-.8966 2.8979-.2188.0598-.4482.093-.6608.0471zm-1.6988-3.464c-.6638-.1896-.8787-.4255-.9912-1.0664-.1075-.6134 0-1.2458 0-1.8689.5853-.1227.9626-.3679 1.3025-.8589.3682.4814.7174.7362 1.3308.8589 0 1.2272.3612 2.4991-.9816 2.9166-.2163.0672-.4518.0785-.6605.0187zm3.2372 0c-1.3601-.3909-1.0193-1.7271-1.0193-2.9259.3208-.0848.604-.2169.9062-.3679.1414.3115.1414.3115 1.1041 3.143-.2642.1792-.6917.237-.991.1508zm-1.6328-3.4543c-1.3623-.3665-.991-1.7365-.991-2.9449.5284-.1131.8589-.3302 1.2459-.6795.3586 1.0664.7174 2.1331 1.0854 3.2091-.368.4437-.8113.5573-1.3403.4153zm-6.4839 0c-.2415-.0125-.4615-.1567-.6137-.3399-.0607-.0725.019-.1887.0283-.2735.3492-1.0006.6985-2.001 1.0477-2.992h.0567c.3396.4247.6607.5284 1.1608.6605v1.8405c-.2172.9723-.8124 1.1489-1.6798 1.1044zm1.6421-3.4639c-.4439-.1109-.9063-.434-.9063-.9533.0664-.1885.1321-.3679.1985-.5474.8022-.0187 1.6044-.0283 2.4066-.0377-.0848.7929-.2293 1.3099-1.0381 1.5197-.2194.0567-.4501.0714-.6607.0187zm3.2374 0c-.8628-.1814-.9346-.7362-1.01-1.5384.7835 0 1.5761 0 2.369.009.066.1794.1321.3682.2077.557 0 .8589-.9663 1.0984-1.5667.972zm-3.681-2.2652c.7361-2.1331 1.4723-4.2658 2.2084-6.3896v-.2925c-.2075-.1794-.481-.2713-.6604-.4626-.5502-.5856-.5004-1.4584.2075-1.8782.9691-.5746 1.8541.1709 1.8121 1.2174-.005.1404-.0649.2792-.1414.3966-.2659.4056-.9062.5097-.8589 1.0193.7362 2.1238 1.4723 4.2565 2.2178 6.3896zm2.0763 5.7291c-1.3694-.2613-1.038-1.7084-1.0193-2.9259.6231-.1794.9533-.3586 1.3499-.8776.3208.5474.7265.6888 1.3118.8586 0 .5854.1007 1.1872.009 1.7745-.1559 1.002-.7053 1.351-1.6518 1.1704zm-1.6327 3.4543c-1.3612-.3716-1.01-1.6988-.991-2.9259.3019-.0848.5757-.1885.8589-.3302.1511-.1795.3019-.3586.4623-.5381.4436.5758.6418.6702 1.3215.8589.009.8873.2741 1.9262-.3682 2.6051-.3566.377-.7826.4671-1.2835.3302zm-1.548 3.464c-1.4664-.2946-1.0664-1.6705-1.0477-2.945.5853-.1224.9629-.3679 1.3025-.8492.4436.5097.6798.6794 1.3309.8492v1.8409c-.3022.9059-.7056 1.2807-1.5857 1.1041"/><path d="m16.24865 46.4094721-1.2269-1.2836h15.5259c-.4059.4153-.8118.8496-1.2081 1.2646-4.3699 0-8.7304.01-13.0909.019"/><path d="M23.18835 49.8450721v-2.7088h5.9244v2.7088h-5.9244"/><path d="M16.46575 49.8450721v-2.7088h6.0052v2.7088h-6.0052"/><path d="M27.12235 53.2993721v-2.7372c.4433.009 1.5094.019 1.9624.0284.009.8966.0187 1.8025.028 2.7088h-1.9904"/><path d="M19.22445 53.2993721v-2.7372h7.171v2.7372h-1.7467c0-.972-.1417-1.5951-1.0099-2.1518-1.2649-.491-2.1615.0377-2.6618 1.1798-.0564.4056-.0564.4056-.0754.972h-1.6772"/><path d="M16.46575 53.2993721v-2.7372h2.0412v2.7372h-2.0412"/><path d="M24.67715 56.7629721c-.01-.9153-.019-1.8309-.0284-2.7368h4.464c-.009.9059-.0187 1.8119-.0187 2.7181-1.4723 0-2.9449.009-4.4169.0187"/><path d="M16.46575 56.7629721v-2.7368h4.4359v2.7368h-4.4359"/><path d="M27.12235 60.1891721v-2.7371c.4433.01 1.5094.019 1.9624.0284.009.8966.0187 1.8028.028 2.7087h-1.9904"/><path d="M19.22445 60.1891721v-2.7371h1.6772l.0284 1.2365h3.7187c0-.4156.009-.8022.0187-1.2081h1.6997c.009.8966.0187 1.8028.0283 2.7087h-7.171"/><path d="M16.46575 60.1891721v-2.7371c.8495.01 1.154.019 2.0129.0284.009.8966.019 1.8028.0283 2.7087h-2.0412"/><path d="M24.99775 65.0971721v-3.2656h-1.8094v-.9156h5.9244v.9156h-1.5383v3.2656h-2.5767"/><path d="M17.16395 65.0971721v-3.2656h-.6982v-.9156h6.0052v.9156h-2.7301v3.2656h-2.5769"/><path d="M70.14145 46.4094721c-.4156-.4247-.8212-.8496-1.2271-1.2649 5.1817-.009 10.3634-.0187 15.5449-.0187-.1511.1982-.1511.1982-1.2175 1.2646-4.3699 0-8.7398.01-13.1003.019"/><path d="M59.22125 53.6768721c-.604-.1981-1.1894-.6324-1.1044-1.3685.9063 1.057 1.0571 1.1985 1.1515 1.3402-.0187.009-.0377.0187-.0471.0283"/><path d="M55.98385 53.6768721c-.8499-.0793-.9817-.5947-1.1231-1.4159 0-.3679 0-.7265.009-1.0854h2.2842c.1321.1511.2642.3022.3966.4627 0 1.2458-.1562 2.1699-1.567 2.0386"/><path d="M52.77495 53.6768721c-1.3725-.2279-1.1137-1.3025-1.1327-2.5106h2.6708c-.009.472-.0187.9439-.0187 1.4159-.2265.8682-.6987 1.2305-1.5194 1.0947"/><path d="M49.53755 53.6768721c-1.3218-.3492-1.1137-1.3118-1.1324-2.5106h2.6991c0 .9626.163 2.1554-.972 2.4633-.1916.0519-.4022.0978-.5947.0473"/><path d="M46.29075 53.6768721c-1.3297-.2437-1.076-1.2931-1.0947-2.5106h2.6708c-.009.453-.0188.9156-.0188 1.3782-.2454.868-.6936 1.2906-1.5573 1.1324"/><path d="M43.08165 53.6768721c-1.15-.2854-1.0947-.9723-1.1231-2.0386.1227-.1605.2548-.3116.3869-.4627h2.2935c0 1.1141.1832 2.0401-.9532 2.454-.1954.0711-.4108.0952-.6041.0473"/><path d="M40.22205 53.6768721c.3869-.4626.7739-.9156 1.1608-1.3685 0 .5663-.2171.8682-.6418 1.2268-.1794.0473-.3492.0944-.519.1417"/><path d="M60.82565 57.1405721c-.7747-.1726-.9626-.5661-1.1231-1.3212 0-.5474.009-1.0854.019-1.6234.7359.8495 1.4723 1.699 2.2179 2.5577-.0944.3869-.8187.4526-1.1138.3869"/><path d="M57.58855 57.1405721c-.6259-.1542-.944-.4811-1.0854-1.1325-.01-.6134-.019-1.2174-.019-1.8215.6607-.1604.9343-.3586 1.3402-.8683.4623.5851.6324.6605 1.3402.8683-.009.6134-.019 1.2268-.019 1.8499-.1698.6418-.4425.9247-1.0851 1.0854-.1559.0388-.3254.055-.4719.0187"/><path d="M54.37945 57.1405721c-1.5007-.2529-1.1138-1.5951-1.1328-2.954.6231-.1417.9063-.3209 1.3119-.8212.0286 0 .0567 0 .085.009.3493.5193.7175.6794 1.3119.8118-.009.5757-.0187 1.1514-.0187 1.7271-.2268.9343-.6602 1.3783-1.5573 1.2269"/><path d="M51.14195 57.1405721c-.6959-.1083-.8495-.4434-1.0947-1.0664-.0284-.3776-.0284-.3776-.0284-1.8782.7078-.1888.906-.3493 1.3499-.887.3679.5097.7078.7549 1.3399.8776 0 .9439.1417 1.8122-.3869 2.605-.3869.2926-.7027.4233-1.1798.349"/><path d="M47.89545 57.1405721c-1.4375-.4008-1.0763-1.6608-1.095-2.954.6607-.1604.9249-.3399 1.3305-.8776.491.5851.6325.6698 1.3499.887 0 1.0947.3022 2.4899-.9533 2.8975-.2063.0669-.4314.1032-.6321.0471"/><path d="M44.68635 57.1405721c-.8002-.0944-.9252-.4907-1.1137-1.2269-.01-.5757-.019-1.1514-.019-1.7271.6324-.1324.9156-.3209 1.3118-.8212.0284 0 .0567 0 .0851.009.3396.5003.7361.6891 1.3118.8118-.009.5851-.0187 1.1704-.0187 1.7555-.2361.8966-.6465 1.3059-1.5573 1.1985"/><path d="M41.44885 57.1405721c-.6644-.1718-.8682-.453-1.0854-1.1041-.009-.6231-.0189-1.2365-.0189-1.8499.6324-.1511.9249-.3586 1.3402-.8683.3492.5661.7268.6982 1.3405.8683-.01.6041-.019 1.2081-.019 1.8215-.1982.6891-.4397.9295-1.0854 1.1138-.1542.0439-.3254.0567-.472.0187"/><path d="M38.23975 57.1405721c-.2452-.0754-.4436-.1605-.6701-.2829 0-.3966 1.8406-2.2465 2.2085-2.6617 0 1.1797.3212 2.3785-.9437 2.8975-.1981.009-.3965.0284-.5947.0471"/><path d="M62.43035 60.6044721c-1.4689-.2633-1.076-1.6421-1.095-2.9636.1511-.0377.3115-.0754.472-.1134.151-.0754.3682-.2735.538-.2735.5473.6417 1.0947 1.2835 1.6517 1.9349-.0663 1.0477-.6273 1.584-1.5667 1.4156"/><path d="M59.19295 60.6044721c-1.4378-.3518-1.0854-1.6988-1.1044-2.9636.6137-.1321.9626-.2925 1.3119-.8306h.0756c.3776.491.6889.7269 1.3213.8306 0 1.0006.2486 2.0234-.519 2.7088-.3053.2727-.6909.3515-1.0854.2548"/><path d="M55.98385 60.6044721c-.7906-.1556-1.0097-.604-1.1231-1.4156-.009-.5193-.009-1.0383-.009-1.548.6888-.1604.906-.3396 1.3683-.8683.4059.5474.6798.7172 1.3405.8683 0 .9816.2339 1.9176-.4343 2.6521-.2976.3271-.7157.3954-1.142.3115"/><path d="M52.74635 60.6044721c-1.4757-.2755-1.0851-1.6327-1.1041-2.9636.6324-.1037.972-.3492 1.3309-.8589.3776.4907.7172.7455 1.3399.8589-.009.6134-.0187 1.2365-.0187 1.8595-.2358.8776-.7115 1.26-1.548 1.1041"/><path d="M49.53755 60.6044721c-1.4941-.3733-1.1137-1.6234-1.1324-2.9636.6321-.1414.9059-.3019 1.3118-.8116.0187-.01.0377-.019.0658-.019.4153.5287.6891.7079 1.3215.8306 0 .9439.2571 2.056-.5193 2.7088-.3002.2526-.6718.3486-1.0474.2548"/><path d="M46.29075 60.6044721c-1.4851-.2738-1.076-1.6234-1.0947-2.9636.6604-.1604.8869-.3586 1.3305-.8589.3966.5287.6891.7362 1.3403.8589-.009.6041-.0188 1.2178-.0188 1.8312-.2454.8869-.7021 1.29-1.5573 1.1324"/><path d="M43.05325 60.6044721c-1.4312-.4223-1.0853-1.6704-1.1043-2.9636.642-.1037.9819-.3586 1.3405-.8683.4152.5287.7078.7362 1.3683.8683-.009 1.2932.2953 2.5517-1.1325 2.9446-.1545.0428-.3268.0618-.472.019"/><path d="M39.84445 60.6044721c-1.4921-.269-1.114-1.6611-1.1327-2.9636.3682-.0848.6511-.1604.9626-.3869.1228-.1511.2552-.387.4343-.4437.3209.5381.7175.6985 1.3119.8306-.009.5947-.019 1.1894-.019 1.7932-.2171.8966-.7106 1.3229-1.5571 1.1704"/><path d="M36.60705 60.6044721c-.7407-.0898-1.1421-.6417-1.0854-1.4629.538-.6324 1.0854-1.2646 1.6327-1.8876.1511 0 .387.2077.5381.2735.1604.038.3208.0757.4813.1134-.009.6134-.0187 1.2365-.0187 1.8595-.2645.8683-.7036 1.2065-1.548 1.1041"/><path d="M79.76845 65.0971721v-3.2656h-2.7385v-.9156h5.976v.9156h-.6608v3.2372c-.8492.009-1.7274.019-2.5767.0284"/><path d="M71.93465 65.0971721v-3.2656h-1.5477v-.9156h5.9162v.9156h-1.7918v3.2656zm-1.5477-8.3342c-.019-.9153.009-1.8309 0-2.7368h4.4453c-.009.9059-.019 1.8119-.0284 2.7181-1.4723 0-2.9542.009-4.4169.0187zm2.5483 3.4262c0-.9059-.009-1.8121 0-2.7087h1.8686l.0284 1.2364h3.7091c.01-.4152.019-.8305.0284-1.2364.3775.009 1.32-.009 1.707 0 .009.8966.0187 1.8028.0283 2.7087zm8.0589 0c0-.9059.009-1.8121.0187-2.7087.8496-.009 1.1339.009 1.9931 0v2.7087zm-2.4244-3.4262v-2.7368h4.4362v2.7368zm-5.6532-3.4636c0-.9063.009-1.8122.0187-2.7088h7.3415v2.6804c-.387.009-1.3295.0187-1.707.0284-.0284-.972-.1792-1.6895-1.0948-2.1895-1.3788-.4431-2.6297.3367-2.6416 1.7801-.001.1355-.001.2727-.001.4094h-1.9157zm8.0776 0c0-.9063.009-1.8122.0187-2.7088.8496-.009 1.1339.009 1.9931 0v2.7088zm-10.6072 0c.009-.9063-.01-1.8122 0-2.7088h1.8028c.009.8966.0187 1.8025.0281 2.7088zm0-3.4543v-2.7088h5.8756v2.7088zm6.6024 0v-2.7088h6.0166v2.7088zm-6.6024 10.3441v-2.7087h1.8028l.0281 2.7087z"/><path d="M32.83155 65.0971721c0-.9437.01-1.8783.019-2.8126.8495-1.01.8495-1.01 1.01-1.1611.5567-.1227 1.0477-.3302 1.3309-.8682.0187 0 .0377.01.0657.019.6421.9626 1.8972 1.1066 2.8035.4436.1567-.1151.2548-.4059.434-.4626.0473.1981.2225.3974.3963.5097.9555.6182 2.1427.4436 2.7938-.5381.5947.8306 1.2019 1.012 2.152.8306.4958-.0944.7833-.3679 1.0381-.8022h.0663c.5001.8305 1.2736.9541 2.1424.8022.4879-.0853.7549-.434 1.0571-.8209.6417.8869 1.5344 1.11 2.5293.6888.3065-.1295.5004-.4056.6798-.6888.8399 1.1324 2.3972 1.1891 3.2184.0187h.0661c.6511 1.029 1.9672 1.1191 2.8692.4059.1437-.1137.2075-.2925.3209-.4343.7835 1.1608 2.4163 1.1988 3.1901.0284.019 0 .0377.01.0661.019.7551 1.1327 2.4162 1.1041 3.1714 0 .0187-.009.0377-.019.066-.019.2075.5193.8118.7645 1.3215.8589.3303.3869.6605.7738 1.0001 1.1704.01.9343.0193 1.8689.038 2.8126h-2.5767v-3.2656h-5.2195v3.2656h-2.586v-3.2656h-5.2478v3.2656h-2.586v-3.2656h-5.2478v3.2656h-2.5861v-3.2656h-5.2194v3.2656h-2.5767"/><path d="M12.63355 67.7114721v-5.1627h3.8322v3.2752h4.0017v-3.2752h3.8038v3.2752h4.03v-3.2752h3.8038v3.2752h3.9923v-3.2752h3.8415v3.2752h3.9923v-3.2752h3.8129v3.2752h4.021v-3.2752h3.8128v3.2752h3.9926v-3.2752h3.8413v3.2752h3.9926v-3.2752h3.8035v3.2752h4.03v-3.2752h3.8038v3.2752h4.002v-3.2752h3.8035v5.1627h-74.2136"/><path d="M14.86135 70.1654721c-.5664-.5757-1.1327-1.1421-1.6898-1.7084h73.1282c-.5663.557-1.1231 1.1137-1.6801 1.6801-23.256.01-46.512.0189-69.7583.0283"/><path d="M60.48605 73.5256721c-.2548-.2361-.206-.3064-1.8028-1.3689-.7489-.498-.7552-.1037-1.2271.6608-1.444-.7362-2.8409-1.3402-4.4263-1.7082.009-.0754.0187-.1511.0283-.2267h7.4843v2.643h-.0564"/><path d="M38.92885 73.5633721v-2.6807h7.5223c.009.0756.0187.1513.0284.2267-1.5764.368-2.9597.9828-4.4036 1.719-.2846-.3841-.3819-.6432-.5894-.8507-.1037-.0377-.1037-.0377-.2925-.0377-.8022.4623-1.529 1.057-2.2652 1.6234"/><path d="M77.03135 73.9029721v-3.0203h7.3619v3.0203h-7.3619"/><path d="M68.98035 73.9029721v-3.0203h7.3619v3.0203h-7.3619"/><path d="M61.24095 73.9029721v-3.0203h7.0126v3.0203h-7.0126"/><path d="M48.08395 75.5263721c-.3019-1.548-.6038-3.0957-.906-4.6437h5.1534l-.8969 4.6437z"/><path d="M55.66665 75.7664721c-1.0667-.6134-2.1274-.9763-3.2976-1.2972.1698-.8872.3396-1.7744.519-2.6521.0754-.009.0754-.009 1.0194.2455 1.0947.3773 2.152.8022 3.1618 1.3683z"/><path d="M43.80845 75.7341721c-.4626-.7645-.925-1.5197-1.3779-2.2748.066-.0754.066-.0754 1.01-.5758 1.0287-.4339 2.0667-.8869 3.1807-1.0664.1602.8777.3206 1.7649.4904 2.6521-.7642.1982-1.5004.472-2.2462.7456-.8872.4626-.8872.4626-1.057.5193"/><path d="M73.06705 77.6783721v-3.0486h7.2394v3.0486c-.5947-.01-1.1894-.0189-1.7744-.0283-.5854-1.6801-2.388-2.0103-3.4543-.5854-.0851.1891-.1701.387-.2455.5854-.5947.009-1.1798.0187-1.7652.0283"/><path d="M69.00875 77.6783721c-.009-1.0193-.0187-2.0386-.0284-3.0486h3.3602v3.0486zm4.0583 7.494v-3.0203h1.7652c-.009.991-.019 1.9916-.0284 2.9919-.5853.009-1.1608.0188-1.7368.0284zm5.5027 0v-3.0203h1.7367v3.0203zm2.4539-7.494v-3.0486h3.3696c-.01 1.0003-.019 2.0103-.0284 3.0203-1.1137.009-2.2275.0187-3.3412.0283zm-2.4539 3.7469v-3.0484h5.8235v3.0484zm2.4539 3.7471v-3.0203h3.3696v3.0203zm-3.9923 3.7375v-3.0203h7.3619v3.0203zm3.9923 3.7471v-3.0203h3.3696v3.0203h-3.3696"/><path d="M65.79965 77.6783721c-.009-1.0193-.0187-2.0386-.0281-3.0486h2.482v3.0486h-2.4539"/><path d="M62.56245 77.6783721c-.1414-.1981-.2738-.3965-.4059-.585.3586-.2835.8419-.5752.714-.8717-.2134-.4955-.242-.4972-1.186-1.5729h3.3696v3.0107c-.8306 0-1.6611.009-2.4917.0189"/><path d="M41.44885 79.2828721c-3.8225-2.8786-3.8225-2.8786-4.0113-3.0487 0-.2736 1.0951-1.2835 1.3025-1.5007.2736-.2548 2.1518-2.0197 2.4634-1.9159.8778 1.4442 1.7651 2.8882 2.652 4.3415-.8776.6421-1.6044 1.2932-2.3312 2.105-.0139.0151-.0241.0338-.0337.0434-.023-.0113-.0249-.0144-.0417-.0246"/><path d="M57.99415 79.3205721c-.7747-.9386-1.7915-1.7201-2.355-2.1651l2.6665-4.3379c.5539 0 3.6241 2.8573 3.7565 3.4262-1.3592 1.0194-2.7181 2.0481-4.068 3.0768"/><path d="M68.98035 81.4252721c0-1.0097.01-2.0197.019-3.0297h5.8045v3.0013c-1.9443.01-3.8885.019-5.8235.0284"/><path d="M64.31795 81.4252721c-.2548-.8399-.5882-1.6642-.991-2.435-.2585-.4949-.1888-.3866-.3305-.6134h5.2571v3.0484h-3.9356"/><path d="M60.67455 81.4252721c-.3585-.7552-.7361-1.51-1.2172-2.1991l-.0379-.0675 2.1424-1.6313c.9156 1.095 1.5386 2.5577 2.001 3.8979h-2.8883"/><path d="M35.94625 81.4263721c.4626-1.4065 1.1611-2.6436 1.9633-3.8897.0564 0 .0564 0 2.1331 1.5764-.1282.2542-.3952.6786-.5287.9155-.2443.4337-.453.9446-.6795 1.3978z"/><path d="M68.98035 85.1723721v-3.0203h3.3602v3.0203h-3.3602"/><path d="M65.77155 85.1723721v-3.0203h2.482v3.0203h-2.482"/><path d="M60.79735 85.1723721v-3.0203h4.2755c-.009.991-.0187 1.9916-.0281 2.9919-1.4159.009-2.8315.0188-4.2474.0284"/><path d="M68.98035 88.9098721v-3.0203h7.3619v3.0203h-7.3619"/><path d="M64.07245 88.9098721v-3.0203h4.1811v3.0203h-4.1811"/><path d="M60.79735 88.9098721v-3.0203h2.5767v3.0203h-2.5767"/><path d="M73.06705 92.6569721v-3.0203h7.2394v3.0203h-7.2394"/><path d="M68.98035 92.6569721v-3.0203h3.3602v3.0203h-3.3602"/><path d="M65.77155 92.6569721v-3.0203h2.482v3.0203h-2.482"/><path d="M60.79735 92.6569721v-3.0203h4.2755v3.0203h-4.2755"/><path d="M65.77155 100.1789721c0-1.0097.009-2.0194.0187-3.0294.6891-.01 1.3876-.019 2.086-.0286-.4719.6324-1.114 1.3215-1.4629 2.02-.009.3398-.019.6891-.019 1.038h-.6228"/><path d="M33.07705 100.1789721c0-.3586.038-.8303-.0754-1.1701-1.3779-1.8122-1.3779-1.8122-1.3969-1.8879.6888.01 1.3779.019 2.0764.0286.009 1.01.0189 2.0197.0283 3.0294h-.6324"/><path stroke="#000" stroke-miterlimit="22.9256" stroke-width=".6517" d="M11.51415 104.2787721h76.4901v3.5316h-76.4901z"/><path stroke="#000" stroke-miterlimit="22.9256" stroke-width=".65" d="M10.30835 107.8103721h78.902v3.5317h-78.902z"/><path d="M13.22825 103.9167721v-4.3416h19.1316v4.3416h-19.1316"/><path d="M67.12115 103.9167721v-4.3416h19.1313v4.3416h-19.1313"/><path d="M13.60585 98.8860721c0-.0283.009-.0567.019-.085.4246-.5567.8589-1.1137 1.2929-1.6611h15.7527c1.2268 1.5857 1.2268 1.5857 1.3119 1.7461h-18.3765"/><path d="M67.49875 98.8860721c.0187-.085.0187-.085.1698-.3019.0944-.0756.0944-.0756 1.1327-1.4442h15.7617c.3776.5003 1.0854 1.1798 1.3122 1.7461h-18.3764"/></g><path d="M44.41225 92.9103721c.0195.1134.049.2296.0782.345.085.3362.1684.6641.0644 1.0358-.0908.3248-.2461.5777-.4011.83v.001c-.137.2225-.2739.4456-.3433.6948-.1032.3713-.0868.6482-.057 1.1503.01.1629.0207.3492.0303.5921.0003.007-.009.0802-.0116.0873-.1037.341-.2185.5607-.3263.7665-.1235.2364-.2366.4533-.299.8368-.0289.1789-.0281.4782-.0159.7829.002.0386.003.0766.005.1143.0578-.1185.1227-.2393.1973-.3643.2296-.3855.5448-.8076.993-1.3104.17-.1911.5366.0286.447.2692-.0995.2671-.1324.6171-.1199 1.0327.0133.4357.0771.9335.1678 1.478.0221.1312.0439.2625-.218.3061-.2622.0437-.284-.0876-.3058-.2188-.0956-.572-.1622-1.0942-.1761-1.5508-.002-.0771-.003-.1525-.002-.2265-.129.1746-.2382.3379-.3306.4929-.2072.3478-.3345.6594-.426.9751-.0369.1279-.0644.1503-.3189.0766-.0618-.0179-.1063-.0391-.1378-.0627-.216.004-.2369-.0144-.248-.138-.0201-.2186-.0473-.5508-.0595-.8527-.0134-.3288-.0125-.6624.0243-.8889.0766-.4714.2078-.7226.351-.9967.0918-.1757.1893-.3623.2758-.6324-.008-.195-.0193-.377-.0286-.5372-.0329-.5539-.0511-.8591.0779-1.3229.0913-.3271.2463-.5797.4014-.832v.001c.1363-.222.273-.4442.343-.6951.0658-.2353-.0006-.4972-.0686-.7656-.0318-.1247-.0638-.2512-.0865-.3844-.0224-.1312-.045-.2622.2172-.307.2619-.0448.2843.0865.3067.2177zm15.5296.144c-.0218-.1596-.0522-.3056-.0904-.4388-.1571-.5459-.4445-.8966-.7804-1.1024-.324-.1984-.699-.2673-1.0488-.25.1099.1196.2177.2477.3225.3849.4885.6407.9701 1.6923 1.3507 2.7788.0916.2614.1772.5253.2563.7864.0006-.7197-.002-1.4392-.01-2.1589zm.5309 4.6423c.0003.005.0006.0111.0009.0165.002.0428.005.0856-.002.1244-.001.1777-.002.3557-.004.5335-.0142 1.9341-.0286 3.8684 0 5.8025.002.1346-.1315.269-.2662.2693l-20.9097.0618c-.1338.0003-.2668-.1332-.2662-.267.002-.5123.005-1.0239.007-1.5347.0141-3.0705.0286-6.1197.0425-9.1894-.003-.0241-.005-.0493-.007-.0742-.0167-.2467-.0122-.4737.0102-.6829.001-.3217.003-.644.004-.9663.0003-.0377.0505-.1582.0771-.1851.4167-.4216.9051-.8791 1.3936-1.3363.4212-.3946.8427-.7894 1.2092-1.1523-.2588-.335-.4107-.703-.502-1.1117-.1057-.4726-.1287-.9814-.1468-1.5543-.004-.1287.1213-.2661.2494-.2744.2934-.0192.61-.0935.9318-.1692.9969-.2338 2.0418-.479 2.8749.523.2264-.561.7129-.809 1.3373-1.127.4454-.2271.9712-.4953 1.5058-.9624.1432-.125.3799-.0544.4303.129.0655.2369.1083.4702.1432.7373.005.0379.01.0765.0144.1162.4816-.5097 1.1529-.5735 1.8717-.6418.4088-.0385.8348-.0794 1.2308-.22.1659-.0589.3524.0718.3546.2475.004.3098-.0541.5638-.1488.7821.3297-.0947.6407-.1106.9638-.127.3759-.0193.7705-.0394 1.2268-.214.1679-.0641.3595.0672.3609.2463.002.3164-.076.6279-.2041.9363.3368-.1692.6973-.3027 1.0721-.4037.8161-.2194 1.699-.2846 2.5469-.2213.1491.0113.2704.1717.2401.3191-.11.5366-.1219.9352-.1318 1.2666-.0159.5417-.0278.9238-.3878 1.455.5853.4476 1.0735.8841 1.5111 1.4062.4893.5837.9128 1.272 1.3354 2.1992.005.01.025.0958.025.1068.002.15.004.2997.006.4493.0116.0887.0209.18.0275.2744.005.0678.009.1352-.023.1877.0119 1.4082.005 2.8168-.005 4.225zm-.5326.0261c-.0372-.5964-.2302-1.4893-.5151-2.4191-.0261.3455-.0697.6446-.1032.8402-.0328.1953-.2755.2877-.4291.1621-1.3672-1.1165-1.4315-1.65-1.5106-2.306-.055-.4572-.1185-.9844-.8337-1.9371-.0796-.1063-.1596-.2129.0525-.372.2123-.159.2919-.0524.3719.0539.8019 1.0687.8745 1.6707.9374 2.1926.0575.4785.1057.8773.9541 1.6458.0394-.3498.0675-.7914.0377-1.23-.028-.4124-.1074-.8163-.278-1.1194-.0326-.0575-.065-.1153-.0607-.1746-.2072-.4286-.4241-.805-.6406-1.0888-.18-.2361-.3711-.4424-.565-.6219-.0238-.0116-.0462-.0306-.0663-.0601-.2016-.1794-.4057-.3302-.6038-.4558-.5848-.3705-1.1032-.5159-1.3501-.5235-.133-.004-.2659-.008-.2577-.2744.008-.2662.1412-.262.2744-.258.3112.01.9425.1786 1.6183.6069.1845.1168.3736.2537.5618.4122.1324-.0312.2707-.0528.4113-.0624.3107-.0215.6418.0122.9607.1205-.0675-.0887-.1361-.1749-.2064-.2585-.4598-.5485-.9833-.9998-1.631-1.48-.0162-.0122-.0309-.0264-.0434-.0428-.1519-.1072-.3274-.2021-.5151-.2835-.2851-.1241-.5955-.2168-.8926-.2775-.1304-.0269-.2605-.0536-.2075-.3135.053-.2597.1831-.233.3135-.2064.3314.0678.6789.1718.9987.3107.1559.0678.3058.144.445.2291.2619-.4048.2716-.7164.2843-1.1532.009-.2849.0185-.6177.0888-1.055-.7016-.0261-1.4148.0416-2.0744.2191-.6736.1811-1.2918.4759-1.7842.9014-.1967.1698-.5374-.127-.3963-.3453.18-.2778.3453-.5558.4644-.8325.0567-.1315.102-.2619.1332-.3915-.3609.0896-.6775.1058-.9831.1216-.612.0312-1.1738.0601-1.9539.8091-.1908.1831-.5567-.1503-.3917-.3566.1003-.1259.212-.2418.3254-.3595.2486-.2579.5063-.5261.6046-.9136-.3237.0731-.6474.104-.9618.1338-.7996.076-1.5281.1454-1.8575 1.0253-.0882.2356-.489.182-.5125-.0689-.0329-.3518-.059-.6358-.0922-.8903-.0119-.0902-.0246-.1764-.0388-.2594-.4618.3472-.8949.568-1.2733.7608-.667.3402-1.1393.5808-1.1804 1.3431-.0133.2454-.3826.3293-.5.1122-.6848-1.2693-1.6954-1.0321-2.6524-.8073-.2579.0604-.5128.1202-.7605.1559.017.4516.0442.8564.1233 1.2098.0833.3719.2262.7013.481.9947.093-.0482.1894-.0941.2883-.1366.3972-.1709.8385-.2931 1.2898-.3269.1327-.01.2653-.0198.2852.2461.0195.2662-.1129.2764-.2455.2863-.3929.0295-.7759.1352-1.1197.2832-.3946.1698-.737.3931-.9848.6205-.0258.0238-.0518.0476-.0793.0663-.2512.2401-.5137.4859-.7762.7314-.0385.0362-.0771.0725-.1156.1088.1088-.0215.2183-.0357.3277-.0431.3002-.0204.6018.0111.8756.0797.1899-.1608.3807-.2994.5672-.4173.6758-.4283 1.3071-.597 1.6183-.6069.1329-.004.2662-.008.2744.258.008.2661-.1247.2701-.2577.2744-.2469.008-.7653.153-1.3501.5235-.1857.1177-.3762.2574-.565.4221-.0377.0777-.0827.1103-.1321.1193-.1848.1735-.3662.3714-.538.5964-.2168.2844-.4337.6608-.6409 1.0902.003.059-.0289.116-.0612.1732-.1707.3031-.25.707-.2781 1.1194-.0298.4386-.001.8802.0377 1.23.8484-.7685.8966-1.1673.9542-1.6458.0629-.5219.1355-1.1239.9374-2.1926.0799-.1063.1598-.2129.3719-.0539.212.1591.1321.2657.0524.372-.7149.9527-.7787 1.4799-.8337 1.9371-.0737.6112-.1349 1.1163-1.2495 2.0863.0913.01.1775.0621.2152.1577.0519.1312.0558.1411.0604.1522.1102.2735.2338.5802.3242.9195.1432-.2148.3136-.413.4845-.6117.2732-.3177.5485-.6381.6738-1.0057.0819-.2395.0536-.5006.0229-.7858-.0513-.4725-.1085-1.0009.2109-1.6954.0556-.121.1112-.2418.3524-.1318.2412.1103.1857.2313.1301.3521-.2582.5612-.2092 1.0139-.1655 1.419.0374.3458.0717.663-.0474 1.0122-.1584.4649-.4674.8241-.7738 1.1804-.315.3665-.6276.7302-.7056 1.1633-.07.3881.0187.8113.1823 1.2215.1706.428.4232.8388.6673 1.184.0768.1089.1536.2174-.0638.3702-.2172.1528-.294.0442-.3708-.0646-.0252-.0357-.0507-.0726-.0762-.1097.0195.0504.0133.1205-.0375.2248-.1165.2392-.2358.1805-.3554.1221-.3736-.1831-.9026-.5383-1.3133-.987-.3147-.3438-.565-.7472-.6392-1.1817-.1018-.5959.1752-1.1362.4904-1.7513.1442-.2815.2976-.5808.4192-.9008-.1508.07-.3458-.0221-.3753-.1959-.0332-.195-.0765-.4935-.1026-.8379-.2877.9391-.4822 1.8405-.5159 2.4363-.003.0426-.005.0848-.0156.1225-.008 1.6115-.0153 3.223-.0227 4.8402-.002.4218-.004.8438-.006 1.2668l20.3724-.0604c-.0236-1.8476-.01-3.695.004-5.5423.002-.2154.003-.4309.005-.6463zm-3.549-10.2436c-.3654.1009-.7106.2166-.9952.3555-.2583.1261-.4587.2667-.5627.4266-.0729.1114-.1454.2228-.368.0782-.2222-.1442-.1496-.2559-.0771-.3673.1628-.2498.436-.4505.775-.6157.313-.1528.6894-.2789 1.0868-.3886.1282-.0355.2563-.0709.3272.1848.0705.2557-.0576.2911-.186.3265zm-16.78 5.3048c-.004.8033-.007 1.605-.011 2.4057.0771-.2534.1604-.5091.2491-.7628.3807-1.0865.8623-2.1381 1.3508-2.7788.1063-.1391.216-.2692.3276-.3903-.1184-.0105-.2403-.0125-.3628-.004-.3129.0209-.6245.1088-.8836.2865-.2559.1755-.4665.4422-.5847.8244-.0389.1264-.0678.2661-.0854.4195zm1.4984 5.5667c.0156-.4763-.1006-.9159-.2392-1.3043-.0723.1506-.1463.2951-.2183.4354-.2727.5324-.5122.9998-.4405 1.4205.0547.3203.2548.6347.5083.9116.3628.3963.8265.7087 1.1534.8685.0448.0219.0896.0437.1219.0752-.2274-.3376-.4519-.7237-.6134-1.1285-.1412-.3541-.2345-.7237-.2416-1.0899-.0348-.0516-.0328-.1199-.0306-.1885"/><path d="M52.55385 99.2378721c-.0895.1619-.1953.3274-.3075.487-.1242.1766-.2591.3484-.3932.5037.4079.4606.5542.9749.6758 1.4202.008-.004.0116-.009.0125-.0162.0465-.4442.068-.8569.0669-1.2702-.0009-.3739-.0196-.7407-.0545-1.1245zm-4.8172-.1868c.0718.1247.1531.2537.2399.3818.0904.133.1851.2614.2786.3779.023-.0527.0456-.1106.0683-.1729.0627-.1724.1196-.3722.1684-.5732-.0723-.005-.146-.009-.2194-.013-.1383-.008-.277-.0159-.4408-.0338-.0309.0159-.0626.0264-.095.0332zm.5366 1.5687c-.2213.2653-.3347.553-.4186.8331.0842-.0227.1672-.0462.2517-.07h-.001c.0728-.0207.1465-.0423.2225-.0632.1151-.0394.227-.0737.3325-.0978-.0423-.0953-.0939-.1868-.1517-.2767-.0703-.1097-.1505-.2177-.2353-.3254zm.811-1.7768c-.0005.0128-.002.0247-.005.0372-.0621.309-.1502.6514-.2548.9394-.0556.1528-.1171.2917-.184.4062.1128.1411.2208.2823.3166.4314.1018.1588.1894.3249.2523.5074.1948-.008.4227-.0119.6494-.0119.2421 0 .4867.005.6894.0136.0629-.1831.15-.3501.252-.5091.0958-.1491.2038-.2903.3166-.4314-.0669-.1145-.1284-.2534-.1836-.4062-.1049-.288-.1928-.6304-.2552-.9394-.001-.006-.002-.0119-.002-.0179-.0219-.01-.0434-.021-.0635-.0326-.2943-.1692-.4261-.4371-.5448-.6786-.0752-.1531-.1412-.2871-.2075-.2871-.0667 0-.1324.134-.2075.2871-.1188.2415-.2506.5094-.5449.6786-.008.005-.0155.009-.0238.0133zm-.1128 2.8681c-.2021.0431-.3781.089-.5437.1352-.0768.0273-.1562.057-.2352.0865v.0009c-.298.1105-.5973.2216-.8538.2486-.3762.0396-.6429-.0743-.6874-.4958-.0496-.472-.072-.902-.0712-1.3241.001-.4209.0261-.8447.0712-1.3034.0569-.5757.7092-.5859 1.364-.5958.339-.005.6797-.0105.8266-.095.1553-.0893.2489-.2792.3328-.4501.1533-.3124.2882-.5865.6857-.5865.3974 0 .532.2741.6857.5868.0839.1706.1771.3605.3328.4498.1468.0845.4875.0899.8265.095.6548.01 1.3071.0201 1.3641.5958.045.4587.07.8825.0711 1.3034.0009.4221-.0215.8521-.0711 1.3241-.0445.4215-.311.5354-.6874.4958-.2563-.027-.5559-.1381-.8538-.2486v-.0009c-.2483-.0924-.4961-.1842-.6769-.2103-.1727-.025-.58-.0377-.9922-.0377-.3444 0-.6843.009-.8878.0263zm-1.7266-.0544c.006-.0232.0125-.0482.0193-.0743.1162-.4354.2427-.9082.6418-1.3555-.1279-.1519-.2549-.3206-.3722-.4932-.1321-.1945-.2548-.3988-.3566-.5933-.0408.4201-.0635.8167-.0646 1.222-.0009.4133.0201.8257.0671 1.2702.002.0184.027.0247.0652.0241zm4.8019-2.6064c-.0215-.002-.0448-.005-.0711-.009-.1922.0226-.3532.0246-.5142.0263-.0644.0006-.129.001-.1934.003.0482.199.1046.3963.1667.567.0233.0638.0465.1233.0703.1771.1038-.1244.2075-.2588.3047-.3971.0862-.1222.1664-.2466.237-.3676zm-.5618 1.5698c-.0848.1077-.1647.2157-.2353.3251-.049.0765-.0935.1539-.1318.2339.3045.0402.5511.1411.7878.2452-.0896-.2724-.2124-.5531-.4207-.8042"/><path d="M41.54695 102.8205721c.0006-.4895.0899-.758.2707-1.1662.15-.3387.3864-.5709.762-.5357.4232.0394.6607.3779.7942.7699.0579.1703.1803.8067.1832.9691-.1721-.1862-.5593-.3597-.9771-.3908-.4312-.0324-.847.1802-1.033.3537zm-.2069-1.3977c-.1381-.1517-.3362-.2583-.6228-.2878h-.001c-.9255-.0944-1.0865.7546-1.2458 1.5957-.0188.0995-.0377.1987-.0533.2744-.004.0178-.005.0354-.005.0532-.0901.1857-.1352.4131-.1831.6574-.0221.1125-.0453.2302-.0737.3368-.0431.1624.0904.3353.258.3353h2.0508c.0219 0 .0428-.003.0632-.008h1.8462c.0205.005.0417.008.0633.008h1.9726c.172 0 .3056-.1797.2557-.3447-.0219-.0723-.0357-.1585-.0505-.25v-.001c-.0286-.1763-.0601-.367-.1287-.5431.0363-.1505.0655-.3937.044-.5748-.0709-.593-.1707-1.427-.9896-1.5069h.001c-.0672-.007-.1253-.007-.1749-.003-.2494.0219-.4411.1401-.5845.3172-.2112-.4665-.5652-.8407-1.1571-.896-.6494-.0604-1.0443.3025-1.2852.8377zm2.7161 1.1894c-.0104-.1092-.0252-.2243-.0447-.3422.0272-.1369.0688-.2639.1267-.3662.0657-.1151.1553-.1945.2746-.205.0301-.002.0559-.003.0766-.0008h.001c.3824.0374.4564.6029.506 1.0174-.1341-.0616-.2996-.1044-.5054-.1205-.1696-.0136-.3127-.007-.4352.0173zm-2.9531-.3708c-.0275.1553-.0487.3127-.0643.4677-.1318-.0581-.2934-.0986-.4927-.1142-.2015-.0162-.3688-.01-.5088.0144.1043-.5204.2404-.9833.6264-.9436h-.0008c.2806.0286.3898.2834.4402.5757zm.0363 1.6115-1.393.0003c.002-.0119.005-.0236.007-.0352.0803-.4076.1449-.7367.7509-.6885.5108.0405.5837.4107.635.7234zm2.09-.007h-1.4604c0-.001.0003-.002.0005-.003.1106-.4702.2087-.8855.7708-.8433.5459.0406.6502.4272.7086.7637-.0005.001-.0008.002-.001.004-.006.0255-.0122.0519-.0184.078zm.5734.007c-.004-.0221-.008-.0451-.0116-.0683.0918-.3901.1984-.6923.6582-.6554.5108.0405.5839.4107.6353.7234z"/><path d="M58.01485 102.8205721c-.0006-.4895-.0899-.758-.2707-1.1662-.15-.3387-.3864-.5709-.762-.5357-.4232.0394-.6607.3779-.7942.7699-.0579.1703-.1803.8067-.1832.9691.1721-.1862.5593-.3597.9771-.3908.4315-.0324.847.1802 1.033.3537zm-2.3584-9.8209c-.0227.1332-.055.2597-.0865.3844-.0677.2684-.1344.5303-.0686.7656.0697.2489.2064.4714.343.6939.1551.2523.3104.5049.4014.832.129.4635.1108.7688.0779 1.3224-.009.1607-.0204.3424-.0286.5374.0865.2704.184.457.2758.6327.1432.2741.2744.5253.3509.997.0369.2262.0377.5598.0244.8886-.007.1772-.019.3651-.032.5341.008-.0009.015-.002.0224-.003.0312-.003.0618-.005.0918-.005.2356-.337.4754-.7336.6398-1.146.1636-.4102.2523-.8337.1823-1.2215-.078-.4331-.3906-.7968-.7058-1.1633-.3065-.3563-.6152-.7155-.7736-1.1801-.1194-.3495-.0848-.6667-.0474-1.0125.0437-.4051.0927-.8578-.1655-1.419-.0553-.1211-.1111-.2418.1301-.3518.2412-.1103.2968.0105.3524.1312.3191.6948.2622 1.2229.2111 1.6957-.0309.2852-.0592.5463.0224.7858.1253.3676.4008.688.6738 1.0057.1602.186.3195.3719.4567.5709.0794-.2551.182-.4867.2789-.7061.0485-.1097.0958-.2163.1386-.3246.0859-.2168.4198-.2111.4981.008.1261.3529.2942.6811.4518.9881.3149.6151.5919 1.1554.4901 1.7513-.0745.4368-.3104.8325-.6086 1.1667-.3741.4195-.8515.7466-1.2197.9312.0711.1006.1335.2123.1882.3331.1378-.1517.3359-.2583.6228-.2878h.001c.9252-.0944 1.0862.7546 1.2455 1.5957.0188.0995.0378.1987.0533.2744.004.0178.005.0354.005.0532.0901.1857.1352.4131.1834.6574.0221.1125.0453.2302.0734.3368.0431.1624-.0901.3353-.258.3353h-2.0508c-.0219 0-.0428-.003-.0632-.008h-1.8462c-.0205.005-.0417.008-.0633.008h-1.9726c-.172 0-.3056-.1797-.2557-.3447.0219-.0723.0357-.1585.0505-.25v-.001c.0286-.1763.0601-.367.1287-.5431-.0281-.0745-.0655-.394-.044-.5748.0613-.5123.1446-1.2039.694-1.4344.0895-.5394.1522-1.0329.1652-1.4652.0128-.4156-.0201-.7656-.1196-1.0327-.0893-.2406.2769-.4603.447-.2692.4496.5045.7855.9703 1.035 1.3977.0561.0964.1071.1905.155.2832.002-.0397.004-.0797.006-.1202.0125-.305.013-.6043-.0159-.7832-.0624-.3838-.1755-.6001-.299-.8368-.1078-.2058-.2223-.4255-.3263-.7665-.002-.007-.0119-.0799-.0116-.0873.01-.2426.0207-.4294.0303-.5927.0298-.5017.0465-.7784-.0573-1.1497-.0694-.2495-.206-.4723-.343-.6948-.1547-.252-.3098-.5043-.4011-.8311-.1037-.3714-.0207-.6996.0647-1.0358.0289-.1154.0586-.2316.0779-.345.0224-.1312.0451-.2622.3067-.2177.262.0448.2396.1758.2172.307zm.513 7.9206c-.0895-.2415-.212-.5029-.3758-.7838-.1046-.1794-.2268-.3668-.3683-.5627.0009.0703 0 .142-.002.2152-.0125.4124-.0678.8784-.1488 1.3861.2114.0377.3772.1483.5051.3061.0966-.214.2239-.4079.39-.5609zm1.4667-.2007c.0323-.0423.0847-.0686.1383-.0947.3226-.1582.7495-.447 1.082-.8198.2387-.2676.426-.576.4816-.9028.072-.4207-.1675-.8881-.4402-1.4205-.0763-.1485-.1551-.3018-.231-.4617-.1503.3569-.2844.7537-.2691 1.2248.0009.0261.002.0522.0006.0771.0343.4369-.066.8827-.2353 1.3071-.1519.3801-.3585.7444-.5714 1.0669.0147.008.0297.0154.0445.0236zm-2.1305 1.8927c.0104-.1092.0252-.2243.0447-.3422-.0272-.1369-.0688-.2639-.1267-.3662-.0654-.1151-.1553-.1945-.2746-.205-.0301-.002-.0559-.003-.0766-.0008h-.001c-.3824.0374-.4567.6029-.5063 1.0174.1341-.0616.2996-.1044.5054-.1205.1696-.0136.3127-.007.4352.0173zm2.9531-.3708c.0275.1553.0487.3127.0643.4677.1319-.0581.2934-.0986.4927-.1142.2015-.0162.3688-.01.5088.0144-.1043-.5204-.2404-.9833-.6264-.9436h.0008c-.2806.0286-.3897.2834-.4402.5757zm-.0363 1.6115 1.393.0003c-.002-.0119-.005-.0236-.007-.0352-.0803-.4076-.1449-.7367-.7509-.6885-.5108.0405-.5837.4107-.635.7234zm-2.1231-.007h1.4935c0-.001-.0002-.002-.0005-.003-.1106-.4702-.2087-.8855-.7708-.8433-.5459.0406-.6502.4272-.7083.7637.0002.001.0005.002.0008.004.006.0255-.0207.0519-.0147.078zm-.54.007c.004-.0221.008-.0451.0113-.0683-.0918-.3901-.1984-.6923-.6582-.6554-.5108.0405-.5839.4107-.635.7234z"/><path d="M44.83405 17.2451721c-.3731-.0714-.7438-.1528-1.1129-.2463-.9927-.2512-1.9755-.5882-2.8763-1.0814-.0233-.0173-.0411-.0389-.0604-.0615-.0346-.0474-.0751-.1004-.091-.1588-.0482-.3237-.1035-.9289-.1664-1.2506-.0641-.3113-.1352-.8014-.2143-1.1098-.066-.2475-.1369-.4927-.2134-.7379-.1072-.3305-.2243-.6556-.3535-.979-.11-.2668-.2271-.529-.3529-.7895-.1046-.21-.2135-.4164-.3283-.6216-.1151-.1999-.2341-.396-.3594-.5902-.1505-.2282-.3079-.4507-.4734-.6695-.1386-.1792-.2815-.3541-.4292-.5267-.1797-.2044-.3645-.4014-.5573-.595-.1956-.1914-.3957-.3759-.6026-.5556-.0553-.0468-.1111-.0884-.1556-.1466-.0193-.0345-.0301-.0623-.0394-.1014-.004-.0406-.003-.072.003-.1129.011-.0391.0235-.0686.0442-.104.0244-.032.0456-.0527.078-.0765.0246-.0108.0496-.0216.0742-.0326.0882-.0221.1749-.0397.2642-.0542.0933-.0113.1843-.0187.2772-.0224.0956-.0008.1894.002.2846.008.0978.009.1939.021.2903.0357.1888.0337.3711.0777.5542.1318.1922.0604.3793.1287.5649.2047.203.085.4003.1777.5967.2744.0964-.0219.1925-.0428.2894-.0601.1766-.0278.3498-.0431.5281-.0471.1262.0003.2484.006.3734.0184.0932.0128.1836.0284.2749.0479.059.0168.1177.0335.1763.0502.0856.0312.1656.0652.2466.1052.0499.0303.0998.0606.1497.091.0454.0365.0907.0728.1358.1094.0402.0428.0805.0859.1208.129.0178.0243.036.0484.0538.0725.017.0264.0335.0525.0502.0788.0581.1089.1074.2186.14.3371.0323.1219.0479.2421.051.3676-.002.0678-.007.1318-.0164.1985-.0119.0637-.0264.1253-.0439.1876-.0652.205-.1591.3974-.2333.5987-.021.0635-.0391.1256-.0545.1902-.0138.072-.0223.1403-.0275.2132.002.0513.004.1029.005.1544.009.0548.0189.1095.028.1639.0184.0581.0366.1162.0547.174.0162.0372.0326.074.0488.1109.0193.034.0382.0677.0575.1015.0218.0303.044.0606.0658.0909.0241.0267.0485.0531.0726.0797.0266.023.053.0456.0793.0686.0281.019.0564.038.0845.057.0298.0153.0595.0306.089.0456.0301.0111.0601.0221.0901.0332.0635.017.1225.0286.1871.0365.0641.004.1236.004.1868 0 .0641-.008.1236-.0192.186-.0343.0632-.0192.1213-.0408.1817-.0669.0589-.03.1128-.0615.1681-.098.0439-.0369.0881-.0737.1321-.1106.0244-.0269.0487-.0538.0731-.0805.0213-.0298.0428-.0595.0644-.0893.0184-.0326.0362-.0649.0544-.0975.0147-.0349.0292-.07.0439-.1052.0105-.0371.021-.0745.0315-.1119.006-.0394.0122-.0791.0181-.1185.001-.0408.003-.0817.004-.1225-.004-.0575-.0122-.1085-.0252-.1649-.0165-.0545-.0349-.1063-.0567-.1594-.1143-.2517-.2722-.4818-.4181-.7168-.0562-.093-.1106-.1866-.1627-.2826-.0468-.0933-.0888-.1863-.1276-.2844-.0193-.0637-.0386-.1278-.0578-.1919-.006-.0326-.0125-.0652-.019-.0975-.004-.0331-.008-.066-.0119-.0989-.001-.0335-.003-.0672-.004-.1006.002-.0346.003-.0689.004-.1032.005-.0355.009-.0709.0136-.1063.008-.0369.0153-.074.0232-.1109.0201-.0637.0403-.1272.0604-.191.0261-.059.0521-.1179.0782-.1769.0315-.0539.0629-.108.0944-.1619.0363-.0487.0726-.098.1089-.1468.0408-.0439.0816-.0879.1221-.1318.0664-.0607.1324-.1154.2047-.1687.074-.0493.1471-.0927.2254-.134.0686-.0321.136-.0601.2069-.0859.0717-.023.142-.042.2148-.0584.0737-.0131.1455-.023.2194-.0298.0749-.003.1472-.004.2212-.0008.0737.007.1451.0161.2174.0292.0751.0173.1462.0374.2185.0618.0737.0292.1418.0603.2112.0963.0689.0409.1315.0828.195.1301.063.0525.1196.1058.1758.1647.0348.0431.07.0865.1046.1296.0312.0487.0623.0975.0932.1463.0536.1011.0992.2021.142.3072.0219.0678.0431.1355.065.2033.0116.0612.0235.1221.0354.1834.004.0561.008.1122.0122.1681-.001.0805-.006.1567-.0156.2358-.009.0516-.0179.1026-.0272.1539-.0457.2078-.1058.4096-.129.6211-.004.0567-.006.112-.006.1681.005.108.0207.2064.0457.3107.0113.0368.0224.0734.0334.11.0136.036.0269.0717.0406.1074.0158.0346.032.0689.0479.1032.0181.0329.0365.0655.0547.0983.0207.0309.0416.0618.062.0927.0233.0287.0465.0573.0695.0859.0258.0264.0513.0527.0771.0788.0281.023.0561.0459.0839.0692.0241.0159.0482.0317.072.0476.0255.0133.051.0267.0768.04.0272.011.0544.0215.0817.0326.0286.008.0575.0156.0861.0235.0301.005.0601.01.0899.0147.0312.002.0626.003.0938.005.0321-.001.0641-.003.0961-.005.2157-.0331.4334-.081.6412-.1465.0539-.0187.1057-.0389.1579-.0618.0675-.0332.1253-.0681.1851-.1137.0391-.0349.0712-.0689.1043-.11.0312-.0456.0564-.0896.0808-.1397.0224-.0559.04-.1094.0561-.1676.0196-.0907.0318-.178.04-.2707.004-.0858.006-.1709.005-.2573-.006-.0292-.0111-.0587-.0167-.0879-.0136-.0295-.027-.0593-.0406-.0887-.0172-.0273-.0348-.0545-.0521-.0817-.044-.0533-.0876-.1066-.1315-.1599-.1792-.1924-.3697-.3744-.5468-.57-.0457-.0556-.0913-.1108-.1367-.1664-.0615-.0853-.1151-.1684-.1664-.2608-.0141-.0303-.028-.0604-.0422-.0907-.0116-.0309-.0232-.0621-.0349-.0935-.009-.0318-.0181-.0641-.0272-.0964-.006-.0332-.0122-.0666-.0184-.1001-.003-.0348-.006-.07-.01-.1049 0-.0368.0002-.0734.0002-.1102.004-.0389.007-.0777.0111-.1168.0102-.0556.0201-.1111.0303-.1664.0131-.0488.0264-.097.0397-.1457.0159-.0417.032-.0833.0479-.125.0184-.0357.0366-.0712.055-.1069.0204-.0303.0411-.0606.0615-.091.0227-.0258.0454-.0513.0678-.0771.0249-.0221.0496-.0442.0745-.066.0269-.019.0539-.0377.0805-.0567.0295-.0162.059-.032.0885-.0482.0317-.0139.0637-.0278.0952-.0414.0343-.0119.0686-.0235.1029-.0354.0746-.0182.1494-.0369.2242-.0553.1205-.0224.241-.042.3617-.0601.0105 0 .0204-.003.0309-.005.0431-.0108.0865-.0216.1296-.0326.0005-.0899.0002-.18.004-.2704.0102-.1608.0349-.3107.089-.4632.0278-.0706.0601-.1344.0981-.2007.0269-.0369.0536-.074.0805-.1108.0312-.0321.0624-.0638.0938-.0956.0366-.0269.0732-.0538.1097-.0808.0426-.0218.0854-.0436.1279-.0652.0499-.0164.0995-.0328.1494-.0493.0581-.0105.1162-.021.174-.0314.0666-.004.1332-.007.2001-.0111.0667.004.1335.007.2002.0111.0581.0104.1162.0209.1743.0314.0496.0165.0992.0329.1491.0493.0428.0216.0853.0434.1281.0652.0366.027.0732.0539.1097.0808.0312.0318.0624.0635.0938.0956.027.0368.0536.0739.0803.1108.0309.0536.0592.1066.0836.163.0417.106.068.2097.0856.322.0122.0907.0187.1808.0207.2718.0006.0613.0008.1228.001.184.0516.0105.1035.0207.1556.0309.0406.006.0811.0119.1216.0176.1208.0193.2401.0414.3603.068.0363.01.0729.0199.1092.0301.034.0116.0683.0232.1026.0351.032.0136.0637.0278.0958.0414.0292.0162.0587.032.0879.0482.0269.019.0541.038.081.0567.0247.0221.0493.0439.0743.066.0227.0258.0451.0516.0677.0771.0207.0304.0411.0607.0618.091.0182.0357.0366.0712.055.1069.0159.0417.0318.0833.0479.125.0131.0487.0264.0969.0394.1457.0102.0553.0202.1108.0304.1664.004.0391.007.0779.011.1168 0 .0368 0 .0734.0003.1102-.003.0349-.007.0701-.01.1049-.006.0335-.0125.0669-.0185.1001-.009.0323-.0184.0646-.0272.0964-.0116.0314-.0235.0626-.0348.0935-.0145.0303-.0284.0607-.0426.091-.0348.0584-.07.1168-.1048.1752-.0633.0879-.1282.1698-.1982.2517-.1771.1953-.3676.3776-.5465.57-.0439.0533-.0876.1066-.1315.1599-.0173.0272-.0349.0544-.0522.0817-.0136.0294-.0272.0592-.0405.0887-.006.0292-.0114.0587-.0167.0879.0002.06.0008.1201.001.1802.006.1194.0184.2313.0439.3478.0159.0582.0338.1117.0562.1676.0243.0501.0496.0941.0807.1397.0332.0411.0652.0751.1044.11.0442.0337.0875.0618.1357.0893.0862.0425.171.0748.2628.1035.1911.0555.3886.0992.5856.1289.0321.002.0641.003.0964.005.0309-.001.0621-.003.0933-.005.03-.005.0601-.01.0901-.0147.0287-.008.0573-.0159.0862-.0235.0272-.0111.0544-.0216.0816-.0326.0255-.0133.0511-.0267.0766-.04.0241-.0159.0482-.0317.0723-.0476.028-.0233.0558-.0462.0839-.0692.0255-.0261.051-.0524.0768-.0788.0232-.0286.0462-.057.0694-.0859.0207-.0306.0417-.0618.0621-.0927.0184-.0326.0366-.0654.055-.0983.0159-.0343.032-.0686.0479-.1032.0133-.0357.0269-.0714.0403-.1072.0164-.0586.0328-.1173.0493-.176.0119-.0621.021-.1224.0269-.1857.006-.1133.0006-.2191-.0156-.3316-.0343-.1999-.0927-.3943-.1309-.5936-.0122-.0777-.0213-.1536-.0267-.2327.0009-.0542.001-.1083.002-.1627.008-.0584.0153-.1165.0232-.1749.0165-.0644.0329-.1287.0493-.1928.0273-.0717.0545-.1434.0817-.2151.032-.0655.0643-.131.0966-.1967.0312-.0488.0621-.0976.0933-.1463.0349-.0431.07-.0865.1049-.1296.0561-.0589.1128-.1122.1757-.1647.0632-.0473.1259-.0892.1951-.1301.0691-.036.1374-.0671.2111-.0963.0723-.0244.1435-.0445.2186-.0618.0723-.0131.1434-.0227.2171-.0292.0743-.003.1466-.003.2211.0008.074.007.146.0167.2197.0298.0729.0164.1434.0357.2152.0584.0705.0258.138.0538.2066.0859.0785.0413.1517.0847.2254.134.0722.0533.1383.1083.2046.1687.0406.0442.0814.0882.1222.1318.0363.0491.0726.0981.1088.1468.0315.0539.063.108.0944.1619.0261.059.0522.1179.0783.1772.0201.0635.0402.127.0604.1907.008.0369.0155.074.0232.1109.005.0354.009.0708.0133.1063.002.0343.003.0686.005.1032-.002.0334-.003.0671-.004.1006-.004.0329-.008.0658-.0119.0989-.007.0323-.0128.0649-.019.0975-.0193.0641-.0386.1282-.0576.1919-.0272.0635-.0538.1267-.0807.19-.065.1298-.135.2534-.2098.377-.146.235-.3042.4651-.4184.7168-.0215.0531-.04.1049-.0564.1594-.0133.0564-.0213.1074-.0252.1649.001.0408.002.0817.004.1225.006.0394.0122.0791.0182.1185.0105.0374.0209.0748.0314.1119.0145.0352.0292.0703.0437.1052.0181.0326.0363.0649.0544.0975.0216.0298.0431.0595.0646.0893.0241.0267.0485.0536.0729.0805.0442.0369.0882.0737.1324.1106.0552.0365.1088.068.1678.098.0604.0261.1185.0477.182.0669.0623.0151.1219.0264.1859.0343.0635.004.1228.004.1868 0 .0647-.008.1236-.0195.1871-.0365.0301-.0111.0601-.0221.0902-.0332.0297-.015.0592-.0303.0887-.0456.0283-.019.0564-.038.0847-.057.0264-.023.0528-.0456.0794-.0686.0241-.0266.0482-.053.0726-.0797.0221-.0303.0436-.0606.0657-.0907.0193-.034.0386-.0677.0576-.1017.0164-.0369.0326-.0737.0487-.1109.0185-.0578.0366-.1159.0547-.174.009-.0544.0188-.1091.0281-.1639.002-.0515.003-.1031.005-.1544-.005-.0729-.0136-.1412-.0272-.2132-.0156-.0646-.0335-.1267-.0547-.1902-.0743-.2013-.1678-.3937-.2333-.5987-.0235-.0842-.0411-.1652-.053-.252-.003-.0448-.005-.0893-.008-.1341.004-.1462.0244-.2885.0695-.4283.0119-.0334.0241-.0672.0363-.1006.0133-.0303.0269-.061.0402-.0913.015-.0283.0301-.0564.0454-.0845.0167-.0263.0331-.0524.0499-.0785.0178-.0244.036-.0485.0541-.0725.04-.0431.0802-.0862.1205-.1293.0453-.0366.0904-.0729.1358-.1094.0498-.0304.0997-.0607.1496-.091.0539-.0247.108-.0493.1619-.074.0864-.0317.1712-.0578.2611-.0811.0912-.0198.1817-.0354.2749-.0482.125-.0121.2472-.0181.3733-.0184.1503.003.2963.0148.4454.034.1255.0196.2477.0448.3719.0732.1967-.0967.394-.1894.5967-.2744.2123-.0868.4263-.1636.6468-.2288.1565-.0434.3121-.0791.4726-.1077.1289-.0196.2554-.0337.386-.042.0941-.003.1874-.002.2824.002.1624.0131.3347.0323.4892.0876.036.0193.0598.0369.0888.0652.0246.032.0402.0595.0558.0964.0113.0397.0162.0714.0173.1122l-.0119.0732c-.0148.038-.0292.0638-.0536.0955-.0751.0729-.1582.1386-.2364.2067-.1366.1216-.2701.2446-.402.3704-.195.1911-.3823.3861-.5646.5882-.1803.205-.3524.4133-.5193.6288-.1653.2188-.3223.4413-.4731.6695-.1253.1942-.2444.39-.3595.5902-.1383.2469-.2675.496-.3903.7503-.1023.2186-.199.4385-.2908.6608-.0919.2296-.1778.4603-.2588.693-.1143.3388-.216.6789-.3082 1.0239-.079.3084-.1505.7985-.2143 1.1098-.0629.3217-.1182.9275-.1663 1.2509-.0122.0439-.0383.0819-.0624.1196-.0267.0357-.0533.0743-.089.1004-.1939.106-.3892.2038-.5885.2968-.2945.1332-.5916.2545-.8949.3631-.3288.1179-.6602.2225-.9961.316-.3591.1001-.72.1883-1.0839.2656-1.7326.3691-3.5173.5219-5.2867.5227-1.6256.0009-3.2629-.1303-4.8605-.4365zm-3.6536-2.2031c1.1727-.4634 2.5713-.8526 4.0076-1.1299 1.5681-.3021 3.185-.4733 4.6057-.4657 1.3825.008 2.9399.1817 4.4479.4799 1.4323.2829 2.8253.6803 3.9861 1.1537.0252-.1414.0516-.324.0796-.5224-.0159-.006-.0314-.0133-.0473-.0199-1.1639-.4915-2.5977-.9048-4.0822-1.1979-1.4876-.2942-3.0229-.466-4.3841-.4734-1.4023-.008-2.9973.161-4.5436.4592-1.5012.2895-2.954.7002-4.1389 1.1878.007.0428.0145.0833.0216.1216.0161.0912.0323.248.0476.407zm16.8556.5137c-1.1216-.451-2.4672-.8314-3.8582-1.1061-1.4876-.294-3.0229-.466-4.3841-.4734-1.4023-.008-2.9973.1613-4.5436.4595-1.4136.2724-2.7839.6525-3.9285 1.1032l.1601.0808c1.0483.5035 2.1787.8207 3.3154 1.0474.0936.0185.1874.0366.2812.0536 1.6288.2971 3.2865.415 4.9411.3977 1.7804-.0181 3.5867-.1979 5.3209-.6154.3906-.0938.777-.201 1.1597-.3248.2831-.0913.5618-.1922.8379-.3045.2233-.091.4422-.191.6596-.2985zm-17.0101-1.5616c1.2039-.491 2.6623-.9023 4.1621-1.1917 1.5681-.3022 3.185-.4737 4.6057-.4658 1.3825.007 2.9399.1817 4.4479.4797 1.4964.2956 2.9494.7154 4.1403 1.2172.0462-.3133.0961-.6169.1496-.8263.0658-.2469.1364-.4924.2121-.7376.1057-.3302.2211-.6557.3481-.9791.0901-.2234.1848-.4436.2851-.6633.1429-.3033.2948-.6007.4595-.8938.1435-.2506.2943-.4955.4544-.7367.1599-.2361.3266-.4666.5023-.6925.1763-.2228.3592-.4391.5502-.6506.2277-.2477.466-.4875.7013-.7293-.3092.0774-.6191.1463-.9218.2435-.0853.0289-.1698.0592-.2534.0907-.2727.1069-.5352.2285-.7954.3611-.0357.0136-.078.0159-.1151.0196-.0388.002-.0808.007-.1188-.0009-.1074-.0311-.2131-.0564-.3226-.0782-.0881-.0122-.176-.0241-.2642-.0363-.0464-.003-.0926-.006-.1391-.009-.0474-.0006-.0944-.001-.1415-.002-.0476.002-.0949.005-.1423.007-.0473.006-.0944.0119-.1414.0175-.0462.01-.0924.0199-.1386.0295-.0448.0147-.0896.0292-.1341.0439-.0425.0202-.0851.0403-.1276.0601-.0394.0267-.0785.0533-.1179.0797-.0346.0334-.0689.0669-.1035.1003-.0283.0409-.0567.0814-.085.1219-.0315.0732-.0627.1386-.0805.214-.0162.0709-.0179.1378-.0182.209.003.032.007.0635.0111.0952.006.0303.0133.0609.0201.0913.0261.0876.0562.1703.0902.2554.0688.1627.1369.3234.191.4912.0238.0865.0428.1707.0576.2588.004.0621.009.1242.0136.186-.004.0677-.007.1355-.0114.2032-.006.0366-.0113.0732-.0173.1094-.009.0386-.017.0774-.0258.1157-.0116.0408-.0232.0816-.0348.1225-.0284.0742-.0567.1488-.0848.2233-.0295.0578-.0589.1154-.0884.1732-.0337.0505-.0675.1012-.1009.152-.0374.0442-.0749.0884-.1123.1323-.0405.0383-.0811.076-.1219.114-.0436.032-.0873.0641-.1306.0958-.0465.0264-.0925.0527-.1389.0788-.1038.0479-.2041.0853-.3141.1123-.0973.0209-.1905.0331-.2892.0377-.0992.002-.1944-.004-.2925-.0176-.0978-.0165-.1899-.0386-.2837-.0689-.0936-.0332-.1806-.0714-.2679-.1176-.072-.0406-.1389-.0837-.2055-.1324-.0349-.0284-.0695-.057-.1043-.0856-.0635-.0596-.1205-.1191-.1772-.1854-.0337-.0462-.0672-.0927-.1009-.1389-.0284-.0502-.0567-.1006-.0851-.1511-.0224-.0539-.045-.108-.0677-.1619-.0165-.0578-.0326-.1156-.049-.1734-.01-.0615-.0193-.1231-.0287-.1843-.002-.0652-.004-.1301-.007-.1953.004-.0748.0125-.1446.0255-.2188.0173-.0723.0371-.1409.0615-.2118.0377-.0961.0802-.1871.1279-.2792.1423-.2594.3106-.5023.4578-.7594.0368-.0683.0714-.1363.1043-.2075.0292-.0709.0536-.1394.0751-.2134.008-.0494.0167-.0987.0252-.148.0009-.0249.002-.0502.003-.0754-.002-.0249-.003-.0505-.005-.0757-.005-.0252-.01-.0504-.0142-.0754-.0136-.0431-.0269-.0859-.0405-.1287-.0173-.0397-.0349-.0794-.0522-.119-.021-.0366-.0422-.0729-.0632-.1095-.0244-.0331-.0487-.0663-.0731-.0997-.0275-.0295-.0547-.0593-.0822-.089-.0295-.0261-.0596-.0522-.0893-.0786-.0321-.0226-.0638-.045-.0958-.0677-.0491-.0261-.0981-.0522-.1474-.0782-.0312-.0122-.0621-.0244-.0933-.0366-.1298-.0417-.2509-.0612-.3869-.0615-.0842.003-.1607.0136-.2424.0323-.0297.009-.0598.0187-.0896.0278-.0297.0127-.0592.0255-.0887.038-.0286.0158-.057.0317-.0856.0476-.0269.019-.0538.0382-.0808.0572-.0252.0224-.0504.0448-.0754.0672-.0229.0255-.0459.051-.0689.0766-.0204.0283-.0411.0569-.0615.0856-.0175.0311-.0348.062-.0524.0929-.0227.0525-.0454.1052-.0683.1576-.0247.0737-.044.1435-.0598.2189-.01.0686-.0156.1326-.017.201.002.0626.007.1221.0141.1834.0329.1972.091.3886.1279.5847.0144.0885.0241.1749.0289.2642.0008.074-.001.146-.006.2194-.01.0842-.0229.1656-.0397.2481-.0206.0847-.0436.1666-.0705.2491-.0287.078-.0593.1528-.0936.2279-.0371.0735-.0754.1426-.1179.2123-.0445.0672-.0904.1299-.1403.1925-.0522.0595-.1046.1143-.1616.1681-.0581.0499-.1154.0947-.1774.1381-.0616.0388-.1219.0728-.186.1048-.0669.0292-.1315.0536-.2001.0754-.0723.0188-.1412.0326-.2143.0431-.0777.007-.152.01-.2293.008-.0539-.005-.1078-.0103-.1616-.0156-.2149-.038-.4283-.0845-.6375-.146-.1182-.0383-.2276-.0811-.3385-.1367-.0632-.0351-.1213-.0717-.1806-.1131-.0385-.0317-.0768-.0635-.1153-.0952-.0559-.0556-.1043-.1097-.1528-.1718-.0286-.0445-.057-.0896-.0853-.1341-.0241-.051-.0477-.1023-.0717-.1536-.019-.0584-.038-.1171-.057-.1757-.0136-.0672-.0272-.1341-.0408-.2013-.008-.0763-.0159-.1525-.0236-.2288-.005-.1119-.007-.2222 0-.3344.009-.0477.0179-.095.027-.1426.0158-.0451.032-.0899.0484-.135.0329-.068.0683-.1304.1097-.1947.0635-.0893.1313-.1718.2047-.2543.2001-.2157.419-.415.6046-.6446.0287-.0399.0573-.0799.0859-.1199.0383-.064.0697-.1247.0989-.1941.007-.023.0142-.0462.0216-.0695.005-.0241.009-.0482.0142-.072.002-.0252.003-.0499.005-.0748-.002-.0267-.004-.0533-.005-.08-.0136-.0521-.0273-.1043-.0411-.1567-.0256-.0445-.0511-.0893-.0766-.1338-.0346-.0343-.0694-.0686-.1043-.1029-.04-.0241-.0802-.0485-.1202-.0729-.0428-.0164-.0856-.0331-.1281-.0496-.0439-.0113-.0876-.0226-.1315-.034-.2319-.0431-.4672-.0683-.6968-.1213-.0147-.005-.0298-.0111-.0448-.0162-.0133-.009-.0263-.0167-.0397-.0249-.0136-.0122-.0269-.0244-.0402-.0366-.0125-.0147-.0247-.03-.0372-.045-.01-.0168-.0198-.0335-.0297-.0502-.007-.0167-.0133-.0335-.0201-.0502-.003-.0153-.007-.0306-.01-.0459v-.0493c.006-.0678.0125-.1355.0187-.2036.004-.1014.005-.199-.002-.3007-.004-.0312-.008-.0624-.0124-.0933-.007-.03-.0139-.0598-.021-.0896-.0105-.0289-.021-.0575-.0318-.0864-.011-.0193-.0221-.0383-.0331-.0573-.0148-.017-.0298-.0343-.0445-.0516-.0179-.0141-.036-.0286-.0542-.0433-.0207-.0111-.0411-.0224-.0615-.0338-.0227-.008-.0451-.0161-.0675-.0243-.024-.005-.0481-.0111-.0722-.0165-.0258-.003-.0516-.006-.0777-.01h-.1692c-.0261.003-.0519.006-.078.01-.0241.005-.0479.0111-.072.0165-.0224.008-.0448.0164-.0675.0243-.0204.0114-.0408.0227-.0612.0338-.0184.0147-.0363.0289-.0544.0431-.015.0172-.0298.0345-.0445.0518-.0111.019-.0221.038-.0332.0573-.0107.0289-.0215.0575-.032.0864-.007.0298-.0139.0599-.0207.0896-.004.0312-.008.0621-.0125.0933-.002.0657-.004.1315-.006.1973.004.1034.0119.2043.0229.307v.0493c-.003.0153-.006.0306-.01.0459-.007.0167-.0136.0335-.0204.0502-.01.0167-.0199.0334-.0298.0502-.0122.015-.0244.03-.0365.045-.0136.0122-.0273.0244-.0409.0366-.013.008-.0263.0164-.0394.0249-.0819.0295-.1681.0428-.2531.0579-.1624.0269-.3257.0493-.4887.0796-.0436.0114-.0876.0227-.1312.034-.0428.0165-.0854.0332-.1282.0496-.0402.0244-.0802.0488-.1204.0729-.0346.0346-.0695.0686-.1043.1029-.0256.0448-.0511.0893-.0766.1338-.0136.0524-.0272.1046-.0408.1567-.002.0267-.004.0533-.005.0797.002.0252.004.0499.005.0751.005.0238.009.0479.0142.072.007.0233.0144.0465.0215.0695.0204.0439.0408.0878.0615.1315.0386.0643.0785.123.123.1825.186.2296.4048.4289.605.6446.0734.0825.1408.165.2046.2543.0414.0643.0766.1261.1097.1947.0162.0451.0323.0899.0485.135.009.0476.0179.0949.0269.1426.009.1522.003.301-.009.4526-.0111.0715-.0219.1432-.0329.2146-.0165.0627-.0329.1256-.0491.1882-.0215.0548-.0428.1098-.0643.1645-.0261.0476-.0525.0955-.0782.1431-.0309.042-.0616.0839-.0922.1259-.0351.0368-.0706.0737-.1054.1108-.0567.049-.1123.0933-.1738.1361-.0609.0382-.1216.072-.1859.1043-.0669.0297-.1338.0567-.203.0813-.2313.0754-.4697.127-.7092.1693-.0808.01-.1582.0156-.2398.017-.076-.003-.148-.009-.2243-.0202-.0714-.0147-.1389-.032-.2092-.0544-.0671-.0252-.1306-.0527-.1953-.0853-.0629-.0354-.1216-.0723-.1814-.1142-.0615-.0477-.1182-.0961-.1749-.15-.0547-.0573-.1051-.1148-.1548-.1769-.0473-.0649-.0909-.1301-.1329-.1995-.0397-.0715-.0757-.1432-.11-.218-.0314-.0766-.0592-.1528-.0853-.2322-.032-.1125-.057-.2231-.0754-.3396-.009-.0762-.0142-.1505-.0159-.2276.001-.0915.008-.1794.0193-.2707.0264-.1633.0675-.3217.106-.4827.0167-.0749.0301-.1489.0397-.2254.007-.0873.007-.1684-.0003-.2562-.0105-.0729-.0252-.1409-.0445-.2129-.0187-.0505-.0374-.1009-.0564-.1517-.0122-.0269-.0247-.0538-.0374-.0808-.0173-.0309-.0349-.062-.0522-.0929-.0207-.0287-.0411-.0573-.0618-.0856-.0229-.0256-.0459-.0511-.0686-.0766-.0252-.0224-.0504-.0448-.0754-.0672-.0269-.019-.0538-.0379-.0808-.0572-.0286-.0159-.0569-.0318-.0856-.0476-.0294-.0125-.0592-.0253-.089-.038-.0462-.0131-.0924-.0258-.1389-.0391-.098-.0176-.1893-.0233-.2891-.0185-.0666.006-.1293.0159-.195.0309-.0831.0221-.1585.0505-.237.087-.0329.0185-.066.0372-.0992.0559-.0318.0224-.0638.0451-.0958.0677-.0298.0261-.0596.0522-.0896.0786-.0272.0297-.0544.0595-.0819.089-.0244.0331-.0488.0666-.0732.0997-.0209.0363-.0422.0729-.0632.1095-.0173.0396-.0348.0793-.0521.119-.0133.0428-.027.0856-.0406.1287-.005.025-.009.0502-.0141.0754-.002.0252-.004.0508-.005.0757.0008.0252.002.0505.002.0754.009.0493.017.0986.0255.148.0213.074.0457.1425.0749.2134.0224.0462.0448.0927.0672.1389.1661.3062.3716.5882.5309.8975.0334.0697.0638.1386.0915.2094.0329.0956.057.1851.0743.2838.004.049.009.0981.0131.1471-.002.0652-.004.1301-.007.1953-.01.0612-.019.1228-.0286.1843-.0164.0578-.0326.1156-.049.1734-.0227.0539-.0454.108-.0678.1619-.0283.0505-.057.1009-.085.1511-.0338.0462-.0675.0927-.1009.1389-.0383.0425-.0766.0845-.1151.1267-.0539.051-.1083.0986-.1664.1443-.1126.0657-.2248.1315-.3373.1973-.1078.0346-.2152.0691-.3226.1037-.0978.0196-.1922.0312-.292.0355-.0487.0008-.0975-.0003-.1468-.002-.1145-.009-.2217-.0281-.3334-.0601-.0759-.0255-.1471-.0536-.2208-.0876-.0462-.0261-.0927-.0524-.1386-.0788-.0437-.0317-.0873-.0638-.131-.0958-.0405-.038-.0813-.0757-.1221-.114-.0372-.0439-.0746-.0881-.112-.1323-.0335-.0508-.0672-.1015-.1009-.152-.0292-.0578-.059-.1154-.0885-.1732-.028-.0742-.0561-.1488-.0844-.2233-.0117-.0409-.0236-.0817-.0352-.1225-.008-.0383-.0173-.0771-.0258-.1157-.006-.0362-.0113-.0728-.017-.1094-.004-.0677-.008-.1355-.0119-.2032.005-.0618.009-.1239.0139-.186.0116-.0581.023-.1162.0343-.1746.0235-.0845.0499-.1664.0799-.2492.0647-.1652.1378-.3268.1985-.494.009-.0292.0175-.0584.026-.0876.007-.0304.0134-.061.0202-.0913.004-.0317.007-.0632.011-.0952-.0003-.0831-.005-.1602-.0264-.2407-.0172-.0629-.0462-.1216-.0725-.1823-.0281-.0408-.0564-.0813-.0848-.1219-.0346-.0334-.0691-.0669-.1037-.1006-.0394-.0264-.0785-.0527-.1179-.0794-.0426-.0198-.0848-.0399-.1273-.0601-.0448-.0147-.0896-.0292-.1341-.0439-.0462-.01-.0924-.0195-.1389-.0295-.0468-.006-.0941-.0116-.1412-.0175-.0476-.002-.0949-.005-.1423-.007-.0473.0005-.0944.001-.1414.002-.0916.008-.1828.0164-.2744.0249-.0833.015-.167.0301-.2506.0451-.0669.0181-.1341.036-.201.0538-.0379.008-.0799.003-.1187.0009-.0372-.004-.0794-.006-.1154-.0196-.0998-.051-.2007-.1006-.3025-.1494-.3316-.1542-.6726-.2942-1.0281-.3857-.2126-.0533-.4263-.1066-.6398-.1599.2353.2418.4734.4813.7013.7293.239.2642.4649.5366.6803.8195.1718.2296.3345.4635.4902.7036.176.2758.3401.5564.4946.8441.1276.2427.2472.4876.3608.7365.0981.2214.1911.4439.2793.669.1238.3265.2361.655.339.9881.089.2974.1695.5956.2435.8963.032.1367.0629.3079.0921.4831"/><path fill="#866d4b" d="M40.52645 12.0325721c.3583 0 .6486.2903.6486.6486 0 .3583-.2903.6485-.6486.6485-.358 0-.6485-.2902-.6485-.6485 0-.3583.2905-.6486.6485-.6486"/><path fill="#866d4b" d="M58.86295 12.0325721c-.3583 0-.6486.2903-.6486.6486 0 .3583.2903.6485.6486.6485.358 0 .6483-.2902.6483-.6485 0-.3583-.2903-.6486-.6483-.6486"/><path d="M40.52675 11.8329721c.4669 0 .8482.3813.8482.8482 0 .4671-.3813.8484-.8482.8484-.4671 0-.8484-.3813-.8484-.8484 0-.4669.3813-.8482.8484-.8482zm0 .3991c-.2474 0-.4493.2019-.4493.4491 0 .2471.2019.4492.4493.4492.2472 0 .449-.2021.449-.4492 0-.2472-.2018-.4491-.449-.4491"/><path d="M58.86265 12.2320721c-.2472 0-.449.2019-.449.4491 0 .2471.2018.4492.449.4492s.449-.2021.449-.4492c0-.2472-.2018-.4491-.449-.4491zm0-.3991c.4672 0 .8484.3813.8484.8482 0 .4671-.3812.8484-.8484.8484-.4671 0-.8481-.3813-.8481-.8484 0-.4669.381-.8482.8481-.8482"/><path d="M45.06475 10.8005721c.2336 0 .4459.0956.5993.2489.1533.1534.2488.366.2488.5996 0 .2332-.0955.4458-.2488.5992-.1534.1534-.3657.2489-.5993.2489-.2327 0-.445-.0955-.5987-.2489h-.0008c-.1534-.1534-.2489-.366-.2489-.5992 0-.2336.0955-.4462.2489-.5996h.0008c.1537-.1533.366-.2489.5987-.2489zm0 .3992c-.1239 0-.237.0507-.318.1318h.0005c-.081.0813-.1318.1939-.1318.3175 0 .1233.0508.2358.1318.3172h-.0005c.081.081.1941.1318.318.1318.1236 0 .2359-.0508.3172-.1318.0811-.0814.1318-.1939.1318-.3172 0-.1236-.0507-.2362-.1318-.3175-.0813-.0811-.1936-.1318-.3172-.1318"/><path d="M54.32465 11.1997721c-.1235 0-.2358.0507-.3172.1318-.0813.0813-.1318.1939-.1318.3175 0 .1233.0505.2358.1318.3172.0814.081.1937.1318.3172.1318.1239 0 .237-.0508.3181-.1318h-.0009c.0814-.0814.1319-.1939.1319-.3172 0-.1236-.0505-.2362-.1319-.3175h.0009c-.0811-.0811-.1942-.1318-.3181-.1318zm0-.3992c.2328 0 .4448.0956.5987.2489h.0009c.1533.1534.2489.366.2489.5996 0 .2332-.0956.4458-.2489.5992h-.0009c-.1539.1534-.3659.2489-.5987.2489-.2335 0-.4458-.0955-.5992-.2489-.1536-.1534-.2489-.366-.2489-.5992 0-.2336.0953-.4462.2489-.5996.1534-.1533.3657-.2489.5992-.2489"/><path d="M49.65405 10.3447721c.2336 0 .4456.0956.5992.2489.1534.1534.2486.3657.2486.5993 0 .2335-.0952.4461-.2486.5995-.1536.1533-.3656.2489-.5992.2489-.233 0-.445-.0956-.5987-.2489h-.0008c-.1537-.1534-.2489-.366-.2489-.5995 0-.2336.0952-.4459.2489-.5993h.0008c.1537-.1533.3657-.2489.5987-.2489zm0 .3992c-.1242 0-.237.0504-.3183.1318h.0008c-.0813.0813-.1318.1939-.1318.3172 0 .1236.0505.2361.1318.3172h-.0008c.0813.0813.1941.1318.3183.1318.1236 0 .2358-.0505.3169-.1318.0814-.0811.1318-.1936.1318-.3172 0-.1233-.0504-.2359-.1318-.3172-.0811-.0814-.1933-.1318-.3169-.1318"/></svg>